<mxfile host="Electron" agent="Mozilla/5.0 (Windows NT 10.0; Win64; x64) AppleWebKit/537.36 (KHTML, like Gecko) draw.io/24.7.17 Chrome/128.0.6613.36 Electron/32.0.1 Safari/537.36" version="24.7.17">
  <diagram name="Page-1" id="7YMCqNnZN8Lj4f7OU_e2">
    <mxGraphModel dx="1457" dy="710" grid="1" gridSize="10" guides="1" tooltips="1" connect="1" arrows="1" fold="1" page="1" pageScale="1" pageWidth="850" pageHeight="1100" math="0" shadow="0">
      <root>
        <mxCell id="0" />
        <mxCell id="1" parent="0" />
        <mxCell id="MIznTLobwmh9sBrvItSn-144" value="&lt;font size=&quot;1&quot; color=&quot;#181615&quot;&gt;&lt;b style=&quot;font-size: 12px&quot;&gt;Oracle Cloud&lt;/b&gt;&lt;/font&gt;" style="rounded=1;whiteSpace=wrap;html=1;labelBackgroundColor=none;gradientColor=none;fontFamily=Oracle Sans;fontSize=11;align=right;arcSize=10;verticalAlign=top;spacingRight=5;fontColor=#ffffff;fillColor=#F5F4F2;strokeColor=#9E9892;" parent="1" vertex="1">
          <mxGeometry x="30" y="9" width="1210" height="670" as="geometry" />
        </mxCell>
        <mxCell id="YdG8qfdtloJJfCclqbba-26" value="&lt;b&gt;DB Subnet&lt;/b&gt;&lt;br&gt;&lt;font color=&quot;#312d2a&quot;&gt;10.2.1.1/25&lt;/font&gt;" style="whiteSpace=wrap;html=1;strokeWidth=1;dashed=1;align=left;fontFamily=Oracle Sans;verticalAlign=top;fillColor=none;fontColor=#AE562C;perimeterSpacing=0;strokeColor=#AE562C;fontSize=12;spacingLeft=5;" parent="1" vertex="1">
          <mxGeometry x="1005" y="130" width="136" height="350" as="geometry" />
        </mxCell>
        <mxCell id="LHHHwAimLA2ammTCAFYy-2" value="&lt;b&gt;GG Subnet&lt;/b&gt;&lt;br&gt;&lt;font color=&quot;#312d2a&quot;&gt;10.1.1.11/25&lt;/font&gt;" style="whiteSpace=wrap;html=1;strokeWidth=1;dashed=1;align=left;fontFamily=Oracle Sans;verticalAlign=top;fillColor=none;fontColor=#AE562C;perimeterSpacing=0;strokeColor=#AE562C;fontSize=12;spacingLeft=5;" parent="1" vertex="1">
          <mxGeometry x="180" y="130" width="824.5" height="350" as="geometry" />
        </mxCell>
        <mxCell id="_eA7hQRQa1pNzd35qElG-88" value="&lt;font size=&quot;1&quot;&gt;&lt;b style=&quot;font-size: 12px&quot;&gt;GoldenGate Deployment&lt;/b&gt;&lt;/font&gt;" style="rounded=1;whiteSpace=wrap;html=1;labelBackgroundColor=none;gradientColor=none;fontFamily=Oracle Sans;fontSize=11;fontColor=#312D2A;align=center;dashed=1;fillColor=none;verticalAlign=top;arcSize=10;strokeColor=#312D2A;strokeWidth=1;" parent="1" vertex="1">
          <mxGeometry x="449" y="110" width="310" height="350" as="geometry" />
        </mxCell>
        <mxCell id="LHHHwAimLA2ammTCAFYy-15" value="" style="rounded=1;whiteSpace=wrap;html=1;fillColor=none;strokeColor=default;fontFamily=Oracle Sans;labelBackgroundColor=none;align=right;opacity=25;labelPosition=left;verticalLabelPosition=bottom;verticalAlign=top;strokeWidth=3;" parent="1" vertex="1">
          <mxGeometry x="208.25" y="170" width="750.75" height="297" as="geometry" />
        </mxCell>
        <mxCell id="MIznTLobwmh9sBrvItSn-57" style="vsdxID=12;fillColor=none;gradientColor=none;strokeColor=none;spacingTop=-3;spacingBottom=-3;spacingLeft=-3;spacingRight=-3;points=[];labelBackgroundColor=none;rounded=0;html=1;whiteSpace=wrap;" parent="1" vertex="1">
          <mxGeometry x="588" y="46" width="36" height="30" as="geometry" />
        </mxCell>
        <mxCell id="MIznTLobwmh9sBrvItSn-58" style="vsdxID=13;fillColor=none;gradientColor=none;strokeColor=none;spacingTop=-3;spacingBottom=-3;spacingLeft=-3;spacingRight=-3;points=[];labelBackgroundColor=none;rounded=0;html=1;whiteSpace=wrap;" parent="MIznTLobwmh9sBrvItSn-57" vertex="1">
          <mxGeometry width="36" height="30.000000000000004" as="geometry" />
        </mxCell>
        <mxCell id="MIznTLobwmh9sBrvItSn-59" style="vsdxID=14;fillColor=none;gradientColor=none;strokeColor=none;spacingTop=-3;spacingBottom=-3;spacingLeft=-3;spacingRight=-3;points=[];labelBackgroundColor=none;rounded=0;html=1;whiteSpace=wrap;" parent="MIznTLobwmh9sBrvItSn-58" vertex="1">
          <mxGeometry x="6" width="23.454545454545453" height="15.357142857142858" as="geometry" />
        </mxCell>
        <mxCell id="MIznTLobwmh9sBrvItSn-60" style="vsdxID=15;fillColor=#FFFFFF;gradientColor=none;shape=stencil(jVLtDoMgDHwa/hpot/kAzr2HmTjJnBj8mL79JNUhGBP/tfTau6NlmLRl1kgGvO2MfsuvyruS4Z0BqLqURnVzxDBlmBTayJfRfZ1T3mQWaaOPHuyEkfqu3LYAnygVnPIHYZ+9IbCgMkB0W/DCb+Aj0MM6b0njOLosAPQB6Ak4IOQ+m+Nf6TaKfAEjBgY9+gM6q1b4lIG9v99pJ2BldJBTFh1c7L4M9rJCHUc+g01Wqj699Tlw51KoqqJr29bD85qf6DQx/QE=);strokeColor=none;spacingTop=-3;spacingBottom=-3;spacingLeft=-3;spacingRight=-3;points=[];labelBackgroundColor=none;rounded=0;html=1;whiteSpace=wrap;" parent="MIznTLobwmh9sBrvItSn-59" vertex="1">
          <mxGeometry x="0.5454545454545454" y="0.35714285714285715" width="22.363636363636363" height="14.642857142857144" as="geometry" />
        </mxCell>
        <mxCell id="MIznTLobwmh9sBrvItSn-61" style="vsdxID=16;fillColor=#FFFFFF;gradientColor=none;shape=stencil(lVTLcsMgDPwargxGZmjOafofmcapmbp2hjgp/H3tAuWhwePehFixu7IsAsd7f751hLP7rKfP7ltd5p7AK+FcjX2n1bxEBE4EjtdJdx96eowXd76dV+QafU3P9QXj6gRbSziz7thScfhNvDnw+0M7dOPupaAcfEVTlDDDXeYgaNt4kE8tKCk9CjAKMjEV7rQAywnkqUKsx0BhG4mpkCcGLNYTyGMvLJYTuBPQLt8JHosxuMEWiam5Lr/2oMb9o7E5R5uGOKftS+6I5W5Y7iQpCFbYfzrIcjIpqeBF+xJJPtUwtt29AKj9KpElEMcnS46/cUmkQYnZ5TXCcbcNZrF5x2teM8rNMcmQSxAXz1UNg9tb6X25qJaUW3Jw+gE=);strokeColor=none;spacingTop=-3;spacingBottom=-3;spacingLeft=-3;spacingRight=-3;points=[];labelBackgroundColor=none;rounded=0;html=1;whiteSpace=wrap;" parent="MIznTLobwmh9sBrvItSn-59" vertex="1">
          <mxGeometry width="23.454545454545453" height="15.357142857142858" as="geometry" />
        </mxCell>
        <mxCell id="MIznTLobwmh9sBrvItSn-62" style="vsdxID=17;fillColor=none;gradientColor=none;strokeColor=none;spacingTop=-3;spacingBottom=-3;spacingLeft=-3;spacingRight=-3;points=[];labelBackgroundColor=none;rounded=0;html=1;whiteSpace=wrap;" parent="MIznTLobwmh9sBrvItSn-58" vertex="1">
          <mxGeometry y="15.000000000000002" width="36" height="15.000000000000002" as="geometry" />
        </mxCell>
        <mxCell id="MIznTLobwmh9sBrvItSn-63" style="vsdxID=18;fillColor=#FFFFFF;gradientColor=none;shape=stencil(nZTRcoMgEEW/hlcGdgPKc5r+R6YxlanVDDGt/fvqIMISY6Z9Y+Wwd6+7wHB/rY+XioG49q77qL7tqa8ZvjAA29aVs/24YnhguD93rnp33a09+fhynMhp9dl9TRkGf05MJ0D8+EgKH796tLHtQxQ1Vyn7dnM+r6T0HMqAiwGCFkc5Q0DODOhDAF4GAlNitTwwXBtS4gaMgpsdgWHbDiquIbME1NAupFj8yGIxPdevBPWzEA9kVVKnvEs6yyjg0jxVRh4KjuKb0oZjmTeRCmt110KZ9VAnWYIstUwbUyRT8bSLRRGNr8C5ozKZEDqlcSZFZkfn/zEiuH4RaIkR//MN+z86LuJ9P9um8c9Fup+/D+Mn/7bg4Rc=);strokeColor=none;spacingTop=-3;spacingBottom=-3;spacingLeft=-3;spacingRight=-3;points=[];labelBackgroundColor=none;rounded=0;html=1;whiteSpace=wrap;" parent="MIznTLobwmh9sBrvItSn-62" vertex="1">
          <mxGeometry x="0.5454545454545454" y="0.35714285714285715" width="34.90909090909091" height="14.285714285714288" as="geometry" />
        </mxCell>
        <mxCell id="MIznTLobwmh9sBrvItSn-64" style="vsdxID=19;fillColor=#FFFFFF;gradientColor=none;shape=stencil(pVbZcsMgDPwav2oQ4nzu8R+dNm08TZOOk15/X2fAWOAEkvbNllcIadcLHd3s1w/vq06K/WHYva6++qfDuqPbTsp+u14N/WF86uiuo5vn3bB6GXYf26fw/v5wRB6f3nafxxW+Q541QOaYJcVPiCiwIXAf8I8fQ0jA8N1ZcC5mYJEivmWIeAPeRlAMoQehI4qWqBgiC6h4+U2/ZdvlGTGiQdYSJCh5VQKCuyqBQNC/8IuWy4mzDEyz1DKfOEpAmU+c0RKnOy5lVD7wku58s9ID+ao8iuZEBjaAvtqZAqeL1jRYzFtTjJIYkgiK8t6Uh0JLM+hMeS3AY16eLxxr6YvKa8bSVH9cXlfrz1s+T6zRicb0KxE4zMtbkdeua9AKyDVYZ7VtEtfiWyYkqns3eCnYjKbjLwY7QJeBEXwFzowwEg7kanwbAj/9fhPhohCbAztteGI7cVkTGxowtio2ZhBY5nCxSyzqJ3+a6xdqw5aFqRMexpaNlWjez89sa3GmqThJsEXz6X84bUqs89NElSY220JTNEuHrIGZ/54Al1NDJnXk+DQxUUyLEUo54rLzNbfvxkmWg1FUGl8celX08gyuwxdnfB2+uENU4dPHP4EbEyzhzavAnHD+F3ZMkblM0mHB/Jaaom248/gwXy6f+80m3E359/IyOobCRZbufgE=);strokeColor=none;spacingTop=-3;spacingBottom=-3;spacingLeft=-3;spacingRight=-3;points=[];labelBackgroundColor=none;rounded=0;html=1;whiteSpace=wrap;" parent="MIznTLobwmh9sBrvItSn-62" vertex="1">
          <mxGeometry width="36" height="15.000000000000002" as="geometry" />
        </mxCell>
        <mxCell id="MIznTLobwmh9sBrvItSn-65" value="GoldenGate Administrator" style="vsdxID=20;fillColor=none;gradientColor=none;strokeColor=none;spacingTop=-3;spacingBottom=-3;spacingLeft=-3;spacingRight=-3;points=[];labelBackgroundColor=none;rounded=0;html=1;whiteSpace=wrap;labelPosition=center;verticalLabelPosition=top;align=center;verticalAlign=bottom;" parent="MIznTLobwmh9sBrvItSn-57" vertex="1">
          <mxGeometry x="1.0909090909090908" y="0.7142857142857143" width="33.81818181818181" height="28.571428571428577" as="geometry" />
        </mxCell>
        <mxCell id="MIznTLobwmh9sBrvItSn-66" style="vsdxID=21;fillColor=#2d5967;gradientColor=none;shape=stencil(jVTRbsMgDPwaXhGYZbTPXfsf1ZouaFlS0XQLf78gkmCMiPKGnXPuzrbM1OnZXB81A/EcbP9d/5nb0DD1wQBM19TWDNOLqTNTp3tv6y/bv7pbiB9Xj/Svn/7X/2EMdZXwJSBcCKUI8SVgP182gGX4rDXXh7lAphViBJJwkBWNimJUIqNAG+FzAoD7GNNiaXNKpKQV4dykRAwLKfFJXGJJKkXs8kgc4qblDI72uuSRzLM13e7Zb+7JgVfHzUUBrlXqaC1ZDR0lf5Oki5qDTi1h1K5O4oJczrovSGGup9TPCCntTTTgcj0LeeyFy+Us3Ai0yzfC52LWJXrnWqfUaDAF13Tam2tEwdMjHp+7adtwu/B3eqymVDh06vwP);strokeColor=none;spacingTop=-3;spacingBottom=-3;spacingLeft=-3;spacingRight=-3;points=[];labelBackgroundColor=none;rounded=0;html=1;whiteSpace=wrap;" parent="MIznTLobwmh9sBrvItSn-65" vertex="1">
          <mxGeometry x="6" width="21.27272727272727" height="13.928571428571429" as="geometry" />
        </mxCell>
        <mxCell id="MIznTLobwmh9sBrvItSn-67" style="vsdxID=22;fillColor=#2d5967;gradientColor=none;shape=stencil(pVXRdoIwDP0aXnPShBb67PQ/PBMnZ048qJv7+8FasU1VcHsr6U1z701KM54dNst9lREejm3zXn3Vq+Mm45eMqN5tqrY+dquM5xnP1k1bvbXNabdy3/tlj+xXH81nf8LZ5RUloOmzCL9dBH+/Fg68rXchWIHNJ4MRbBGBCZQK8a+n1lFRbt9oKJXP8CFFYNiFzuRCOmDsQ6oEqz2KPQo9hCXkTvE80KbSY30lzkFZUTyg6IuRBeS4vtQee0XPdIEed0EKUxirwlgRCjUaChurEU7ygLjJDiNmCh8I0ZCX/0AnRKTyIEMN1qHoaNc+0dB0mELHWYButyghOzZ+rMCoUbI5AlPMlgrg4vHsXyH3jLJgpFPBsb6SKYGFVYSgxewXOWh6xqv0DzTmVVmAsCq9qDagQamfnKKmjXeYMWFoL5t/Ao8O+DXhEjDDfAxGiAuOsQOh+9F9n9irCNwtru/Mut5u3TMV7st3qQu5N43nPw==);strokeColor=none;spacingTop=-3;spacingBottom=-3;spacingLeft=-3;spacingRight=-3;points=[];labelBackgroundColor=none;rounded=0;html=1;whiteSpace=wrap;" parent="MIznTLobwmh9sBrvItSn-65" vertex="1">
          <mxGeometry y="15.000000000000002" width="33.81818181818181" height="13.571428571428571" as="geometry" />
        </mxCell>
        <mxCell id="LHHHwAimLA2ammTCAFYy-3" value="" style="shape=image;verticalLabelPosition=bottom;verticalAlign=top;imageAspect=0;aspect=fixed;image=data:image/svg+xml,PHN2ZyB4bWxucz0iaHR0cDovL3d3dy53My5vcmcvMjAwMC9zdmciIHhtbG5zOnhsaW5rPSJodHRwOi8vd3d3LnczLm9yZy8xOTk5L3hsaW5rIiB2ZXJzaW9uPSIxLjEiIGlkPSJMYXllcl8xIiB4PSIwcHgiIHk9IjBweCIgdmlld0JveD0iMCAwIDMyLjM5OTk5NzcxMTE4MTY0IDQyLjE5OTk5Njk0ODI0MjE5IiBzdHlsZT0iZW5hYmxlLWJhY2tncm91bmQ6bmV3IDAgMCAzMi4zIDQyLjI7IiB4bWw6c3BhY2U9InByZXNlcnZlIiB3aWR0aD0iMzIuMzk5OTk3NzExMTgxNjQiIGhlaWdodD0iNDIuMTk5OTk2OTQ4MjQyMTkiPiYjeGE7PGc+JiN4YTsJPGc+JiN4YTsJCTxwYXRoIHN0eWxlPSJmaWxsOiNGRkZGRkY7IiBkPSJNMTUuOCw0MS41QzgsMzguNiw0LjMsMzMuNiwyLjUsMjkuOGMtMi00LjMtMi03LjktMi04LjFWNy4zbDE1LjctNi43bDE1LjYsNi43djE0LjUmIzEwOyYjOTsmIzk7JiM5O2MwLDAuNi0wLjIsMTQuMi0xNS4xLDE5LjdsLTAuNCwwLjJMMTUuOCw0MS41eiIvPiYjeGE7CQk8cGF0aCBzdHlsZT0iZmlsbDojRkZGRkZGOyIgZD0iTTE2LjIsMS4xbDE1LjEsNi41djE0LjJjMCwwLjYtMC4yLDEzLjgtMTQuOCwxOS4ybC0wLjMsMC4xTDE2LDQxQzguMywzOC4yLDQuNywzMy4zLDMsMjkuNiYjMTA7JiM5OyYjOTsmIzk7Yy0xLjktNC4xLTItNy43LTItNy44VjcuNkwxNi4yLDEuMSBNMTYuMiwwbC0wLjQsMC4yTDAuNiw2LjdMMCw2Ljl2MC43djE0LjJjMCwwLjIsMCwzLjksMi4xLDguM2MxLjgsMy44LDUuNiw5LDEzLjYsMTEuOSYjMTA7JiM5OyYjOTsmIzk7bDAuMywwLjFsMC4zLDAuMWwwLjMtMC4xbDAuMy0wLjFjMTUuMy01LjYsMTUuNS0xOS42LDE1LjUtMjAuMlY3LjZWNi45bC0wLjYtMC4zTDE2LjYsMC4yTDE2LjIsMEwxNi4yLDB6Ii8+JiN4YTsJPC9nPiYjeGE7CTxnPiYjeGE7CQk8cGF0aCBzdHlsZT0iZmlsbDpub25lOyIgZD0iTTIuNSw4LjZ2MTMuMmMwLDAuMSwwLDMuNCwxLjgsNy4yYzIuMyw0LjksNi4zLDguNCwxMS45LDEwLjVjMTMuNC01LjEsMTMuNi0xNy4yLDEzLjYtMTcuN1Y4LjYmIzEwOyYjOTsmIzk7JiM5O0wxNi4yLDIuN0wyLjUsOC42eiBNMTYuMSwyOC4zSDd2LTEuNWg5LjFWMjguM3ogTTE2LjEsMjEuNUg3VjIwaDkuMVYyMS41eiBNMTYuMSwxNC4ySDd2LTEuNWg5LjFWMTQuMnogTTIwLjIsMTIuN2wxLjIsMS4ybDMtMyYjMTA7JiM5OyYjOTsmIzk7bDEsMWwtNCw0bC0yLjItMi4yTDIwLjIsMTIuN3ogTTI0LjgsMjIuMmwtMSwxbC0xLjUtMS41bC0xLjUsMS41bC0xLTFsMS41LTEuNWwtMS41LTEuNWwxLTFsMS41LDEuNWwxLjUtMS41bDEsMWwtMS41LDEuNSYjMTA7JiM5OyYjOTsmIzk7TDI0LjgsMjIuMnogTTIwLjIsMjYuOGwxLjIsMS4ybDMtM2wxLDFsLTQsNGwtMi4yLTIuMkwyMC4yLDI2Ljh6Ii8+JiN4YTsJCTxwYXRoIHN0eWxlPSJmaWxsOiNCQjUwMUM7IiBkPSJNMTYuMiwxLjFMMSw3LjZ2MTQuMmMwLDAuMSwwLDMuNywyLDcuOGMxLjcsMy43LDUuNCw4LjYsMTMsMTEuNGwwLjMsMC4xbDAuMy0wLjEmIzEwOyYjOTsmIzk7JiM5O2MxNC42LTUuNCwxNC44LTE4LjcsMTQuOC0xOS4yVjcuNkwxNi4yLDEuMXogTTI5LjgsMjEuOGMwLDAuNS0wLjIsMTIuNi0xMy42LDE3LjdDMTAuNiwzNy40LDYuNiwzMy45LDQuMywyOSYjMTA7JiM5OyYjOTsmIzk7Yy0xLjgtMy45LTEuOC03LjEtMS44LTcuMlY4LjZsMTMuNy01LjlsMTMuNiw1LjlWMjEuOHoiLz4mI3hhOwkJPHJlY3QgeD0iNyIgeT0iMTIuNyIgc3R5bGU9ImZpbGw6I0JCNTAxQzsiIHdpZHRoPSI5LjEiIGhlaWdodD0iMS41Ii8+JiN4YTsJCTxwb2x5Z29uIHN0eWxlPSJmaWxsOiNCQjUwMUM7IiBwb2ludHM9IjI1LjQsMTIgMjQuMywxMSAyMS40LDEzLjkgMjAuMiwxMi43IDE5LjEsMTMuOCAyMS40LDE2ICYjOTsmIzk7Ii8+JiN4YTsJCTxyZWN0IHg9IjciIHk9IjIwIiBzdHlsZT0iZmlsbDojQkI1MDFDOyIgd2lkdGg9IjkuMSIgaGVpZ2h0PSIxLjUiLz4mI3hhOwkJPHBvbHlnb24gc3R5bGU9ImZpbGw6I0JCNTAxQzsiIHBvaW50cz0iMjMuOCwxOC4xIDIyLjMsMTkuNyAyMC43LDE4LjEgMTkuNywxOS4yIDIxLjIsMjAuNyAxOS43LDIyLjIgMjAuNywyMy4zIDIyLjMsMjEuOCAmIzEwOyYjOTsmIzk7JiM5OzIzLjgsMjMuMyAyNC44LDIyLjIgMjMuMywyMC43IDI0LjgsMTkuMiAmIzk7JiM5OyIvPiYjeGE7CQk8cmVjdCB4PSI3IiB5PSIyNi44IiBzdHlsZT0iZmlsbDojQkI1MDFDOyIgd2lkdGg9IjkuMSIgaGVpZ2h0PSIxLjUiLz4mI3hhOwkJPHBvbHlnb24gc3R5bGU9ImZpbGw6I0JCNTAxQzsiIHBvaW50cz0iMjUuNCwyNi4xIDI0LjMsMjUuMSAyMS40LDI4IDIwLjIsMjYuOCAxOS4xLDI3LjkgMjEuNCwzMC4xICYjOTsmIzk7Ii8+JiN4YTsJPC9nPiYjeGE7PC9nPiYjeGE7PC9zdmc+;dashed=1;dashPattern=1 1;strokeColor=#bb511c;strokeWidth=3;fontColor=#AE562C;fontFamily=Helvetica;fontSize=12;fillColor=#FCFBFA;" parent="1" vertex="1">
          <mxGeometry x="921.75" y="129.31147540983608" width="24.02066225165563" height="31.52317880794702" as="geometry" />
        </mxCell>
        <mxCell id="_eA7hQRQa1pNzd35qElG-83" value="" style="edgeStyle=orthogonalEdgeStyle;rounded=0;orthogonalLoop=1;jettySize=auto;html=1;" parent="1" source="LHHHwAimLA2ammTCAFYy-4" target="LHHHwAimLA2ammTCAFYy-3" edge="1">
          <mxGeometry relative="1" as="geometry" />
        </mxCell>
        <mxCell id="LHHHwAimLA2ammTCAFYy-4" value="" style="shape=image;verticalLabelPosition=bottom;verticalAlign=top;imageAspect=0;aspect=fixed;image=data:image/svg+xml,PHN2ZyB4bWxucz0iaHR0cDovL3d3dy53My5vcmcvMjAwMC9zdmciIHhtbG5zOnhsaW5rPSJodHRwOi8vd3d3LnczLm9yZy8xOTk5L3hsaW5rIiB2ZXJzaW9uPSIxLjEiIGlkPSJMYXllcl8xIiB4PSIwcHgiIHk9IjBweCIgdmlld0JveD0iMCAwIDQyIDQyIiBzdHlsZT0iZW5hYmxlLWJhY2tncm91bmQ6bmV3IDAgMCA0MiA0MjsiIHhtbDpzcGFjZT0icHJlc2VydmUiIHdpZHRoPSI0MiIgaGVpZ2h0PSI0MiI+JiN4YTs8Zz4mI3hhOwk8Zz4mI3hhOwkJPHJlY3QgeD0iMC41IiB5PSIwLjUiIHN0eWxlPSJmaWxsOiNGRkZGRkY7IiB3aWR0aD0iNDEiIGhlaWdodD0iNDEiLz4mI3hhOwkJPHBhdGggc3R5bGU9ImZpbGw6I0ZGRkZGRjsiIGQ9Ik00MSwxdjQwSDFWMUg0MSBNNDIsMGgtMUgxSDB2MXY0MHYxaDFoNDBoMXYtMVYxVjBMNDIsMHoiLz4mI3hhOwk8L2c+JiN4YTsJPGc+JiN4YTsJCTxwYXRoIHN0eWxlPSJmaWxsOiNCQjUwMUM7IiBkPSJNMSwxdjQwaDQwVjFIMXogTTM5LjUsMTMuOEgxMy42VjIuNWgyNS45VjEzLjh6IE0yLjUsMjguMmg5LjZ2MTEuNEgyLjVWMjguMnogTTEyLjEsMi41djExLjRIMi41JiMxMDsmIzk7JiM5OyYjOTtWMi41SDEyLjF6IE0xMi4xLDE1LjN2MTEuNEgyLjVWMTUuM0gxMi4xeiBNMTMuNiwzOS41VjI4LjJoMjUuOXYxMS40SDEzLjZ6IE0xMy42LDI2LjdWMTUuM2gyNS45djExLjRIMTMuNnoiLz4mI3hhOwkJPHBvbHlnb24gc3R5bGU9ImZpbGw6I0JCNTAxQzsiIHBvaW50cz0iMTUsMTIuMyAxNi43LDEyLjMgMTcuNiwxMC42IDE4LjUsMTIuMyAyMC4xLDEyLjMgMTguNiw5LjYgMjAsNy4xIDE4LjQsNy4xIDE3LjYsOC43ICYjMTA7JiM5OyYjOTsmIzk7MTYuNyw3LjEgMTUuMSw3LjEgMTYuNiw5LjYgJiM5OyYjOTsiLz4mI3hhOwkJPHJlY3QgeD0iMjAuOSIgeT0iMTEuMSIgc3R5bGU9ImZpbGw6I0JCNTAxQzsiIHdpZHRoPSIxLjQiIGhlaWdodD0iMS4yIi8+JiN4YTsJCTxwb2x5Z29uIHN0eWxlPSJmaWxsOiNCQjUwMUM7IiBwb2ludHM9IjI1LDEyLjMgMjUuOSwxMC42IDI2LjgsMTIuMyAyOC40LDEyLjMgMjYuOCw5LjYgMjguMyw3LjEgMjYuOCw3LjEgMjUuOSw4LjcgMjUsNy4xICYjMTA7JiM5OyYjOTsmIzk7MjMuNCw3LjEgMjQuOSw5LjYgMjMuNCwxMi4zICYjOTsmIzk7Ii8+JiN4YTsJCTxyZWN0IHg9IjI4LjkiIHk9IjExLjEiIHN0eWxlPSJmaWxsOiNCQjUwMUM7IiB3aWR0aD0iMS40IiBoZWlnaHQ9IjEuMiIvPiYjeGE7CQk8cG9seWdvbiBzdHlsZT0iZmlsbDojQkI1MDFDOyIgcG9pbnRzPSIzMi43LDEyLjMgMzMuNiwxMC42IDM0LjYsMTIuMyAzNi4xLDEyLjMgMzQuNiw5LjYgMzYsNy4xIDM0LjUsNy4xIDMzLjYsOC43IDMyLjcsNy4xICYjMTA7JiM5OyYjOTsmIzk7MzEuMiw3LjEgMzIuNiw5LjYgMzEuMSwxMi4zICYjOTsmIzk7Ii8+JiN4YTsJCTxyZWN0IHg9IjM2LjYiIHk9IjExLjEiIHN0eWxlPSJmaWxsOiNCQjUwMUM7IiB3aWR0aD0iMS40IiBoZWlnaHQ9IjEuMiIvPiYjeGE7CQk8cG9seWdvbiBzdHlsZT0iZmlsbDojQkI1MDFDOyIgcG9pbnRzPSIyMCwyMC4xIDE4LjQsMjAuMSAxNy42LDIxLjcgMTYuNywyMC4xIDE1LjEsMjAuMSAxNi42LDIyLjYgMTUsMjUuMyAxNi43LDI1LjMgMTcuNiwyMy42ICYjMTA7JiM5OyYjOTsmIzk7MTguNSwyNS4zIDIwLjEsMjUuMyAxOC42LDIyLjYgJiM5OyYjOTsiLz4mI3hhOwkJPHJlY3QgeD0iMjAuOSIgeT0iMjQiIHN0eWxlPSJmaWxsOiNCQjUwMUM7IiB3aWR0aD0iMS40IiBoZWlnaHQ9IjEuMiIvPiYjeGE7CQk8cG9seWdvbiBzdHlsZT0iZmlsbDojQkI1MDFDOyIgcG9pbnRzPSIyOC4zLDIwLjEgMjYuOCwyMC4xIDI1LjksMjEuNyAyNSwyMC4xIDIzLjQsMjAuMSAyNC45LDIyLjYgMjMuNCwyNS4zIDI1LDI1LjMgMjUuOSwyMy42ICYjMTA7JiM5OyYjOTsmIzk7MjYuOCwyNS4zIDI4LjQsMjUuMyAyNi44LDIyLjYgJiM5OyYjOTsiLz4mI3hhOwkJPHJlY3QgeD0iMjguOSIgeT0iMjQiIHN0eWxlPSJmaWxsOiNCQjUwMUM7IiB3aWR0aD0iMS40IiBoZWlnaHQ9IjEuMiIvPiYjeGE7CQk8cG9seWdvbiBzdHlsZT0iZmlsbDojQkI1MDFDOyIgcG9pbnRzPSIzNiwyMC4xIDM0LjUsMjAuMSAzMy42LDIxLjcgMzIuNywyMC4xIDMxLjIsMjAuMSAzMi42LDIyLjYgMzEuMSwyNS4zIDMyLjcsMjUuMyAmIzEwOyYjOTsmIzk7JiM5OzMzLjYsMjMuNiAzNC42LDI1LjMgMzYuMSwyNS4zIDM0LjYsMjIuNiAmIzk7JiM5OyIvPiYjeGE7CQk8cmVjdCB4PSIzNi42IiB5PSIyNCIgc3R5bGU9ImZpbGw6I0JCNTAxQzsiIHdpZHRoPSIxLjQiIGhlaWdodD0iMS4yIi8+JiN4YTsJCTxwb2x5Z29uIHN0eWxlPSJmaWxsOiNCQjUwMUM7IiBwb2ludHM9IjIwLDMyLjkgMTguNCwzMi45IDE3LjYsMzQuNCAxNi43LDMyLjkgMTUuMSwzMi45IDE2LjYsMzUuMyAxNSwzOCAxNi43LDM4IDE3LjYsMzYuMyAmIzEwOyYjOTsmIzk7JiM5OzE4LjUsMzggMjAuMSwzOCAxOC42LDM1LjQgJiM5OyYjOTsiLz4mI3hhOwkJPHJlY3QgeD0iMjAuOSIgeT0iMzYuOCIgc3R5bGU9ImZpbGw6I0JCNTAxQzsiIHdpZHRoPSIxLjQiIGhlaWdodD0iMS4yIi8+JiN4YTsJCTxwb2x5Z29uIHN0eWxlPSJmaWxsOiNCQjUwMUM7IiBwb2ludHM9IjI4LjMsMzIuOSAyNi44LDMyLjkgMjUuOSwzNC40IDI1LDMyLjkgMjMuNCwzMi45IDI0LjksMzUuMyAyMy40LDM4IDI1LDM4IDI1LjksMzYuMyAmIzEwOyYjOTsmIzk7JiM5OzI2LjgsMzggMjguNCwzOCAyNi44LDM1LjQgJiM5OyYjOTsiLz4mI3hhOwkJPHJlY3QgeD0iMjguOSIgeT0iMzYuOCIgc3R5bGU9ImZpbGw6I0JCNTAxQzsiIHdpZHRoPSIxLjQiIGhlaWdodD0iMS4yIi8+JiN4YTsJCTxwb2x5Z29uIHN0eWxlPSJmaWxsOiNCQjUwMUM7IiBwb2ludHM9IjM2LDMyLjkgMzQuNSwzMi45IDMzLjYsMzQuNCAzMi43LDMyLjkgMzEuMiwzMi45IDMyLjYsMzUuMyAzMS4xLDM4IDMyLjcsMzggMzMuNiwzNi4zICYjMTA7JiM5OyYjOTsmIzk7MzQuNiwzOCAzNi4xLDM4IDM0LjYsMzUuNCAmIzk7JiM5OyIvPiYjeGE7CQk8cmVjdCB4PSIzNi42IiB5PSIzNi44IiBzdHlsZT0iZmlsbDojQkI1MDFDOyIgd2lkdGg9IjEuNCIgaGVpZ2h0PSIxLjIiLz4mI3hhOwk8L2c+JiN4YTs8L2c+JiN4YTs8L3N2Zz4=;fontColor=#312D2A;strokeColor=#AE562C;fontFamily=Helvetica;fontSize=12;fillColor=#FCFBFA;" parent="1" vertex="1">
          <mxGeometry x="972.75" y="129.31147540983608" width="31.52317880794702" height="31.52317880794702" as="geometry" />
        </mxCell>
        <mxCell id="MIznTLobwmh9sBrvItSn-149" value="" style="edgeStyle=orthogonalEdgeStyle;rounded=0;orthogonalLoop=1;jettySize=auto;html=1;entryX=-0.063;entryY=0.562;entryDx=0;entryDy=0;entryPerimeter=0;flowAnimation=1;exitX=0.888;exitY=-0.25;exitDx=0;exitDy=0;exitPerimeter=0;" parent="1" edge="1">
          <mxGeometry relative="1" as="geometry">
            <mxPoint x="168.99999999999994" y="362" as="sourcePoint" />
            <mxPoint x="281.66800000000006" y="362.02600000000007" as="targetPoint" />
          </mxGeometry>
        </mxCell>
        <mxCell id="_eA7hQRQa1pNzd35qElG-82" value="" style="group;strokeColor=none;labelPosition=left;verticalLabelPosition=middle;align=right;verticalAlign=middle;" parent="1" vertex="1" connectable="0">
          <mxGeometry x="1004" y="188" width="108" height="264" as="geometry" />
        </mxCell>
        <mxCell id="MIznTLobwmh9sBrvItSn-118" value="&lt;b&gt;&lt;font color=&quot;#ffffff&quot;&gt;6&lt;/font&gt;&lt;/b&gt;" style="rounded=1;whiteSpace=wrap;html=1;fillColor=#0050ef;strokeColor=#001DBC;fontFamily=Oracle Sans;labelBackgroundColor=none;align=center;arcSize=50;fontColor=#ffffff;" parent="_eA7hQRQa1pNzd35qElG-82" vertex="1">
          <mxGeometry x="30.4" y="52.02" width="40" height="40" as="geometry" />
        </mxCell>
        <mxCell id="_eA7hQRQa1pNzd35qElG-81" value="" style="group" parent="_eA7hQRQa1pNzd35qElG-82" vertex="1" connectable="0">
          <mxGeometry width="108" height="264" as="geometry" />
        </mxCell>
        <mxCell id="LHHHwAimLA2ammTCAFYy-14" value="10.2.1.31" style="text;html=1;strokeColor=#3700CC;fillColor=#6a00ff;align=center;verticalAlign=middle;whiteSpace=wrap;rounded=0;fontColor=#ffffff;" parent="_eA7hQRQa1pNzd35qElG-81" vertex="1">
          <mxGeometry x="22.557692307692307" width="58.84615384615385" height="39.014778325123146" as="geometry" />
        </mxCell>
        <mxCell id="Q12kE5mwNm5ZxQMTA82g-16" style="vsdxID=58;fillColor=none;gradientColor=none;strokeColor=none;spacingTop=-3;spacingBottom=-3;spacingLeft=-3;spacingRight=-3;points=[];labelBackgroundColor=none;rounded=0;html=1;whiteSpace=wrap;" vertex="1" parent="_eA7hQRQa1pNzd35qElG-81">
          <mxGeometry x="16" y="114" width="79" height="84" as="geometry" />
        </mxCell>
        <mxCell id="Q12kE5mwNm5ZxQMTA82g-17" style="vsdxID=59;fillColor=#FFFFFF;gradientColor=none;shape=stencil(lVnLchw3DPyavaL4fpwd5z9csRypokguWU7svzflHYJgY4azqtJBWgHbIAk0muDFf/h2/+nr3cWZb68vz//c/f/w+fX+4v+4OPfwdH/38vDafrv4jxf/4cvzy93fL8/fnz5f//766c3y7bd/n/97+4YfVz9bqbm8/Zif2yfG/P77z6v5X99frvZ2+3ciu9nb2cH8cNsHjmrdbLaPaqWcNivf3ch3K89WLq/AKyUAby7GzfCFilfobOS7kbcAXiiXFXim6AG8UAwzeCZjAVwYbVCJAq68kKsr8Ei2AnimYmfwQDYBeCYPK/fkC4CnvmNHZ04mAHjkk+jgBpA91RnYAKqlGiXq48OTSMxuvW2rpZBWIZo5vlQpQnxiEdsnqe3g2d6kRHF5MLxMhk7kISkCBQfQXEUdOlANAB2pxBV0pBABWx9LpJoBO5LPmJA5KnDrVuCFDIIHSn4Gr+QjgAeuekEEFWqxWdnl0i0nz4AfCddP3JNDeE8JeShwHTE8W+2mpvTYDo+XfkMunxmTS7P9ae534uK98Lx/Ig8scLJT6d+I28FWOD6vo5PwXGkd3YlNdrxlEarPOQrAiztH0RZXl6xsW5UAOVkunIFfKZQZ3/K2Mn5bbEJuPOlIsnS4Mhwk4k4daOqxlKApdJsj5hGnZfFbHdtkf4YsyuRGZH3mGlnYLJBzfh9yJJPOkBsBJ0RWXTAT0m2n7QPoVobQ/kUCd6LX7d/MuFEcyNQXD1ATNDaQWkmkX18+BWgt2VCCA+b2uEtBWQg4LJYjcSSSyKLPUEfiwI/LMOu0OMcXBLPAj5wIK/whcQd8Xu1XouRwv2YHFe/IP4suI9xMVYfbGx+HWzgPRbwrbdU86txj3ph/GW7T7xivTv8iete4CySo+iKU2Gg8dalAm09xgO/JZsBvYACv+33RIs926XCELoR1Rxc6xrFVwh4jJFGHF424w6PWmk+rCJ3HDn7ZlYpQfcdNsYh7SA9Y6dIiKM2z0ayJId7ceybHe3bBaC4ZZLQVnN3jFZc2x1aYXeL61+M9u1wV0Z8t+2ToK0XcPoescCClqyEL+DPDz5tVxS2YFY8LS4dq0WEtkdpNK2DrEjTi2KpCK3GixPryWtUDNyuJCGrZzPLXI5XD+iLFMjtgtoODalb+jE2ky5A0yCZVayepq7228mh1jJ/hQLzmE7nVA78UhY8H4td8Ig+aHdKyW1UhTocSQz6RVkKLgciX2ejZakUozcPOhNLUm1kPikSVWPZBQpFWjq1wg7V68nz5vbGmPc+AjuO1mBG7DFQwIzQDSZ7ybLXSe5L/NiG7FKXN3kA6BGYtSdc4iGtWGfth2xrI34CEBtGKNrA52D7EvL2/BC23ipjwObZCuSXbWw8Y1JPqhwbiZel0FK/ozJZ9EqZDIofxasaWWsCzVVilQ+St+ckOaSm/i55PBjWPaQKpYryaUIu+hId1h2ke4WQeo+JVY7sgqNWxUYKhRWBqlXqyf8TxrjuWkKlsv+bf5mFgxBN29JwQyT1erecsxQThdqNj8Q3cJL7WKZsVNAr/gLdu2Ck9DDvZWjELY4T1ALe5RKeWFzF39dUmsKodKzRqeWvhu3Ovkl/rtNUxeBYzro6PfVLdA+e+GrhH3mZf1vdMeeC3OQiu4tq273OACdJs79Vz13vt6xl3S5fe3bW4a93dwmWxqoLxYrbZ1QiekIIPBExRx6heDOdwMr7zTLUzkhwvaUfw+q6x80TntfCqWsj4nbnV6TxWSKSBj29BOwNZadUvNlqajHfMI3z9KCPfPsfsGwcVBgaF8mHWzzb716yzh9z2y3gE/vLw+Hh9Q5b/x0fj9tH1wdl//AU=);strokeColor=none;spacingTop=-3;spacingBottom=-3;spacingLeft=-3;spacingRight=-3;points=[];labelBackgroundColor=none;rounded=0;html=1;whiteSpace=wrap;" vertex="1" parent="Q12kE5mwNm5ZxQMTA82g-16">
          <mxGeometry x="1" y="1" width="77" height="82" as="geometry" />
        </mxCell>
        <mxCell id="Q12kE5mwNm5ZxQMTA82g-18" style="vsdxID=60;fillColor=#FFFFFF;gradientColor=none;shape=stencil(pVzbltw2DvyaeeURCYoin3P5j5yNs56zXjtn4mS9f7/sbYmEqiBS47yN20AXRRG3Atgv8sMfH3/5/cNLWP74+vblXx/+8/rr148v8uNLCK+fP354e/1a/3qRn17kh9++vH3459uXPz//+vz37788JB9//fvLX49v+PbUW8Ut8tAKy3+fnwQn+f8f/PyU/8efb08Fv2sUl9ddw4PK8i08P0mrK34X2j9a3bZ/8k12oeJi3IX2j7x3vmj0T6+f1Wq34B7/p1brxa3baLlVZZPzcrtOW2+VKvm8Xi21r24TFzMseIofXYhz/Oi2dY6/utUTfvZD/LrvifCzB3wlFVjqwE9ueTd+6mse4G9uCYAf3bIC/ubWAPhN6gp/c1sGfPXNgaUG+Lkby2384hZ8//VIFMAvbsX3r6R2sLy0JSn8fUsu8KtOxv2P7WUf+Nk7AXv18PA5uGUD8PWwhyvw4FbcfOUHDvDqg3Dz0+EHOn61hwL4yUW59hZVIx9b3xTS0FpzdIJvKzl4WVUo48vaugs81rs6tJXN5TRY7upkPS83u6FtVY2Mtp3Jt+TkBG270NmuUhlfb5mdrfrU2xk/LAC+uSRn8LA0L9rA686AY61SZWhYWsejjsbPmfALPnzdaDDsgJGI8LPLBfA5EObiEpyVwI61LM6DYdd4uccN87CU5LZzJBQ/NIYSm0UdCui6QWHpIXxXwFcyVZjtoVbx+BhtD7VUaFKFtrCAvUlwPr4Xnl+hBR9cCnfwz/Z+B1+cJ/gE5iucGmgpuXi/BnwC9yEcGi18Dk1VClI5mUUmpdLRMTBpyzjQm2WM7EdmsUnr+KZDsakcB03BYyKrhDr6xHspv3Cgq5h37T2khTANL4h/BK1reAHnJdthLRr++KjBKylhKWlS4yLCcJ5Vp9lUYKkDPzvc/OwSwmcnMoFPePaMwJmbL1DwaHlaquOPLU/HmwO/kOUZsUtaSNaxM0HsqlLbKNFQYfv5SVyGq63vPJxXG5dugz3NaAlEaFIU6VN7y8dq4zis6PRlV5iG5mpJ4FcjhxWdPYUmRca1ugR+PXo3qFE5jYuzOKRSRd9UKJPgrDNyGNIJrDSpYdpZXf45MYgySTtVXu2biuD2qnw9NCmyHpX7S5OaWE99ICF8LCm11IHPJZ2uUASlrvEF7YFLulpS5UD4ZL2+bYnCn6Tdqljz/M3XJV1U8bXjL4nwt2HaYpSUEV3X4nDvceO5lo2Y8hq1dEZc8kNGKR1X8kNaSlDqGj4Uwo+Z8JdI+JgybDWQCOFvYyolu8DPjxmLJik6PlY8mvAQlLqmUhr94vmbO5USMA5wNa8JH0Gpayppg3Izcs6kCacBfiIqjfCBe1QazQ/4QYmmTustee0wu6MdVGiGAh7h2YrG8qLSlO9UKLNYLZwKlUCZoKgU5KgMuIwWFXqPymB4ooXpnsIWJcxPFT5Rwp68ID9F+OzJu07HVz6642OiUqvzNRH+mO4S5YQ7foHnD8rvBZY6CIvq0SDzKNsk8QmKUPZNBzOfIC6ARysbZT6hpqQEn4aB1Nf1bQSPZ8/HXisFXmTvXCB/1jfpCt9Tnqpf7IG/9Az0+vWrrszd01d64tfRqQSlLM44+5mSuDINJp1N7paHsTTxwefif3UQSMssgZF+Ug9szh9DD9AHdqC3HiiKl3E1oxT2fZjxnEpj/yQVSvbUEx1bl3tGfrVRaWafKyV6id0Dv6TExzORc0yz48knJBnRvqfvqvWIuSYdzzTLtdg2Eqea1TJlRfSpW0iz4+mlMwq+6eArr24JDDMxLdcbHho+DNIcrbHnRQJsCsR8bCBP5cM5CYlIXLO5bsgVMVG4UbUXMiUIdc+Qqgqzk+BXImkDw+tQ0sMWWmCVihCkgp/EaJ9bQnDdkqrf0toBvX+LETq5ABkC9dvJ+3DN4Rfy00Llnl/O2MJ1th+STjrp8vCdigYvE1hFbtyDNRqACBsdttMYFfd5DKooritQ5gILWbswEzvpID4YJCwpydPErY9QtOCIkVAPkggImX5gPnkym1QZ7mmt5gqED9jSB42YZo+lC48Wyibuit8mU+uyUlLHOSWfoxmvrjQ8fWs/vxJvQKPhTLGVOV6Dcy1lgCuC7SZ4IGrIqCOYmWgd+e4kIYueUfm+tHSj2a6nNOUxz4BOg0khFdLvdqGrCvaRQqDT9pi4AU8ZKDz4wE342XQTJ4jGWfc97PRTgKF5YT5mPAtWyz2g2YG2BvGzLEZ9zNK3/B55vb/fqZBmTQL9ejzq9L0ORJQk9mq68JQmNS6WC3qWFLrxtGJRIFAkToI2miNKs2OWiCZJXLCps9gTYuT7uQbCdJgCCToWIxePRJAkptpVGtuqkBHwQoN7RvG1ACwnBcsZs9abo4N5NpOCwrTG8wILt60WGiws3AWJnTK/S16sd5grgz9g4mijYFNwUItLU2xAlYxzGwZxwiV5oW5dmfWua/qNnBG3rqsQ9jYLt66rG8BmbJnGO1VCHfjlTjnkF8iSmbA7RK5ivBq/9filR1hLFGz08g7owgeuTPwAZxiFW/aahA0s1aliAfc73XdNL3vU6fhqSPP6vRv5VZe6ziyJLaQzrwn4a6pUeAZgzlT3EZsDnYvw2CeKrim7SJNKE8pOKeyWjbwydVnW9T0KucfImwpqcuF7FcbjhYYCxuipwqTbpaqQ/ZPxAKPuOveNHj10JyWa/Ij5ou7YXH6Jf08hzjoUVsuZOxQbN2iiEeeMlvcNfKQHjDEt1UXq8DQPzf2piFXd7I3PFFSj7ELhziwFV47WLIXxhMYsx4xh11MiirkAeOWvAwkNJlnQq8J2qQmZCwVj9AdZucgdK2OgP6q2Zh/9EaEFj7O+zByDMQKgR5quRyCsUalx1ZY7u3JXPq+oMLkxwaNg3HfITB7ReI3yx1dzPTRn58HapoNIzHRZg1DGYKAxiMVE23wQjO8fRL5bpaUGg2hKSlDqGj8J4dMgnJpw6Pg8xYpTpBErcnhfaoa1Kbx76jYyhWBM/VpzkTx0TI0cWLAaZm6Z1XRKGte70HiGMSKux1N7kofGPiw2jOl0LnOs2XiuNqzZ/NnVGutqQCHTKkxhC3e9tJQ0qfHR1jp9UgePdpWKeDXCKHKVVMcft1/7gVPz4Ug3aaneJ8GwXKUKeBaZhWWt02l93P1ARa4xna+legE0vKqjNJrCiAot4srZFcj4qpkacrqJkPsIzq4wnk1rhfkhPq4GjO9fhpNm+gU9PwnT+yZ8pgJHC8OkQqAugXHbJ0zqne7KdvnxA7K3DMtkPNa41OHZZxmXKjyzhkY88jOfYdzI80yLcTS2Lk8atxHTcOpecQpNfpLL8i0Bb+SSnGsZnRvjsud4UpJTQz+bfs7MwFg3eY2muDF2zmP305vMxti7cZNdF0G9+4QhQZd20qTGyV4v51VHBKdAjHvUfEliy0TF+1nupAe2Pero4WucGvNMQelB7o4/jkjG8LX3GJGsa/R0U9IYffbDGy2b4lRteWNSG+c6jcUqoevFqh8muFgs/+LBFFn9JkNHxsBt/doDDuvARglGsZmC+tmJewo1lTq/ilkimdTIUZunQqNNPGIKZL0x3rFcL3Myq1H/6L9H8tvrp0/PnzPR/4+/X1I/ev72ifz0Pw==);strokeColor=none;spacingTop=-3;spacingBottom=-3;spacingLeft=-3;spacingRight=-3;points=[];labelBackgroundColor=none;rounded=0;html=1;whiteSpace=wrap;" vertex="1" parent="Q12kE5mwNm5ZxQMTA82g-16">
          <mxGeometry width="79" height="84" as="geometry" />
        </mxCell>
        <mxCell id="Q12kE5mwNm5ZxQMTA82g-19" style="vsdxID=61;fillColor=#2d5967;gradientColor=none;shape=stencil(nZbbUhsxDIafJrcaW/LxmtL3YEpoMk0JE0JL375KF9vr39nN0LvFkfh0ljZy97p7eNlu2LyeT8cf29/7x/NuI182zPvn3fa0P+vXRu43cvd0PG2/n45vz4/T3y8PF8nL18/jr8t/eJ/0ciAbL1ps/kwvLJTcv5evk8K3t9OkYauK9x8qtupwmJ7eeZTiUUqqVJYPKUGpD/5h/zw3OJIwGtwrDAZHirftTWQS2MsUItg7kxKUum5vIgcBRoXB3kQJAzwzhUepFYMzMQaYyeQVgzMFRoPXFKwx6+KDf55i7v1LZF3vXgrEtnfP9K5FTyn0rpk1bIiUuMeanhkMWQipr+ErWO/I2R5rhbJfQ3smBx7bUK0veJcpgcs2EXSMCxQd4LUoeQ3vmLIFfCQHEZdU22SRLhoP39PZlBZeoGtyBctZpw44ry0pgFeYAz7bMpwq38Ub5aY6DvjeDnybybue78fkz7JW+F5HWFrjR+LU44OrrIofKi9mMtDMhgSGj7aSdJXXt2bfmKVRr3dxwDn1SfFsi59XFTTjsi4/xi2EPm4akuAhblwneQlcyBQhcJpcC2lrOVgqm1lBlrxZMsBXvwyOjLFsLjUAVZtuLK0rXeN0PDH0LJOFraVPHrs2tl1cLKrVtTQzTFsctnoh0vOdLtLc87kNqNnMEgh/k1oamTpWwk2+xtpD+st8qvM6tX3WyiGuOh/ULVgVWmhlab23QhPI/WyPLW+pKrRATzKM63E/ZkOQ+LaF2vb3ZTPMz6sb551OXYh7VWn0JsSjUDvu6m35CTreBtfxEcvu//hw+9y+hvWj3dJP+8NhOsXnv+PtrU/T3S73fwE=);strokeColor=none;spacingTop=-3;spacingBottom=-3;spacingLeft=-3;spacingRight=-3;points=[];labelBackgroundColor=none;rounded=0;html=1;whiteSpace=wrap;" vertex="1" parent="Q12kE5mwNm5ZxQMTA82g-16">
          <mxGeometry x="2" y="2" width="52" height="34" as="geometry" />
        </mxCell>
        <mxCell id="Q12kE5mwNm5ZxQMTA82g-20" style="vsdxID=62;fillColor=#2d5967;gradientColor=none;shape=stencil(nVTLcoMwDPwarhpLAmOd0/Q/Mg0pTClkCGnTv6+pbYKZwWl7s9erx0qyMt5d6sO5ykhdxqF/qz6b41hn/JQRNV1dDc1oTxnvM96d+qF6Hfprd3T382FiTqf3/mPycHN2pEDMZEXqyyGo1M/92dHbpkvSyQAu+S/XwflH954zcOEtPIQaRBx0IwdpDTl7locQodSexQ4yAgV6Fs8sxO18pYA43QKIt+lB+1wL4KQ4LcHdLE7FwthArmNhJaDEugSUxLKIwJhEnghGokxJQ4K/CPAr/3EVbMZ5kZiJVYnZVq1M1RjyOBlWUNJfDETCTG30Bfk+prhqbeiMncIycGjNCW1YjDvHnI3I1oIeRV56/X/kRx9zRbeH+w44NW3rVsjyfb0zLOT2De+/AQ==);strokeColor=none;spacingTop=-3;spacingBottom=-3;spacingLeft=-3;spacingRight=-3;points=[];labelBackgroundColor=none;rounded=0;html=1;whiteSpace=wrap;" vertex="1" parent="Q12kE5mwNm5ZxQMTA82g-16">
          <mxGeometry x="10" y="21" width="28" height="30" as="geometry" />
        </mxCell>
        <mxCell id="Q12kE5mwNm5ZxQMTA82g-21" style="vsdxID=63;fillColor=#2d5967;gradientColor=none;shape=stencil(pVdbcqMwEDwNv1Oah17fSfYeqY2zpuLYKeLsJrePWEABYYRl/kB00615lVTx3fv+8W1XkXo/N6eX3b/66byv+L4iqo/7XVOfw1PFDxXfPZ+a3Z/m9HF86t7fHltk+/R6+tv+4bPjOQssLYvUV7ei/r/96sC/P5oOjT3cgKcejmO8+qSI0D2ApgCOAOV6BF+QPNTHsT8NRhf400Cc9zdCLBgUcJgxONMUYJ/XZPA2r8mgpURzhF/UjIhFTaQSTQKblyQgl5dEcOb63I/Q/YoH45YJVoPmbQQMYdPLBEFgvY3gFTAtE1iDom2EFUvqdnDQkkk40xohwKF1MKXEOhGgwXC/wgaQp6VigIfMcARZu+x0ROi98NDpF/HkgOw2gmSKF8Pgwgw6jRxasMlkDbVDfho69CA4jZ0QaDeNHSEkA0wYnM3Jt3tPMic6zsFBPqROkkEmwbck8jouRf18H4bQGj8NVinBaEBTQrBhzEsJYaUP5wRUmfrwDMZeDx8+3gT2aduuWQlb9ZlWcw7QFRHyp4wi8PT8YtwwFGIhCOhMmsQMab+ZEGpTZebE3FIxYcXSFYS1KK3Mugt7yGTsQoiK0MVmthOm8ZlbCtMBfYlCMWHlaDK3VExYsXQFITz8XBye68Ohu3eMv6cXjbDUXVL44Rs=);strokeColor=none;spacingTop=-3;spacingBottom=-3;spacingLeft=-3;spacingRight=-3;points=[];labelBackgroundColor=none;rounded=0;html=1;whiteSpace=wrap;" vertex="1" parent="Q12kE5mwNm5ZxQMTA82g-16">
          <mxGeometry x="19" y="41" width="47" height="31" as="geometry" />
        </mxCell>
        <mxCell id="Q12kE5mwNm5ZxQMTA82g-22" style="vsdxID=64;fillColor=#2d5967;gradientColor=none;shape=stencil(pZLdDoMgDIWfhlsCZRnu2rn3MBEHGQODup+3H6RZpu5Xd9dDv9M25BCRt7psFAHWdsEf1NlUnSZiSwCM0yqYLlZEFETktQ9qH3zvKtRNmchUHf0pTbigjzOWPMCuqFHtELXGDdCF4H3DS3S6fha8FB3/QMbpKhvBUlDgH2ZLCn8aYE3l5r3h+aTZhi8n/WCIxSM0tbEWMzfsT0MWnzCgorgB);strokeColor=none;spacingTop=-3;spacingBottom=-3;spacingLeft=-3;spacingRight=-3;points=[];labelBackgroundColor=none;rounded=0;html=1;whiteSpace=wrap;" vertex="1" parent="Q12kE5mwNm5ZxQMTA82g-16">
          <mxGeometry x="19" y="31" width="16" height="11" as="geometry" />
        </mxCell>
        <mxCell id="Q12kE5mwNm5ZxQMTA82g-23" style="vsdxID=65;fillColor=#2d5967;gradientColor=none;shape=stencil(nZPBbsMgEES/husKdsHgc5r8R5Q4NaprR47TJn9fW6xjsFLU9AbDGzSMWEGbS70/VwLlZei7j+rbH4da0JtA9G1d9X4YV4K2gjanrq/e++7aHsP+vJ/IafXZfU033IJPTg6U97BTMux3AW18G6Hz4b9gZ0CbGD9c+5BDBaBUQAVbWHIKHAbphiwRlIYplqwD5ZgilgowmqlZQrCUiWsByyTwywZcvzA1aAlWv2KgEoxKDQSFznUYW9Ta8+gwpljCqGkujBygTTtcqOeBNRibdjhf8VteAqI076OTJW4EsfQkLYJKw2b+Zvoz/wxm/3sWHRfL/J1804Txjc/X8zpKYdZp+wM=);strokeColor=none;spacingTop=-3;spacingBottom=-3;spacingLeft=-3;spacingRight=-3;points=[];labelBackgroundColor=none;rounded=0;html=1;whiteSpace=wrap;" vertex="1" parent="Q12kE5mwNm5ZxQMTA82g-16">
          <mxGeometry x="38" y="31" width="16" height="11" as="geometry" />
        </mxCell>
        <mxCell id="Q12kE5mwNm5ZxQMTA82g-24" style="vsdxID=66;fillColor=#2d5967;gradientColor=none;shape=stencil(lZPJDoMgEIafhusEGEU8W/seJmIltWrUbm9fKDGVJrVwm+X7yTALwWJuq1ERTudlGs7qruulJXggnOu+VZNejEWwJFg0w6RO03Dta+ePlSWtdRlu9oWH0wkEJqyK06eL0Ld3dHCn+w2MAmQSClMPZHQH5QKQhePIIM08PJMgs98CkUDOYgQZBSbDC1qTQXBUx//A/ixTun5qhTlCnuy8zsAfpwnkO21JKGAaI4iuKEBgjM8yN7rr3C1s89/Lb0LucLB8AQ==);strokeColor=none;spacingTop=-3;spacingBottom=-3;spacingLeft=-3;spacingRight=-3;points=[];labelBackgroundColor=none;rounded=0;html=1;whiteSpace=wrap;" vertex="1" parent="Q12kE5mwNm5ZxQMTA82g-16">
          <mxGeometry x="53" y="17" width="11" height="14" as="geometry" />
        </mxCell>
        <mxCell id="Q12kE5mwNm5ZxQMTA82g-25" style="vsdxID=67;fillColor=#2d5967;gradientColor=none;shape=stencil(lVRdc4MgEPw1vN7AHfLxnCb/I9OY6tRqhpjW/vtqwQo6OM0brLu3x8LJ6HCvzreSIb/3rnsvv+pLXzF6YYh1W5Wu7scVoyOjw7Vz5ZvrHu3F72/niTmtPrrPqcLgdUaC0pMK+bdHiIOkX+TkBU3dRgJLQJQIpIRC5wWC87Q+wQ5b23V5nicXBpR6orgqnuxdy/1oXh/OhykCHwM/7AsL2nhowACpJfAAmblpPlAwMguJVqSMNUZnE5u6wUlElxcgLWA+5eyuF1JACgJU+ZjSCx5TRtxr1azaVGBV2ifiJqS/Z7ST0czJ+CraRGQNWJF6m21GyoA0qXs8N5R5HWlI/5i0cbHM6bVuGj/m8ff1XI+Q/yfQ8Qc=);strokeColor=none;spacingTop=-3;spacingBottom=-3;spacingLeft=-3;spacingRight=-3;points=[];labelBackgroundColor=none;rounded=0;html=1;whiteSpace=wrap;" vertex="1" parent="Q12kE5mwNm5ZxQMTA82g-16">
          <mxGeometry x="46" y="20" width="30" height="18" as="geometry" />
        </mxCell>
        <mxCell id="Q12kE5mwNm5ZxQMTA82g-26" style="vsdxID=68;fillColor=#2d5967;gradientColor=none;shape=stencil(lZTdcoMgEIWfhtsdYPkJ12nyHpnGVKZWM8a06dsXC0ZWqx3vYDm733FhZbi/ladrwSS/dW3zXnz5c1cyfGFS+rosWt+FFcMDw/2laYu3trnX57i/nnplv/poPvsKj5jH+wzJv+POaHD4GzlGceXrTCw5GEsSBOfLciUAcUt9VNP6WoHTK4b0jOBAEsLrvY3fK1KKHVNSCB1oE0MPmazL0UkKicDaJRUmWNYPnKoW+FZReF42kXaGkoNlZSnZSYpVBsRKn4ZrGrqEGoRZc/msP7hEEI66tFkjJXlMz/Zk94+5YgGK86vhlCnmTORgJ80RhkItH7L+bI7Z+Og2jcw/4rAYJ/PiqyoOdn4+neQQin8BPPwA);strokeColor=none;spacingTop=-3;spacingBottom=-3;spacingLeft=-3;spacingRight=-3;points=[];labelBackgroundColor=none;rounded=0;html=1;whiteSpace=wrap;" vertex="1" parent="Q12kE5mwNm5ZxQMTA82g-16">
          <mxGeometry x="40" y="11" width="30" height="18" as="geometry" />
        </mxCell>
        <mxCell id="Q12kE5mwNm5ZxQMTA82g-27" style="vsdxID=69;fillColor=#2d5967;gradientColor=none;shape=stencil(lVrRctw2DPyae+WIpCiKz2n6H5nGqT1144zjtMnfF9czRdwuSN69OQookAB2saDuFD98f/z07eEUlu9vry9/Pfz79Pnt8RR/O4Xw9PXx4fXpTf46xY+n+OHLy+vDn68vP75+vvz726ez5fmvv1/+Ob/h52WdX5bzmrD8ev93cfv2/5PfL+bPT1/H5j5p8z9+vF5e73FBfbC7db08+hnQJrBNRJv6ILsc7/Oc3RKuPZfiQgHfyW3XrsvuUgbnq9vLyLle4481fgf3uQa7uVdWka2q/+jWfeh/c2sE/97FBP5XOn5xJYL74Px67V4O54feF5fDtXc5A/iGnEtyyrXjneO+uTg89q5C5WHJ4VmM3mv2cC45z+BcBTCCUc95pJxLfDdwDseWNVDpmT0Ht68jzzlRvI8lh+fMyZbMQrJzpJgfRh3nG5eapN9fO08ql++PlmvPCfC9jHyunn1eO4yRHbZd1aNZoR6fNig0dEPt+bScZ6+SFmu5lG3k3KsUeqrc6jwQqSgMVOeeTj7Dlgc6VYCttU2nbqiPxwOgshmXBEK0QWTYP4jDsXmMu9x1j8ulxqqzRQiM8MAGkeGUCAkFBD7F5syjd+VEuBo6nFENRfYXTrNalN4Qx/01ExJKcgtCgTustqqoa9g8/MuWhqRnIPHc9YBvg9HilFWfCKTr+iEYI1emkhPV/6paIcqd6n1VMQK50/GduM+1t1bQpxZTljtH0QWuOnn5sNHlBMc+QtWajQpoYKvqnDt8S07PeSEONNKObbZVU+vwTIHTmtu50TacNOdGzQdXoPkYuqrIlsaykjEnKmkDNiQ9va9uJqf3pb75Vt1/55hwbY5DyNh6RnttCmkx8FSA1lTB1d+mhJ5zqH4vjRPUjqbGput3gJ5Bek3990iPFYCcIYMEMDqxWC2Avshar7XWHukZc83iNiD99Za5IhmcX436tIfRV++tvMcdT2+xqh1jqJodPhtaRIW1T306RQ1vdyffGDB0WVWwG/5VifaHq+lEXeajfDFgd6C5UR9Tr4AhDZtOYckfvAs0VVK7FasynyxFoK9DHbrzmCNg3EFu7caQlVyC0jeSLwqkjIuPqV9gHgH5mYtfILKACjeKX6zysPVsLLfiUttVm/O4+KJkCYrPgH6z6o18zHz6zdWZMXmpXfaZb3r+wMynI3skG4KvUtSn/WnyPes9WRNQa6NzVZ/9hjetfM+3ORpTB8eC8wPQSnQA4cxExOkODaHS857kUMec3rmYTuPqMgoJFnNxczsgKqjOFI9SHLJpNAq6HJE+WikTqowUKxCKMUE0KzO4SXm/bQEFeLKgqtJfeLYewTDBGfHYDIALDIFg8kLzbLMyd6vp9X1BdqkMFhQMYCuLXguB/qnrqPYPTrdYeRQPPDo0K3O3enDBUrcXMJ4iXAjAAo7HeIFu1R3EzhZIH4nDQcG4iE6eFBteRYsJyTXumCk6P+wYxrAoqNugY+18UZmSi8DbO1Cn9NnxpJpZrgiCaUwPfBW+k1zTyKz+y0SubSzXtoXkWkok18QK5RpeDTeTnlZgZtevrcDiry96i/EoSsr87PCB27UOa/9qSqfokAt3Zt64l5M1C0xJ3nCuirPJBWxr07I35EIK9XNVwxy79zShclcjxAMJTUXAvfbXIoNJX0C+D9ua8W1G3/1WIDLvi1XBoZWvKdv1Tw+InA6h6gi1mIAFhDgXoEBDYzSrHhCNO1L15gZEvC7RW2xApO+Qs8MHvjDQYa1AZAo2ruc9n3+afM8sLGs8XhcZ/tU3hP4nG9EBYRh/vCgTeZHwppR9H1eBrf3QvEQfRSbAkvFxMmUYnL22j2Z9NS6gwI+3hhoX3bgMacuQ41up36ZGcly0Js63BlSa1Y1ynBbc0GH1Vmp0jCanjlV3t9KGJWDjgVhfYjQJTx/bjQ6f6mfORvTY4aPbh9LxKlR0dz27uJIFO4x5xp29BkuTgVhYgsEyVv1IQPx5UOv57pV9voF/ZiMKLZA/2i+Dvjw9P19+WKT/H39JJI8uv0KKH/8D);strokeColor=none;spacingTop=-3;spacingBottom=-3;spacingLeft=-3;spacingRight=-3;points=[];labelBackgroundColor=none;rounded=0;html=1;whiteSpace=wrap;" vertex="1" parent="Q12kE5mwNm5ZxQMTA82g-16">
          <mxGeometry x="2" y="54" width="28" height="28" as="geometry" />
        </mxCell>
        <mxCell id="Q12kE5mwNm5ZxQMTA82g-28" value="&lt;div style=&quot;font-size: 1px&quot;&gt;&lt;p style=&quot;align:center;margin-left:0;margin-right:0;margin-top:0px;margin-bottom:0px;text-indent:0;valign:middle;direction:ltr;&quot;&gt;&lt;font style=&quot;font-size:16.93px;font-family:Oracle Sans;color:#000000;direction:ltr;letter-spacing:0px;line-height:120%;opacity:1&quot;&gt;Autonomous&lt;br/&gt;Data&lt;br/&gt;Warehouse&lt;br/&gt;&lt;/font&gt;&lt;/p&gt;&lt;/div&gt;" style="verticalAlign=middle;align=center;vsdxID=71;fillColor=none;gradientColor=none;shape=stencil(nZBLDoAgDERP0z3SIyjew0SURgSD+Lu9kMZoXLhwN9O+tukAlrNpJg1SzDH4QW/URgNYgZTkjA4UkwJUgGXng+6DX1zLfmoymdXo17xh5zmRJ6Q42BWCfc2oJfdAr+Yv+AP9Cb7OJ3H/2JG1HNGz/84klThPVCc=);strokeColor=none;spacingTop=-3;spacingBottom=-3;spacingLeft=-3;spacingRight=-3;points=[];labelBackgroundColor=none;rounded=0;html=1;whiteSpace=wrap;" vertex="1" parent="_eA7hQRQa1pNzd35qElG-81">
          <mxGeometry x="3" y="203" width="105" height="53" as="geometry" />
        </mxCell>
        <mxCell id="_eA7hQRQa1pNzd35qElG-84" value="" style="group" parent="1" vertex="1" connectable="0">
          <mxGeometry x="989" y="493" width="230" height="150" as="geometry" />
        </mxCell>
        <mxCell id="grjViRzU6A9V2aJoKMAQ-1" value="Legend" style="shape=table;startSize=30;container=1;collapsible=0;childLayout=tableLayout;fontSize=16;align=left;verticalAlign=top;fillColor=none;strokeColor=none;fontColor=#4D4D4D;fontStyle=1;spacingLeft=6;spacing=0;resizable=0;" parent="_eA7hQRQa1pNzd35qElG-84" vertex="1">
          <mxGeometry y="2" width="180" height="150" as="geometry" />
        </mxCell>
        <mxCell id="grjViRzU6A9V2aJoKMAQ-2" value="" style="shape=tableRow;horizontal=0;startSize=0;swimlaneHead=0;swimlaneBody=0;strokeColor=inherit;top=0;left=0;bottom=0;right=0;collapsible=0;dropTarget=0;fillColor=none;points=[[0,0.5],[1,0.5]];portConstraint=eastwest;fontSize=12;" parent="grjViRzU6A9V2aJoKMAQ-1" vertex="1">
          <mxGeometry y="30" width="180" height="30" as="geometry" />
        </mxCell>
        <mxCell id="grjViRzU6A9V2aJoKMAQ-3" value="Database IP" style="shape=partialRectangle;html=1;whiteSpace=wrap;connectable=0;strokeColor=#3700CC;overflow=hidden;fillColor=#6a00ff;top=0;left=0;bottom=0;right=0;pointerEvents=1;fontSize=12;align=left;fontColor=#ffffff;spacingLeft=10;spacingRight=4;" parent="grjViRzU6A9V2aJoKMAQ-2" vertex="1">
          <mxGeometry width="180" height="30" as="geometry">
            <mxRectangle width="180" height="30" as="alternateBounds" />
          </mxGeometry>
        </mxCell>
        <mxCell id="grjViRzU6A9V2aJoKMAQ-4" value="" style="shape=tableRow;horizontal=0;startSize=0;swimlaneHead=0;swimlaneBody=0;strokeColor=inherit;top=0;left=0;bottom=0;right=0;collapsible=0;dropTarget=0;fillColor=none;points=[[0,0.5],[1,0.5]];portConstraint=eastwest;fontSize=12;" parent="grjViRzU6A9V2aJoKMAQ-1" vertex="1">
          <mxGeometry y="60" width="180" height="30" as="geometry" />
        </mxCell>
        <mxCell id="grjViRzU6A9V2aJoKMAQ-5" value="OCI GG &amp;amp; Connection IP" style="shape=partialRectangle;html=1;whiteSpace=wrap;connectable=0;strokeColor=inherit;overflow=hidden;fillColor=#330000;top=0;left=0;bottom=0;right=0;pointerEvents=1;fontSize=12;align=left;fontColor=#FFFFFF;gradientColor=none;spacingLeft=10;spacingRight=4;" parent="grjViRzU6A9V2aJoKMAQ-4" vertex="1">
          <mxGeometry width="180" height="30" as="geometry">
            <mxRectangle width="180" height="30" as="alternateBounds" />
          </mxGeometry>
        </mxCell>
        <mxCell id="grjViRzU6A9V2aJoKMAQ-6" value="" style="shape=tableRow;horizontal=0;startSize=0;swimlaneHead=0;swimlaneBody=0;strokeColor=inherit;top=0;left=0;bottom=0;right=0;collapsible=0;dropTarget=0;fillColor=none;points=[[0,0.5],[1,0.5]];portConstraint=eastwest;fontSize=12;" parent="grjViRzU6A9V2aJoKMAQ-1" vertex="1">
          <mxGeometry y="90" width="180" height="30" as="geometry" />
        </mxCell>
        <mxCell id="grjViRzU6A9V2aJoKMAQ-7" value="- - - - &amp;gt;&amp;nbsp; &amp;nbsp;Data Flow Direction" style="shape=partialRectangle;html=1;whiteSpace=wrap;connectable=0;strokeColor=inherit;overflow=hidden;fillColor=none;top=0;left=0;bottom=0;right=0;pointerEvents=1;fontSize=12;align=left;fontColor=#330000;gradientColor=none;spacingLeft=10;spacingRight=4;" parent="grjViRzU6A9V2aJoKMAQ-6" vertex="1">
          <mxGeometry width="180" height="30" as="geometry">
            <mxRectangle width="180" height="30" as="alternateBounds" />
          </mxGeometry>
        </mxCell>
        <mxCell id="grjViRzU6A9V2aJoKMAQ-8" value="" style="shape=tableRow;horizontal=0;startSize=0;swimlaneHead=0;swimlaneBody=0;strokeColor=inherit;top=0;left=0;bottom=0;right=0;collapsible=0;dropTarget=0;fillColor=none;points=[[0,0.5],[1,0.5]];portConstraint=eastwest;fontSize=12;" parent="grjViRzU6A9V2aJoKMAQ-1" vertex="1">
          <mxGeometry y="120" width="180" height="30" as="geometry" />
        </mxCell>
        <mxCell id="grjViRzU6A9V2aJoKMAQ-9" value="&amp;nbsp; &amp;nbsp; &amp;nbsp; &amp;nbsp; &amp;nbsp; &amp;nbsp;OCI GG DB connection" style="shape=partialRectangle;html=1;whiteSpace=wrap;connectable=0;strokeColor=inherit;overflow=hidden;fillColor=none;top=0;left=0;bottom=0;right=0;pointerEvents=1;fontSize=12;align=left;fontColor=#330000;gradientColor=none;spacingLeft=10;spacingRight=4;" parent="grjViRzU6A9V2aJoKMAQ-8" vertex="1">
          <mxGeometry width="180" height="30" as="geometry">
            <mxRectangle width="180" height="30" as="alternateBounds" />
          </mxGeometry>
        </mxCell>
        <mxCell id="grjViRzU6A9V2aJoKMAQ-14" value="" style="endArrow=classic;startArrow=classic;html=1;rounded=0;" parent="_eA7hQRQa1pNzd35qElG-84" edge="1">
          <mxGeometry width="50" height="50" relative="1" as="geometry">
            <mxPoint x="54.94444444444444" y="119" as="sourcePoint" />
            <mxPoint x="3.833333333333333" y="119" as="targetPoint" />
          </mxGeometry>
        </mxCell>
        <mxCell id="_eA7hQRQa1pNzd35qElG-85" value="" style="group;strokeColor=none;" parent="1" vertex="1" connectable="0">
          <mxGeometry x="632" y="186" width="102" height="264" as="geometry" />
        </mxCell>
        <mxCell id="MIznTLobwmh9sBrvItSn-115" value="&lt;b&gt;&lt;font color=&quot;#ffffff&quot;&gt;4&lt;/font&gt;&lt;/b&gt;" style="rounded=1;whiteSpace=wrap;html=1;fillColor=#330000;strokeColor=#36393d;fontFamily=Oracle Sans;labelBackgroundColor=none;align=center;arcSize=50;" parent="_eA7hQRQa1pNzd35qElG-85" vertex="1">
          <mxGeometry x="29.509999999999998" y="73" width="40" height="40" as="geometry" />
        </mxCell>
        <mxCell id="LHHHwAimLA2ammTCAFYy-10" value="10.1.1.11&lt;br&gt;Ingress IP -&lt;br&gt;&lt;div&gt;10.1.1.14&lt;/div&gt;&lt;div&gt;10.1.1.15&lt;/div&gt;" style="text;html=1;strokeColor=default;fillColor=#330000;align=center;verticalAlign=middle;whiteSpace=wrap;rounded=0;fontColor=#ffffff;" parent="_eA7hQRQa1pNzd35qElG-85" vertex="1">
          <mxGeometry x="2.970873786407767" width="99.02912621359224" height="66" as="geometry" />
        </mxCell>
        <mxCell id="LHHHwAimLA2ammTCAFYy-22" style="vsdxID=14;fillColor=none;gradientColor=none;strokeColor=none;spacingTop=-3;spacingBottom=-3;spacingLeft=-3;spacingRight=-3;points=[];labelBackgroundColor=none;rounded=0;html=1;whiteSpace=wrap;" parent="_eA7hQRQa1pNzd35qElG-85" vertex="1">
          <mxGeometry x="2.970873786407767" y="132" width="83.18446601941747" height="70.4" as="geometry" />
        </mxCell>
        <mxCell id="LHHHwAimLA2ammTCAFYy-23" style="vsdxID=15;fillColor=none;gradientColor=none;strokeColor=none;spacingTop=-3;spacingBottom=-3;spacingLeft=-3;spacingRight=-3;points=[];labelBackgroundColor=none;rounded=0;html=1;whiteSpace=wrap;" parent="LHHHwAimLA2ammTCAFYy-22" vertex="1">
          <mxGeometry width="83.18446601941747" height="70.4" as="geometry" />
        </mxCell>
        <mxCell id="LHHHwAimLA2ammTCAFYy-24" style="vsdxID=16;fillColor=#FFFFFF;gradientColor=none;shape=stencil(nVrbctw2DP0avWJ4vzyn6X9kGqfxNI0zTtI6f19svSS4B6K48pujAIKAAx5cuJt/9/3zh28PmzPffzw//fXw7+PHH583/9vm3OPXzw/Pjz/4r82/3/y7T0/PD38+P/38+vH1398+XCQvf/399M/lDS+verWScRctZ371J6n8/+T3V4U/fj6/atirQCLvryoWdcyLuz6KZO1Vqj0q5OtVyl8fBbLtXe1RpuAP7XsKYD5RRvOebATziUIC845SBvNdambekS3Kfn9zM2YpVWW/f6XvUu6s94acA/NDXK+2SqGM7g8YXY0VRtKC/RX6xVNC+xr94jpGc/CLpXDW/WK6rQP0WSqgfY1+rlTjdg591mmvOUA/F6pZ2Uf0WSqUk/7nTNFuK/hzIoP+a/izp1i3c/BnQ3VboZ/k0QH8iXP0pPcpS1zn6LNU9tsKfZZyYTuHfkoUlXkEn4VcUuYR/BQpn3Y/UMboa/CTJ++2FfjJUMHkW4EfC9k1+jHp5Nfox0gVk2/lP+s4ffgQfpYyWHk0/DFQRPJZwR+9jr/Gn6WiJh/En6VMOuu/I4Pkp/GPTJHov8Y/MJaYfyv8QxTCmuMfAjmsPRr/4MmdJb/gJLJz/FlqffqDpYKlbwU/66jwa/gDHyxtH+FnKY/ss3LfV/KY/hp+nwkbD42+ZySx9K3Q944ymtfoe6uzX6PvDcWz2e+qBHaOPktFrD0afpY6i74rcqzm6LOURfLV6LtM6Wzb6xIlLD4afRelO53D7xhKzL4V/M6QQfsaflt09mv4baaC6bfyn3Wsjj/CbxMV3Xkh/CzlkXxW+NtIZU3+1svBOrDP8cf8W/pvBbM5/pbHA/R/p/OjgrVvWftlUDs4/FTXM5+jejr3+5h0gDxV3XWpwFNYzXtfHr8O87G5Sr9BmIeQq+u7wlbmuIm8ImCJrkUVqf6CUxuGbB9ye/MnR6nNYjwJhyPjSU6sTIIOMMhkoPZcxkXMvQhHr8vMZj6ZUq16a7Mj9cTpz2tYC4Pd6zafJwN5P8az5R7nFTpuNOsxgMC6S8yZqRLa16CPfDpHfeTmu/2vEtg57iwFRUfjzvXDQcO/Ap5VclHGseJaxXg70LNUTid9Z9oxmHiuz1bdvlPtLse+IunpiisI7fLDqHE9OYGqu5d9TgnzYFfCXNhLTzGRV2lTVK8mOmPoMvSKPvWY99AxmpC20uTth27Q6G2ROVIIUrXvUyhy4N6qUBobzBtOpFzv+15r6Hex4bpMIOE2hqxogPFDatuvWblJLYMEw0AJxx0nM7HrSLfRuk+7zFlQeEVq1nFkWc9Z/WbZdhToOfgrPfifslq1sf/p0H4qatPKA7BB+0W+soWEUYIcTlUWkjKBhoOE4TnK3CbMWuE253kQPHaQNZBeL3NZvHXQB8ru1sHLccEEqzL3COXGwwRnHUxw19eLwzjtgSO42lQwvzNO276DvX+ct6HfGrwImBHcr32/9TKcJWT3toGdWS89SZp17p6gr+Bjg9Nk6ov9frasWuN2odnRsoqeh/c2407tEXeMO4r52PhtmrJCP693fqxXW5+djw3Sp/WPvQ4VRzu/2NhrTkIOYLJ9fukcMOxS3U197ed/2Nz6UWK+Zrew6Da3Nrm+F0CHmRB77SwL03Yseht2/w0Dt7cO4p2LbM+lCYamZ7wG8SB0//0OD8uNh4frJbzds9Kk9Pslr4oOH/BwSAqlyt2BtMBt8TPc7lXItpE5m/2ios+U524m3dvDUTj2tyS+IP3xOmqioDy0vYb/Ei5ykNIldXd6WWWKx/tToax+oLrU/tRroPM8J55jS7v9cAz5/kYFDo9Z3cBV2ANx0mbIkPFuz2kpuYHsLYZHqTl+O2sAtM+5v7MHwKmkhL1FQD2exkPvLg/G8bi3CWjtZDcfVfEQqZn5tLcN6G+ep6+eSPm0GazaS++L/F7C6rg2W3VvH4DojyxyL/o1qOv3HfRrFIzm6Nek1oBL//nER70Hwh8/5J11AIJfy94+4GhmrVUq0xsVGp/MxOG3MCfF1RL1tAL/Ib/U+fT45cvrD33G/8df9vCj118F+ff/AQ==);strokeColor=none;spacingTop=-3;spacingBottom=-3;spacingLeft=-3;spacingRight=-3;points=[];labelBackgroundColor=none;rounded=0;html=1;whiteSpace=wrap;" parent="LHHHwAimLA2ammTCAFYy-23" vertex="1">
          <mxGeometry x="0.9902912621359222" y="1.1" width="81.20388349514562" height="68.2" as="geometry" />
        </mxCell>
        <mxCell id="LHHHwAimLA2ammTCAFYy-25" style="vsdxID=17;fillColor=#FFFFFF;gradientColor=none;shape=stencil(pVzLkhQ3EPyavSpab+mM8X8QZjEbxiyxgI3/3r2e7pamMlulxjc8Lm2NKlWvVGke/JuvH999eXxwy9dvL89/PP799P7bxwf/y4NzT58/Pr48fVv/9eDfPvg3H55fHn9/ef7++f3tv7+8e5V8/defz3+9/oUft3UpmOheV7nln9sn3lj/3we/3uR/+/5yW2C3FdW4uq2wYsnyw90+yd7EvAltHyUT0ybkN6Fost2Eto+sM7aOtOe0CxzarTchCPXZ2HCv3gbjs9BfjFQfTBqrr81cu/p4r7sspkahO5oa7nUX177hrjyZkkfKSzYl3St3tll1119NTvf6vTUuCv3JpHyv31ezpF7/p6fP3UkpneVvn4TFeHu+YAXBl/ECMG82SZh3XVMR3SJ2GCyeLkA3OBOH9u2Q2z6KneUcWm4/2otJ/l57TSb4e/VNipqrdnv/2QXy+GoLVje1boBgNKH8vwVFsTnx52JNKao/FzzTK+JRnOkmdY75EYMs/uWmrFqhf99Y79KHefePtGC6Cngv1HuTpXpvilSP4Wz96HB8L6XO9EfcfveX25E/QGr6F+Fwq1S1V/ePIa0cKaDpL7h/hL927jsLf/VGR7+GlvFO0QfV2tYrMT1CX6npJfQ1QzYB6CEWHCsOKOIl+bJ/2ckFVctvMvi2Bc0c6AmrHXe3O8zhZeiv41Pg4BTW7ny7Q+rIZ+3rZHkObAPMS6kz/YtxQegnUQATeyVeuGbxeGXzpUgX6C3aIoAMgD06u26pWK1oiOER9NUlZcYloBd0f2Xjiwp5X+6dQ07yjgo5qXQI5CTvEcgz1hrjnfdpumEOZVbAzSPmufOKWdgzOe8Ie+pO8jnsqbQMOrX5RCwfjj0cyonlEfmUrjt7ijPOnsKMs69S15w9EYdDb0/E4RD52DnHLPKx6wnOkY+Y9AjysTvFU5uPnU3PfT5itifIR0wxGvCxa/nOgY/E9gh8vBrsogx2iHrAKougHrDKU1EPxPCIekDOgKAeuhM8tfPQ1e7nqK9SRww9R31tRuHIabB7pAwI7J4EO4TdXw12nvgbRnqfcPOIvO8cYxZ5T848Iu+RMiHI+y5rTG3eEctjpHfE8oi8AzZBBd7lGX93SCcQ4F286O+OuBy6vCMuh8A7i/WFBrxFlpAAb5tVz3G3GSuM4d5tZ9Jzj7ckySDuVlpdQ912Hco56pYYHlG3V2OdJbEOUbfE3Ugx3/YxCzqxO0nuLYQOojxQGUqcQ6Mj4h3XMnB0PGwS8vtG10mWs8QhLYryV/++RmoECHuE1OjYh1NOA/sKldXAmFdIW9Uq8AGdBedPZbMqxDxCZtkujZyTWZaQSdreifd1Nt3VOyCvCZclw46KuSWGR9BtARdA1C0yCOrWnSgvCehuAccnqJNco8Leu8g57o4YniRajxyyuvmuC+uIDSv0UxbxoDqPRA/Ab2Q4Dw67+OZYh9q5UHJVPo1JRZRfzoU7czDhiYJiW9BbWBIWvmCAFxb241ssYWE3ZEm7KvHnxKty/+iArPPkpFc4aWt7A+U8Zrq1A7y/3YE022WEvbHEdiIgUXpA1fpX2UiN4Y8FLkok/AkdLOLFK+GLQh7fUfVE1J5icdcJ6dlAuDpsYrRrybwAW9fD6Q4pmdADuSJb4MpducXt7TW3wF68J+5pmakFfUc9t8DJi8/LC9ZAsg0ZnHe6klnzkPw9Fr+ONNoVql8XxN081Hx4j+lwLoKwHA5zULAwG+COW/gz/ZiD1wZL1h8BI7SF+iNkuEe1qvoCDYA9IG41L5Z+R8BtoQl3r0XlSNqu9nd35eT6CJXjHbJULpynO3aTX5b0SvhlCf2MJGSEWKZ5SUTyXRLf2Jx240WN95bUsyzSRFBSx5y0sahhdkoYokVyikixoeNFLD6TUvdHHCBIMBLUkdUOZDweJC+Ezk6eHD8R8hMEOPmuOGpBvix2CZrygM0hKg/AR2WMjtgVZ1FFk+AoT70V5yMs93rJuJqvwL9azdk9Vs3yZBLm2eE8k8c7TifHk0A5cpDumB9q+hFwV5pUq9Jl4eJV5h290uNwice+dP2IkM+yYF0j4qgZ6ldsC4bNAJFXui3oHhT5eEka3Pv6gnHzgzWWNh5IGn1P6E0kOSJxY3CmJjTX3Cryy88Lp3F1KoTHQ3/3wsr8nhCWyUdjExR5APzygqKFHEYFdcHMoZQ7pGSn6HBEt2h1qLNAgRMazuEdL+EAGRWm0YDOsnFKoh+Gyoh+DLmq/S1euWWsLvHaJ2PElxRo1sgJi+VF/2cb/SvDfcY6HEcb1K0jScBGCSHXEsMT5lsdY23Z+Vx5gTsnqvwq5gmaHwJ5hM6LQI6MFIA+jFdXhMGkQ2HZfg+Fj5Q0IaxcLglheQGnBGT1wg7rUnJh5+C2hg0HwPW4QqohZ14L8BV4SWUXwSSis+wi57c0MkS3P9quZ+GqsPt2uyIyEKHs2k5NwljSfaPJ4WpavZMnk2dEOboqVQ7JQd07BgoCucUoBZiTzKiA3pd7Z6D3MxbnoDsy/6Rs3E0NvfVSg1kMJMd0L8che65f3o8x/WQCSds+GQVB3MkMEODu/VVn9ziSALh77BcI7qT7VkPc1JhrIKQkGbsjk2fq2B1ywly/DLJMPxlr17ZPZr8Q94AT/YB7wMdqCu6BvNOTuEesggnuEbsAbeNxKq3GqbxKaDl9yBYetTD1wAky7UhIqpvH6ROW2HH4ClCPOIegoJ6QhwfUE5m8QtQJwaxtPOmvV5JML2jxhJy6PnZFxvmZchy8ovph0FDb+FReTxN5PV/O63kir+epvJ6v5/WMd9LE7pmkF/KMgrwhUZ9R4KUX1z8x1p2vp7dC0hviTp5OYg2P434K7gXvkQD3gmMQBPdKpoqVjdepvFqn8ip5tKi/k0OSh+kn6Y3oJ7ed2vZJekPcyaNJwJ08WxS4izeFcPF/UVxpoHFBkRea6oLxK0qUV55p4oIxb0HeaapvYDF+M+YKXwCyN7hkZFQlzjB9EQKJvPwkDBJxJ5U3xAeQhDYseH9LaMOCT5LU7Rfsyhl3h105I++ujo0W5COYcuQjmHKkQ/TNQ6lKoC84tUKgJxlUhZ5kcIJ9nqGr+x+lmCMv+xWtUhlFG/z9hvGCI+D+pPh4OlSKK8OhID6+5JLiygUa2kZb0FWFJwtI0SF5nP5icT+tOGccKk63Yz8fxndz/U81zC2AVKAvEAcyjJNNIbOBIwNWZAQ8/rwLeedua3u2tRsQGGerzcgVwvzinPbxLHzX3f0cSXNsSYJZq8yfZCThLP54T8anEZZMceKLKKtF2oxphjzMEHsX9RrpigfllzJDdT9w5b25dLjJDOh4AZkyHS8gc6zKAt3fJlrngKgkrD1CgNqDvEUP8iaKPAeHcTyc0Il4KCOZycKIFtWhLJxeiziV5ZGZ7r/lTtDi4Qza9JzHWcgQYWzUI2UUyHgWBCTtCKtHfv1H+922D0+fPt1+9q3///J33taPbr8R59/+Cw==);strokeColor=none;spacingTop=-3;spacingBottom=-3;spacingLeft=-3;spacingRight=-3;points=[];labelBackgroundColor=none;rounded=0;html=1;whiteSpace=wrap;" parent="LHHHwAimLA2ammTCAFYy-23" vertex="1">
          <mxGeometry width="83.18446601941747" height="70.4" as="geometry" />
        </mxCell>
        <mxCell id="LHHHwAimLA2ammTCAFYy-26" style="vsdxID=18;fillColor=none;gradientColor=none;strokeColor=none;spacingTop=-3;spacingBottom=-3;spacingLeft=-3;spacingRight=-3;points=[];labelBackgroundColor=none;rounded=0;html=1;whiteSpace=wrap;" parent="LHHHwAimLA2ammTCAFYy-22" vertex="1">
          <mxGeometry x="1.9805825242718444" y="2.2" width="79.22330097087378" height="66" as="geometry" />
        </mxCell>
        <mxCell id="LHHHwAimLA2ammTCAFYy-27" style="vsdxID=19;fillColor=#2c5967;gradientColor=none;shape=stencil(jZLZEsIgDEW/htdMSIptn13+w9FqGWvr0Lr9va1QBVzfwuVeOIQInrbl8lAIwrYzza4463VXCp4JIl2XhdFdXwmeC55uGlNsTXOs13Z9WA7Oodo3p+GEi81JxCFDeLXrCUE2uSsLa6907dmVhCT9Hlgdjb1AWgMzZOQiMs7ghRxHDnJ0OYkToNy5+NXlJPwMG74Mv0FiCKi8qx0NMSgOAR+9G/H87nDoeQuYK1B5ABnZY0w/MEopyCRE7SVMQ9RMQSqjXj5+nv/6+p+T0hfPKdvoqrJD6u/HU9lLdqJ5fgM=);strokeColor=none;spacingTop=-3;spacingBottom=-3;spacingLeft=-3;spacingRight=-3;points=[];labelBackgroundColor=none;rounded=0;html=1;whiteSpace=wrap;" parent="LHHHwAimLA2ammTCAFYy-26" vertex="1">
          <mxGeometry x="49.51456310679611" y="17.6" width="12.873786407766989" height="7.700000000000001" as="geometry" />
        </mxCell>
        <mxCell id="LHHHwAimLA2ammTCAFYy-28" style="vsdxID=20;fillColor=#2c5967;gradientColor=none;shape=stencil(lZdLctswDIZP4y2GBMDXOk3ukWmc2lPXzjhO69y+UCVSJBTK7s5hSH4E8OOhDT28757fths075fz6ef2z/7lstvQtw3i/rjbnvcX+bWhxw09vJ7O2x/n08fxZfz77XnYOfz6dfo93HAdzxGDoeEUms9xJUZI8d/K03jgsD9WBxzEuL7/+8d5JNhxQwDL04m8EiHacemK45I1YPK901IwQNPBK027GMK0aVrxDtCt0W0EE1q8txB9i0cDNrR45yBRi0cLxrZ8jkBreDkSXYtnAz4qPAMpPBEkRY9gXUsnC+TX8GSyewoeE3hlvVyTTc14rEJES6mQvqvHDxCx5cuTnAo+W7Aq+KKaFFo+kw4+Yn5RB88BjG/xtgim4J0F9C3eSqSxxbtK+aR3dfgeZ8Ps8uYJ5gN4p/jitxYv2eDSf3o/IKDSPnlgbvFBPGJbfC3RzI/glPsZs2o7/LhUnwQRlflRrlHmM0NS7o9L9bEHb9f4yS7cX2f1BEuzrrJHZEWlfjIQfIu/USjFeJ/vvbNSRltSI783VZ7o+yulUhqKvxCCipc1pv/cygv37GZw3GxPt4KR75u7gANWpg2XcGsaf2GaB6diMcu651oGVlKsKiwW/+s6OFfYORMSsOoCc03rZWIAUpH9og4HD0ZFduieKhPqfM2VoAi2x7fA1PITkK5DDJhavLlZA80a1qmQmxYoaZ6NK123jAGl7aSSAZ/zGMCr7qY4V9QsPw9J1X0RTVJtR6YFr2YOaXtRJ1Kuzj18paM+XlpsUu5eln2sJJGXylzUmzmqVpGXlrkmL4qq7IupQeWatMuky/7NTHdzcShCKGNQ4S/V5ghIDT0WQaW6KxLpiQ5Y9Xxpw0GNHPIeVWjCcuIwLVmKnmn6XVsT825dkr/cXCu0c2ChqkquOYdDsbWI2i3cmqqe25/lbrSzOz4U5Mf8mfG6PxzGr5T6//qzRJbGTxp6/As=);strokeColor=none;spacingTop=-3;spacingBottom=-3;spacingLeft=-3;spacingRight=-3;points=[];labelBackgroundColor=none;rounded=0;html=1;whiteSpace=wrap;" parent="LHHHwAimLA2ammTCAFYy-26" vertex="1">
          <mxGeometry x="32.679611650485434" width="46.543689320388346" height="25.3" as="geometry" />
        </mxCell>
        <mxCell id="LHHHwAimLA2ammTCAFYy-29" style="vsdxID=21;fillColor=#2c5967;gradientColor=none;shape=stencil(pZnbchMxDIafZm89tuXjNYf3YGihGUrLpAXK25Owya6jXxvZ4S7d2quVP1nHid69PHz6cT95+/K6f/52/3t39/ow0fvJ+93Tw/1+93r4NdGHid59ed7ff90//3y6m//+8em48vjr+/Ov4xve5n32uMPbP/Nf3ppE/558nBc/7p6axZ5Mjv+3ISWTUrvh88/9/D1u2eLPW06PUjF+3mPf/GmVX198epSdCXRaRcuq5V2nR5mMdVflO8PE52xyYeIdk10NZSbbMsHLkg3BrjKxzTtPYlwxXOnm206CXF6Ppldpl9Y950OvpgQmPnLxiUyoTDzBma+rtsQ7Jrt57Vm2ZZKbzzuJqYNKFzA0gXRGO0PWCU9cox3hwAXecf3Cbd7BjNImbuECaw+iBdbMxIHzpTO4dDUlGOevGsXlN67rV5vg5lgOp+ovPxE9QLUmlOvHw+2iHkCw8wlwPs5abhVM8nnFpj1yk1hfuXEL2g87C3GD6joHcks2xASjPbRAtu++jjnAcUuoA9xDAXbjoLq1T/wyCLAdegGgzS+DArs1zC3azUU98yaTIpMbxi0cDhx4e3D1Am60cJX2wZ/qsH3Rr3UBl6trXcHQBdZkddZEQ6wp6qwpdbCmfIM3K5PCmiCrEFhTHWYdbAfrwDIpgXVw46yD72EdSGcd0hDrgFkFsA61g3W046wjj5nAOmLMRNbRD7OOkFMIrGNQWccwzjpiLiWwjklnHVkKqbBOTmedfAfrhHFT1TqFSWGdQgfrBCFTZZ0gZAqsU1ZZJyxUdK0xSRJYp6qzPn9NJ+uMaQqwzhA0BdY5jbPOeVJY59zBOpdh1rl2sC4sKxVYFzvOumBiKrAu2AkA1mUwEc866wJBU2Bd6jjraieFdbUdrKsbZl19B+tKk8a60jjrGnpY16izrmW6xvqyJF0WL9Z+vWqv7CIKNXuFRE6o2VtFeqt24YiExljFlEYo3NE61B5Na8vbbZrCUnehTVMwidVbNRByDm7UcdnpUrbQqOGOQAVeWJQVgBeo0gTgrZfqVrqnT1O6GjVF69SA3y8gG2Fj0Fm7u22845qvaoiXst0xPzkWy357w+IDblt+xT/cuFDpiiuLLxv0uckNO402Y29BsNvssLWJhptZO0m12szil2CzbRK3bbNJMBzNbJPgI9Fu23R7208lqIJU3VPP7CDps4M0OjuI+uwg9swO4g2zgyjMDjAuRQzdAvOmjOxFHrEIE5BHfXwQMFlTdQ/gJoW4FFhMFICHPI0BX7oS28ADVCPS8ADrbV3pnrgUuuJSGI1LlHsuODbTBN50Qw5G+vUmqLoF3oQFv4qcurw6dXl1GvXqZPGWCUOjOmnEPbN0ZWa0LO8KrBgrhzcAhuENhx/rsP3L7vFxntW3/+fD+cOjebBPH/4C);strokeColor=none;spacingTop=-3;spacingBottom=-3;spacingLeft=-3;spacingRight=-3;points=[];labelBackgroundColor=none;rounded=0;html=1;whiteSpace=wrap;" parent="LHHHwAimLA2ammTCAFYy-26" vertex="1">
          <mxGeometry y="46.2" width="79.22330097087378" height="13.200000000000001" as="geometry" />
        </mxCell>
        <mxCell id="LHHHwAimLA2ammTCAFYy-30" style="vsdxID=22;fillColor=#2c5967;gradientColor=none;shape=stencil(nVfRdpswDP0aXnVsCdnmuev+o2dNl5xlSU+abu3fzxkGbAlM6BsIiWtdSVfQ0MPb/ul116B5u17Ov3Z/D8/XfUPfGsTDab+7HK7xqqHHhh5ezpfdz8v5/fTc378+3TxvV7/Pf25v+OjjugDItyg0n70lBOi6/5bvfcCP90sfYZODBz+EWBljPjCZMLmke0fALrlQb/Ip5DPdUweBasjeT4dNJnSAvkT2bjpfMtkZ8MwrmRi6Av54OGVM5QG9xVScI+CXfT24Og1TQLJYHokZWUDFQnyxRcGCnRgdqhBrGarwRtW/JUAU+KYEbwOQLcFdp8AZgdsauGPVAr4FDiU4dyV4cNC2JTgbENiT0wJ2iyVw/tYERKxY9wytYJ2sxOYWsIqNQeVNcRrE0A2jMPa9g45L7NEl3UvgsjdH79UuRtowHtp5redjhMrfArkyf+sV/VGarCg9lgxMHrNnNcU5NzlbU+FgePgl55VjzKr65oByDWwOKBdNUPK5gqD1dnNA24HlqpTphcIEJKbKh7KleGzWSUeD2ibOQvA18GCkjEc1tnKNkmjnrOlJM0t3MXVHLcrieSy8uQPCKq8oU+MIKUTai9Ry5gdaSW8IA4GXU8sj7uLC4SoXagfprglai+QCjGuThBCNtNICryK3lSqUNcMgE4sdaaplI92R2aGHFTd9fSz3JPmtPSk2zTZvtlAdtbheZD8yGLk85ZgHaEOZFs6OuanU7I4qiLLZmYC6kKCetkyhhuyywVgeuHwxDx8IUkTXVvlK6ex6gEzQqvLNzBvKecvElDS3SyotsluvRryYfq5eDsdj/2+WP5c/Y9HU/8jR4z8=);strokeColor=none;spacingTop=-3;spacingBottom=-3;spacingLeft=-3;spacingRight=-3;points=[];labelBackgroundColor=none;rounded=0;html=1;whiteSpace=wrap;" parent="LHHHwAimLA2ammTCAFYy-26" vertex="1">
          <mxGeometry y="16.5" width="79.22330097087378" height="25.3" as="geometry" />
        </mxCell>
        <mxCell id="LHHHwAimLA2ammTCAFYy-31" style="vsdxID=23;fillColor=#2c5967;gradientColor=none;shape=stencil(lZnbdtwqDIafxrdaIEDAdQ/v0dWmO7N2mnRN09Pbb2WPDYwAA3cTR7YsPvRLwpt59+Px0/eHDdWP1+vLvw+/L19eHzfzfkO8PD8+XC+v/GszHzbz7uvL9eGf68vP5y+3v79/erN8+/Xt5dfbE/7c7osOtHu7C9Xf2xX1/18fb8aff15v1no3Rwi0m+vSXv3B3UKDC7vFfkl7MHG3MruVgoC71X4JCfSpawXK3bs2Fny4dx8iOHvv3hqwwn0I4IT7bNXxHzwI9+WDD/cEMd67NxE0CvcEaNaiDw7w3rs2aT2SdwtarL0SnjWEeO/5lLfn5YzbGW8fwOA24u158dxaxJ7AC9cN3myFIuQGb8+rR9sab28zpD5wb8CL8BvAPUKkxfA1RLuNiHsFUbgXxCkAia1+SpwIjAhbECeXE7FPnHj54lrIZHJW9omzldJD4qRzIs4SJ15MPyTOVpa2EXEXgRbDd0xKuG8Qdx5IrL4g7hwYsdlOiTt2cq7pTudU7BNnK7Wo6U7lvOwTtxG8CLlB3IacibPErYcxcDbSY023BHZR060Dq7cRcGvTSneAWwS1Iur89mE7422K8tjnbXzGMhmxKcpjnzdb2bGmG5fzcJY3O7NCVBvAjYFothFwttKLmm4Q9FjTjU6+OsAxQBB77RQ4v5c713QsCmSfONq0VrMhY1Ef+8TZCseajpgTcZY48mKOUxwV0FjTdYTF6DWDEqnWAM4rHYR3AVw7cCuSzk5QRC2Aa5X6Saxf7OjSczs526aCHdP2ECcKeNWoDlk7CGPURXE8EfPc9c6mNrhx7UYQsiIwqxPET5fnYmw7LPeY6Bh6evshV2Ytb8lbIotEbnWO7ZtyEITw+CSW3ZUxwndAIH3vu1jwtEFlI1ttiMOkNzDm3avlM3MWyF6ufLnDjwbExai1ripduZqHfwTR2JRcTNpIclgdA7d5DD4hXnfyDeRsJWf1cfhMS/hvUGd51EIJKuwszalJmuPOe1SmouTOmzKKDqPBnXelt4uBs7440dPxvHRsn+SfckL2wbNQKuF/CJ4VWDbzDfBsleTqJNcjmNX4jcr6eoCnNFYVLY6Rh0QSPPdXaRyaA88doZzfKvLctKI4H2qQ5wZY6dXIQyp0J+S52KBQugZ5y6so/A/JW10N7g3ybBVE/A3yPFHQYvhcatM5Qx88DzMk3FfgeZKKYtsNwPOAiLKvluB51HRCaxrgeYbFsBi5w5ymffBs5cZa74o+Yha8s9UZXQO8cyDCb3B3RQs1HX5RmPvgXd301RU+96Rz3AnlkWyFnUzOyj52KsrlbNzM2IyVnori2cdORbmcxU6+OopvYKcAZqz0xL3Sal/nVf5y0Ofui/mrx51d2TWl9w78SOl9UT375NkqrCq9D1Wz3yDvIyix8xrkg4JVoQ/F+UAfPFvRuJ3nFVnd98FUM16DeyhOWnrc+TbZXw24B15TUeMq7rGonX3ukUeiVaWLumpqG9wjj0hjoY8m5+Us+FicBPbBs5VoMBrco8sHHtPhE5BocBrgYz5S7XFPFzrU70fdbJ0ajfNjgBhyc98/B2ArK160cRBQRDP7mTJUB16NkwB+rj0/xS8/zI7PAwafcflH/gD89fL0dPt+XP5ffjDmS7ePzebDfw==);strokeColor=none;spacingTop=-3;spacingBottom=-3;spacingLeft=-3;spacingRight=-3;points=[];labelBackgroundColor=none;rounded=0;html=1;whiteSpace=wrap;" parent="LHHHwAimLA2ammTCAFYy-26" vertex="1">
          <mxGeometry y="60.50000000000001" width="78.23300970873785" height="4.4" as="geometry" />
        </mxCell>
        <mxCell id="u_CYlae2fHao4hrpNgwN-6" style="vsdxID=21;fillColor=none;gradientColor=none;strokeColor=none;spacingTop=-3;spacingBottom=-3;spacingLeft=-3;spacingRight=-3;points=[];labelBackgroundColor=none;rounded=0;html=1;whiteSpace=wrap;" parent="_eA7hQRQa1pNzd35qElG-85" vertex="1">
          <mxGeometry x="6.189320388349515" y="124.31803278688527" width="39.6116504854369" height="33" as="geometry" />
        </mxCell>
        <mxCell id="u_CYlae2fHao4hrpNgwN-7" style="vsdxID=22;fillColor=#FFFFFF;gradientColor=none;shape=stencil(lVbbVhsxDPyafdWxJF+fKfwHB0Kzp2nCCaGFv6/T9VXZC7xtHMkjj8ZjDXz3tn983Q2k3i7n06/d3/H5sh/4x0A0Hve783iJXwPfD3z3cjrvfp5P78fn6ffr4zXy+vX79Oe6w8eUpy1YvGaR+pxWUKn/vx+m8Kf38xSPKUGB0ikB+wz1QdMCM9iQYtJSCEAuRfG0RAEUpai0FDwos4ZOBN736MEC6x4fAzgBHyuyPXwTlNG7gx/GY8NTEz0tGA2Wl+PVt4KB+h4YBcGv8aDAm54GjRBMT4MB7llgDWgECwQUehp4tf/I4FwP3TSydECDF+DkwMgWGCDTg8eikx6X8GO7scfHRlsZTAEK/Fh4EAI0lfdcEYK2qwJ0wCzgFegg4EORW1EgOHF6jtQLAeaYBfCYYQV4s229fLSNXcj4MnbUDm5ia2DaxNZg+JvgtlrFMngUmMQuuszYHlgozsHqTWvuVYZmQCG36KJenLsRRQIyBCgavmI40TIo++xMsCzTEihhjKpskMu0kRBhjNEjhC07yleg3goGvXopY44VptBctwTlGJR4FbD4YoVnMIKlaBOJuCX4iCXfJFMcsuBrcBLfFUIK/owpbL1KHsHI4/viqxnfu2q12SeiJIRKggLre3wqe80qpc0oCUavJGC1UGFF82+f6l8zXaqe396Uq5kTCs3zCVEYfT06i2eB8PYEWO4Liob7KFvfE24RHIqG18RMeI36uuDanelWyiv4XM+yhN/z1Wakk24ZaJuChXUtC1ZllCoWakHUaznPJtW+NzzUhOr4Gf32zTbRV0W76mTJt+Mq9zGzVG2Ot/GjjsYv4+EwTdbt/3KUjkvTGM73/wA=);strokeColor=none;spacingTop=-3;spacingBottom=-3;spacingLeft=-3;spacingRight=-3;points=[];labelBackgroundColor=none;rounded=0;html=1;whiteSpace=wrap;" parent="u_CYlae2fHao4hrpNgwN-6" vertex="1">
          <mxGeometry width="38.66851595006935" height="32.0958904109589" as="geometry" />
        </mxCell>
        <mxCell id="u_CYlae2fHao4hrpNgwN-8" style="vsdxID=23;fillColor=#FFFFFF;gradientColor=none;shape=stencil(pVnJchs5DP0aXVkkwfWc5T9SiTNWjWOnFCdx/n6g6eb2oCbtyk2iAD4S2wOoE737cf/p+93J6h/Pl6d/736fvzzfn+j9ydrz4/3d5fzMn0704UTvvj5d7v65PP18/LJ9//7pKnn99O3p13WHl03PkzJXJav/bAtWUfp/4eMm/vnnZZM32+9BK+92DQMq+sXuQlEZvwvtS7yyq73QvqKVC7vQvmScimGGzjopjujGKwfw0SidRngTlMmAb1TIgB9UiFN8q4wB/Ciuz1KZAD+pZACflPeAn1f3ZwEP+FWn4ievCPAtg8URPyXlaMS3Wdnc4z+cH7tgSfxz8di2QiV8bspnNs0YXQ7DCxScCjQqVO/eVjDK2FHBlFsdmDBzAI8W9EZlMKBVCeKX495iAEsHNqnjAKqhYeTOLYCq4Sb4MoCDPrZVL14jIJnpaTsVUy0e4njakJWG07IjtR9PG0iEW0bnIr7nAybADwLfs7cy4HdJuYO5oBxYq0kd4DvdComRO+9gxJdF/O6ULbcwWpb356zNUO56y5bcNspCueu9RFKKDvw/BkyvAWxxW17Z+CZxB7trFafh2Liq+EdST1QWSh9BIBpSwY2GIFPY4QCZScZCIpAWvMP04bHuJlF3WSoDvg2LosUkkyEQbbXWLBD44BF4h8E0JCKbhKb4fA2kPWl6toiJAN9KazE1ux1uX4WO3N5VYyP2LeBcXtbg1OrJa8G75D4Gdwr5XmI7hWy/guaeJSyhY20sOmzsdSjXqlGLz6LV4NzygO4FUbmovB3R2VlhBOf6jDzFK/a4MvQKOw4cdiWP+wtisYLYZDzf4BUraKVroAlkbp911XBDf+4aa2wrE4b3oqTOhLl+mb8QXjQ618YNwkerDMzF/Ao5K9tUDnAD0RNLiB0njkfaFKxJvg0yhTVrMHdJiz1LkXl9vei2nXQMElsWqyU4NQo+BpfN7Q1w23j0leBWziYS/MrPWKZlZ2tlpVzwc26DQ1miNnE1MsxYK+vE0/jZ1d6pprQvoXuE70S0W9ko9p1H6w9wLmRmxfZgZXqe98DtJG/PozOQlBMkxa6AauY1XH0sDHooCh77iKmwh3Zv1U3O5a+etH+nkGqVOA6zqlJCXJIiN1gBE0zOI+xUgxmW1Lz/JTkOdfHbiqp4/dB6BL8xDBWZoxATzXfbtPBlllVNphfPgcm97d4hKEKz33h1ofoQUuG7tyGSUnTgdpibO439PHZBQKlrcg3q1ANn6SjvG0cW43CDAAd2OC7Ao4htw0Jt04ybKHD1GjPBzSdDtmuKb0JI2MY4NzV6Da5XPhzJ/XGYBAXdqGBPLujGhbyFFnNholsKs+LYR0NVmKZFCiriUCifsviikJQmihY9cpuJ9WD1OMI6Bt9i5eNM/0h2PJOyFCHne+gwRVbS6HEzz+Hy/Fykl0/N8qWu6fQvdTgAsRTWvP49r43c87e3/lWt0jxO/FxVDHhXC+P2M0Th+WNTLSYO/tD+S/h6fnjY/orof8f/Hnhp+9+CPvwH);strokeColor=none;spacingTop=-3;spacingBottom=-3;spacingLeft=-3;spacingRight=-3;points=[];labelBackgroundColor=none;rounded=0;html=1;whiteSpace=wrap;" parent="u_CYlae2fHao4hrpNgwN-6" vertex="1">
          <mxGeometry width="39.6116504854369" height="33" as="geometry" />
        </mxCell>
        <mxCell id="u_CYlae2fHao4hrpNgwN-9" style="vsdxID=24;fillColor=#2d5967;gradientColor=none;shape=stencil(pVrbctw2DP2afdWIN5B8TtP/yDRO7alrZxyndf6+2llRBHGw4O70zVEgHhDAwU17Cp9+PH75/nDy64/3t9e/Hv59+vr+eAq/nbx/enl8eHt63/46hc+n8Onb69vDn2+vP1++Xv79/ctZ8vzX36//nE/4uLwXl5DOL/n11/6gLPny5PeL/PPTC5N3tFT6fy+ksHjjhfUu4eX8X1x+Fdr88fPtcl/X3ih5f2N/EvcTPvx+RD9zfxJiU2L9CPu1XL/W/iisQlUJ7cIioH3tB+9YLo3YPiN2WmIcsSfAtCQ/Irs6wh5m911XAdvU+NVNYMNuqoc6wtZ+qu9WE+aucOMQllXcuE78HJgb251XAZ0Xl6fQZYllhM6LiRx9P7ZZAq4dmW38EcsCO/mlhBF7tZATM5Pj8j22NzqRgBWYTOIWTHLLWk1MKl2rpsaImV2PzxZcwQLNjH2MXMLG2YN/XVwkNtrYme7dsIOATsBi2sKzCOgkoQlDy5Fp69J907HltbmUhS0ZZV+bkE9lEcipLkkgg72V+Io2n5SojoAcIMYQGT09QY7MQdeQY1xcGJEJUmdkJGnWXm3sLe9UByEu42zLciQKxhbiEj74nmzCIWUnb56XG34cwb0SaGD1zRpw9WRf3XuoGy5Lu7st1gS5vcNSyax4KGRhO6SYUrS2gip8HjxY3WGkh0nAFdkghAwu34q/wN4Kjoy33tW1J3aXNm8Dx7YxM77JPkUFyNAGTl4oLAh2lepiARSp0UQ+w/nRNNFWKMjd9QKrardoRKiRfYO7fTB/AbzsRbPvTBfL+1rSsVdISaFr2t+jzER6vGgC1UO5fjYvJEd/aqmexpkmZEOUlZxdbzLPJiCWdTyxanWT6rT2AnOkJLvzJmiQlDFnC/aDTS19YwrNIot5GSKQQNeeHR0euyMVHPG2MiVrR8nQLwRnEbKCrc4V0tYXR6RNX2mswjJJq0AF9JXGcjNwpaXjx7Z6g1OSzyMyp88xNhkxPmHbyE23juzZeikrYCtk3eDtQgNZcV8I6NKp7w926WQfX6G0zubmAm1AxBaE10d/2HUWE13kWkywtsrhsY29EcabhOwlNn+1NiRbBEpgq+k6h1hV7voqI1EU+tI6zTY0Ay/MDA6PbTsFVi4OY43INcAkaBW3yih5UxDeyaGp+MhQYk32/kQWFRiicbqgCGGWMe/RLQM8TTs5Ub+rM5Vl8m2PJUahLNZnlWDgZpW3eb1YqJwMDRXrqDL4Ht47poE+rYRR5Nrsh0mgH9oGHtwkVdyeeVxx2Lf2yGdmyz77yfRzOCSgSNCcLCK+ym4UYh4mxQrkDwXIz+/TLAexoVgp2MM5rkQC7r8CiyDmNTkrQnQEuXOHvQjukwPuJiLrTA34DLsJwBezKsxJ05Y0ZljJ9ne4wllwiUtdt9cMPuC6UoH3WFTjCqESYKFhtStcvEnPtvZY1KLIdkHZtilLLzAUjDLgp9qTpMODW87DsqDAJ8VSNNk0Rki5jZcHtuKkCptG/ECTzAqTlC7GIaFw5ZUcrH7A6slNNo1Ky+dkylXSfcIOSklkcocB4Ya5JMpvUyKJxaKwAhtNqwVgL+yXKRM1IxiJVlzHYqtHAfwj96FkfutIAZbQx5l97y4TPfkRlnAZSWZIKsPhcWbDwAQvb0u4f532hnw10HtD2dEzM7ZH846LJptnpeciJf9g+qM85yFNvhsqPCRYeys8JMx9Cg9nV1d4SAJb8hB7ceQheHvCwzzZkCs8zDifKjzM9ST9I3m4i9weG1kkKmWplQkIAZ+To7kVng9Xd78wG9+K/cUX+Vlw6lUIWvD7jMLRMmu8FUcUmRCRoQV/0IAULbPcpHC0KI03krSIxKgwdHpxhaIFuwTJ0qKUaaDp6PEJR+tsL6KQtOJWk3fFbYpL2ngieVrlsgMiFLcLVflGnyFJVFk1lfFVXn7GPsu0M+ntj/7DrW9Pz8+X333x/5c/9NoeXX4kFj7/Bw==);strokeColor=none;spacingTop=-3;spacingBottom=-3;spacingLeft=-3;spacingRight=-3;points=[];labelBackgroundColor=none;rounded=0;html=1;whiteSpace=wrap;" parent="u_CYlae2fHao4hrpNgwN-6" vertex="1">
          <mxGeometry x="0.47156726768377255" y="0.45205479452054803" width="37.725381414701815" height="31.19178082191781" as="geometry" />
        </mxCell>
        <mxCell id="_eA7hQRQa1pNzd35qElG-80" value="&lt;div style=&quot;font-size: 1px&quot;&gt;&lt;p style=&quot;align:center;margin-left:0;margin-right:0;margin-top:0px;margin-bottom:0px;text-indent:0;valign:middle;direction:ltr;&quot;&gt;&lt;font style=&quot;font-size:16.93px;font-family:Oracle Sans;color:#000000;direction:ltr;letter-spacing:0px;line-height:120%;opacity:1&quot;&gt;OCI GG for Oracle&lt;br&gt;&lt;/font&gt;&lt;/p&gt;&lt;/div&gt;" style="verticalAlign=middle;align=center;vsdxID=25;fillColor=none;gradientColor=none;shape=stencil(nZBLDoAgDERP0z3SIyjew0SURgSD+Lu9kMZoXLhwN9O+tukAlrNpJg1SzDH4QW/URgNYgZTkjA4UkwJUgGXng+6DX1zLfmoymdXo17xh5zmRJ6Q42BWCfc2oJfdAr+Yv+AP9Cb7OJ3H/2JG1HNGz/84klThPVCc=);strokeColor=none;spacingTop=-3;spacingBottom=-3;spacingLeft=-3;spacingRight=-3;points=[];labelBackgroundColor=none;rounded=0;html=1;whiteSpace=wrap;" parent="_eA7hQRQa1pNzd35qElG-85" vertex="1">
          <mxGeometry y="242.00000000000003" width="99.02912621359224" height="22" as="geometry" />
        </mxCell>
        <mxCell id="_eA7hQRQa1pNzd35qElG-86" value="" style="edgeStyle=orthogonalEdgeStyle;rounded=0;orthogonalLoop=1;jettySize=auto;html=1;flowAnimation=1;entryX=0.025;entryY=0.667;entryDx=0;entryDy=0;entryPerimeter=0;exitX=0.938;exitY=1.087;exitDx=0;exitDy=0;exitPerimeter=0;" parent="1" edge="1">
          <mxGeometry relative="1" as="geometry">
            <mxPoint x="534.04" y="364.94671129707103" as="sourcePoint" />
            <mxPoint x="638.9320388349511" y="364.222" as="targetPoint" />
          </mxGeometry>
        </mxCell>
        <mxCell id="YdG8qfdtloJJfCclqbba-1" value="Distribution Path" style="edgeLabel;html=1;align=center;verticalAlign=bottom;resizable=0;points=[];labelBackgroundColor=none;labelPosition=center;verticalLabelPosition=top;overflow=visible;" parent="_eA7hQRQa1pNzd35qElG-86" vertex="1" connectable="0">
          <mxGeometry x="-0.16" y="-2" relative="1" as="geometry">
            <mxPoint x="7" y="-4" as="offset" />
          </mxGeometry>
        </mxCell>
        <mxCell id="PbnHIeDGXbD249EP7isg-10" value="" style="endArrow=open;html=1;startArrow=none;startFill=0;endFill=0;rounded=0;fontFamily=Oracle Sans;fontSize=10.5;fontColor=#312D2A;labelBackgroundColor=none;strokeColor=#312D2A;exitX=0.5;exitY=0;exitDx=0;exitDy=0;edgeStyle=orthogonalEdgeStyle;dashed=1;endSize=6;elbow=vertical;flowAnimation=1;" parent="1" edge="1">
          <mxGeometry width="50" height="50" as="geometry">
            <mxPoint x="605" y="74.27000000000044" as="sourcePoint" />
            <mxPoint x="605" y="110" as="targetPoint" />
          </mxGeometry>
        </mxCell>
        <mxCell id="PbnHIeDGXbD249EP7isg-12" value="" style="edgeStyle=orthogonalEdgeStyle;rounded=0;orthogonalLoop=1;jettySize=auto;html=1;flowAnimation=1;exitX=0.888;exitY=-0.25;exitDx=0;exitDy=0;exitPerimeter=0;" parent="1" edge="1">
          <mxGeometry relative="1" as="geometry">
            <mxPoint x="364.99999999999994" y="364" as="sourcePoint" />
            <mxPoint x="450" y="364" as="targetPoint" />
          </mxGeometry>
        </mxCell>
        <mxCell id="PbnHIeDGXbD249EP7isg-13" value="" style="edgeStyle=orthogonalEdgeStyle;rounded=0;orthogonalLoop=1;jettySize=auto;html=1;entryX=-0.063;entryY=0.562;entryDx=0;entryDy=0;entryPerimeter=0;flowAnimation=1;exitX=0.888;exitY=-0.25;exitDx=0;exitDy=0;exitPerimeter=0;" parent="1" edge="1">
          <mxGeometry relative="1" as="geometry">
            <mxPoint x="710" y="365" as="sourcePoint" />
            <mxPoint x="822.6680000000001" y="365.02600000000007" as="targetPoint" />
          </mxGeometry>
        </mxCell>
        <mxCell id="PbnHIeDGXbD249EP7isg-16" value="" style="endArrow=classic;startArrow=classic;html=1;rounded=0;entryX=0.113;entryY=0.2;entryDx=0;entryDy=0;entryPerimeter=0;" parent="1" edge="1">
          <mxGeometry width="50" height="50" relative="1" as="geometry">
            <mxPoint x="168" y="347" as="sourcePoint" />
            <mxPoint x="287.03999999999996" y="347" as="targetPoint" />
          </mxGeometry>
        </mxCell>
        <mxCell id="YdG8qfdtloJJfCclqbba-14" value="Port 3306" style="edgeLabel;html=1;align=center;verticalAlign=bottom;resizable=0;points=[];labelBackgroundColor=none;labelPosition=center;verticalLabelPosition=top;" parent="PbnHIeDGXbD249EP7isg-16" vertex="1" connectable="0">
          <mxGeometry x="-0.038" y="2" relative="1" as="geometry">
            <mxPoint x="1" as="offset" />
          </mxGeometry>
        </mxCell>
        <mxCell id="YdG8qfdtloJJfCclqbba-2" value="" style="group;strokeColor=none;" parent="1" vertex="1" connectable="0">
          <mxGeometry x="452" y="186" width="102" height="264" as="geometry" />
        </mxCell>
        <mxCell id="_eA7hQRQa1pNzd35qElG-12" value="&lt;b&gt;&lt;font color=&quot;#ffffff&quot;&gt;3&lt;/font&gt;&lt;/b&gt;" style="rounded=1;whiteSpace=wrap;html=1;fillColor=#330000;strokeColor=#36393d;fontFamily=Oracle Sans;labelBackgroundColor=none;align=center;arcSize=50;" parent="YdG8qfdtloJJfCclqbba-2" vertex="1">
          <mxGeometry x="32" y="73.32217573221757" width="40" height="40" as="geometry" />
        </mxCell>
        <mxCell id="_eA7hQRQa1pNzd35qElG-15" value="10.1.1.12&lt;br&gt;Ingress IP -&lt;br&gt;&lt;div&gt;10.1.1.22&lt;/div&gt;&lt;div&gt;10.1.1.23&lt;/div&gt;" style="text;html=1;strokeColor=default;fillColor=#330000;align=center;verticalAlign=middle;whiteSpace=wrap;rounded=0;fontColor=#ffffff;" parent="YdG8qfdtloJJfCclqbba-2" vertex="1">
          <mxGeometry x="2" width="100" height="66.27615062761507" as="geometry" />
        </mxCell>
        <mxCell id="_eA7hQRQa1pNzd35qElG-16" style="vsdxID=14;fillColor=none;gradientColor=none;strokeColor=none;spacingTop=-3;spacingBottom=-3;spacingLeft=-3;spacingRight=-3;points=[];labelBackgroundColor=none;rounded=0;html=1;whiteSpace=wrap;" parent="YdG8qfdtloJJfCclqbba-2" vertex="1">
          <mxGeometry x="5" y="132.55230125523013" width="84" height="70.69456066945607" as="geometry" />
        </mxCell>
        <mxCell id="_eA7hQRQa1pNzd35qElG-17" style="vsdxID=15;fillColor=none;gradientColor=none;strokeColor=none;spacingTop=-3;spacingBottom=-3;spacingLeft=-3;spacingRight=-3;points=[];labelBackgroundColor=none;rounded=0;html=1;whiteSpace=wrap;" parent="_eA7hQRQa1pNzd35qElG-16" vertex="1">
          <mxGeometry width="84" height="70.69456066945607" as="geometry" />
        </mxCell>
        <mxCell id="_eA7hQRQa1pNzd35qElG-18" style="vsdxID=16;fillColor=#FFFFFF;gradientColor=none;shape=stencil(nVrbctw2DP0avWJ4vzyn6X9kGqfxNI0zTtI6f19svSS4B6K48pujAIKAAx5cuJt/9/3zh28PmzPffzw//fXw7+PHH583/9vm3OPXzw/Pjz/4r82/3/y7T0/PD38+P/38+vH1398+XCQvf/399M/lDS+verWScRctZ371J6n8/+T3V4U/fj6/atirQCLvryoWdcyLuz6KZO1Vqj0q5OtVyl8fBbLtXe1RpuAP7XsKYD5RRvOebATziUIC845SBvNdambekS3Kfn9zM2YpVWW/f6XvUu6s94acA/NDXK+2SqGM7g8YXY0VRtKC/RX6xVNC+xr94jpGc/CLpXDW/WK6rQP0WSqgfY1+rlTjdg591mmvOUA/F6pZ2Uf0WSqUk/7nTNFuK/hzIoP+a/izp1i3c/BnQ3VboZ/k0QH8iXP0pPcpS1zn6LNU9tsKfZZyYTuHfkoUlXkEn4VcUuYR/BQpn3Y/UMboa/CTJ++2FfjJUMHkW4EfC9k1+jHp5Nfox0gVk2/lP+s4ffgQfpYyWHk0/DFQRPJZwR+9jr/Gn6WiJh/En6VMOuu/I4Pkp/GPTJHov8Y/MJaYfyv8QxTCmuMfAjmsPRr/4MmdJb/gJLJz/FlqffqDpYKlbwU/66jwa/gDHyxtH+FnKY/ss3LfV/KY/hp+nwkbD42+ZySx9K3Q944ymtfoe6uzX6PvDcWz2e+qBHaOPktFrD0afpY6i74rcqzm6LOURfLV6LtM6Wzb6xIlLD4afRelO53D7xhKzL4V/M6QQfsaflt09mv4baaC6bfyn3Wsjj/CbxMV3Xkh/CzlkXxW+NtIZU3+1svBOrDP8cf8W/pvBbM5/pbHA/R/p/OjgrVvWftlUDs4/FTXM5+jejr3+5h0gDxV3XWpwFNYzXtfHr8O87G5Sr9BmIeQq+u7wlbmuIm8ImCJrkUVqf6CUxuGbB9ye/MnR6nNYjwJhyPjSU6sTIIOMMhkoPZcxkXMvQhHr8vMZj6ZUq16a7Mj9cTpz2tYC4Pd6zafJwN5P8az5R7nFTpuNOsxgMC6S8yZqRLa16CPfDpHfeTmu/2vEtg57iwFRUfjzvXDQcO/Ap5VclHGseJaxXg70LNUTid9Z9oxmHiuz1bdvlPtLse+IunpiisI7fLDqHE9OYGqu5d9TgnzYFfCXNhLTzGRV2lTVK8mOmPoMvSKPvWY99AxmpC20uTth27Q6G2ROVIIUrXvUyhy4N6qUBobzBtOpFzv+15r6Hex4bpMIOE2hqxogPFDatuvWblJLYMEw0AJxx0nM7HrSLfRuk+7zFlQeEVq1nFkWc9Z/WbZdhToOfgrPfifslq1sf/p0H4qatPKA7BB+0W+soWEUYIcTlUWkjKBhoOE4TnK3CbMWuE253kQPHaQNZBeL3NZvHXQB8ru1sHLccEEqzL3COXGwwRnHUxw19eLwzjtgSO42lQwvzNO276DvX+ct6HfGrwImBHcr32/9TKcJWT3toGdWS89SZp17p6gr+Bjg9Nk6ov9frasWuN2odnRsoqeh/c2407tEXeMO4r52PhtmrJCP693fqxXW5+djw3Sp/WPvQ4VRzu/2NhrTkIOYLJ9fukcMOxS3U197ed/2Nz6UWK+Zrew6Da3Nrm+F0CHmRB77SwL03Yseht2/w0Dt7cO4p2LbM+lCYamZ7wG8SB0//0OD8uNh4frJbzds9Kk9Pslr4oOH/BwSAqlyt2BtMBt8TPc7lXItpE5m/2ios+U524m3dvDUTj2tyS+IP3xOmqioDy0vYb/Ei5ykNIldXd6WWWKx/tToax+oLrU/tRroPM8J55jS7v9cAz5/kYFDo9Z3cBV2ANx0mbIkPFuz2kpuYHsLYZHqTl+O2sAtM+5v7MHwKmkhL1FQD2exkPvLg/G8bi3CWjtZDcfVfEQqZn5tLcN6G+ep6+eSPm0GazaS++L/F7C6rg2W3VvH4DojyxyL/o1qOv3HfRrFIzm6Nek1oBL//nER70Hwh8/5J11AIJfy94+4GhmrVUq0xsVGp/MxOG3MCfF1RL1tAL/Ib/U+fT45cvrD33G/8df9vCj118F+ff/AQ==);strokeColor=none;spacingTop=-3;spacingBottom=-3;spacingLeft=-3;spacingRight=-3;points=[];labelBackgroundColor=none;rounded=0;html=1;whiteSpace=wrap;" parent="_eA7hQRQa1pNzd35qElG-17" vertex="1">
          <mxGeometry x="1" y="1.104602510460251" width="82" height="68.48535564853556" as="geometry" />
        </mxCell>
        <mxCell id="_eA7hQRQa1pNzd35qElG-19" style="vsdxID=17;fillColor=#FFFFFF;gradientColor=none;shape=stencil(pVzLkhQ3EPyavSpab+mM8X8QZjEbxiyxgI3/3r2e7pamMlulxjc8Lm2NKlWvVGke/JuvH999eXxwy9dvL89/PP799P7bxwf/y4NzT58/Pr48fVv/9eDfPvg3H55fHn9/ef7++f3tv7+8e5V8/defz3+9/oUft3UpmOheV7nln9sn3lj/3we/3uR/+/5yW2C3FdW4uq2wYsnyw90+yd7EvAltHyUT0ybkN6Fost2Eto+sM7aOtOe0CxzarTchCPXZ2HCv3gbjs9BfjFQfTBqrr81cu/p4r7sspkahO5oa7nUX177hrjyZkkfKSzYl3St3tll1119NTvf6vTUuCv3JpHyv31ezpF7/p6fP3UkpneVvn4TFeHu+YAXBl/ECMG82SZh3XVMR3SJ2GCyeLkA3OBOH9u2Q2z6KneUcWm4/2otJ/l57TSb4e/VNipqrdnv/2QXy+GoLVje1boBgNKH8vwVFsTnx52JNKao/FzzTK+JRnOkmdY75EYMs/uWmrFqhf99Y79KHefePtGC6Cngv1HuTpXpvilSP4Wz96HB8L6XO9EfcfveX25E/QGr6F+Fwq1S1V/ePIa0cKaDpL7h/hL927jsLf/VGR7+GlvFO0QfV2tYrMT1CX6npJfQ1QzYB6CEWHCsOKOIl+bJ/2ckFVctvMvi2Bc0c6AmrHXe3O8zhZeiv41Pg4BTW7ny7Q+rIZ+3rZHkObAPMS6kz/YtxQegnUQATeyVeuGbxeGXzpUgX6C3aIoAMgD06u26pWK1oiOER9NUlZcYloBd0f2Xjiwp5X+6dQ07yjgo5qXQI5CTvEcgz1hrjnfdpumEOZVbAzSPmufOKWdgzOe8Ie+pO8jnsqbQMOrX5RCwfjj0cyonlEfmUrjt7ijPOnsKMs69S15w9EYdDb0/E4RD52DnHLPKx6wnOkY+Y9AjysTvFU5uPnU3PfT5itifIR0wxGvCxa/nOgY/E9gh8vBrsogx2iHrAKougHrDKU1EPxPCIekDOgKAeuhM8tfPQ1e7nqK9SRww9R31tRuHIabB7pAwI7J4EO4TdXw12nvgbRnqfcPOIvO8cYxZ5T848Iu+RMiHI+y5rTG3eEctjpHfE8oi8AzZBBd7lGX93SCcQ4F286O+OuBy6vCMuh8A7i/WFBrxFlpAAb5tVz3G3GSuM4d5tZ9Jzj7ckySDuVlpdQ912Hco56pYYHlG3V2OdJbEOUbfE3Ugx3/YxCzqxO0nuLYQOojxQGUqcQ6Mj4h3XMnB0PGwS8vtG10mWs8QhLYryV/++RmoECHuE1OjYh1NOA/sKldXAmFdIW9Uq8AGdBedPZbMqxDxCZtkujZyTWZaQSdreifd1Nt3VOyCvCZclw46KuSWGR9BtARdA1C0yCOrWnSgvCehuAccnqJNco8Leu8g57o4YniRajxyyuvmuC+uIDSv0UxbxoDqPRA/Ab2Q4Dw67+OZYh9q5UHJVPo1JRZRfzoU7czDhiYJiW9BbWBIWvmCAFxb241ssYWE3ZEm7KvHnxKty/+iArPPkpFc4aWt7A+U8Zrq1A7y/3YE022WEvbHEdiIgUXpA1fpX2UiN4Y8FLkok/AkdLOLFK+GLQh7fUfVE1J5icdcJ6dlAuDpsYrRrybwAW9fD6Q4pmdADuSJb4MpducXt7TW3wF68J+5pmakFfUc9t8DJi8/LC9ZAsg0ZnHe6klnzkPw9Fr+ONNoVql8XxN081Hx4j+lwLoKwHA5zULAwG+COW/gz/ZiD1wZL1h8BI7SF+iNkuEe1qvoCDYA9IG41L5Z+R8BtoQl3r0XlSNqu9nd35eT6CJXjHbJULpynO3aTX5b0SvhlCf2MJGSEWKZ5SUTyXRLf2Jx240WN95bUsyzSRFBSx5y0sahhdkoYokVyikixoeNFLD6TUvdHHCBIMBLUkdUOZDweJC+Ezk6eHD8R8hMEOPmuOGpBvix2CZrygM0hKg/AR2WMjtgVZ1FFk+AoT70V5yMs93rJuJqvwL9azdk9Vs3yZBLm2eE8k8c7TifHk0A5cpDumB9q+hFwV5pUq9Jl4eJV5h290uNwice+dP2IkM+yYF0j4qgZ6ldsC4bNAJFXui3oHhT5eEka3Pv6gnHzgzWWNh5IGn1P6E0kOSJxY3CmJjTX3Cryy88Lp3F1KoTHQ3/3wsr8nhCWyUdjExR5APzygqKFHEYFdcHMoZQ7pGSn6HBEt2h1qLNAgRMazuEdL+EAGRWm0YDOsnFKoh+Gyoh+DLmq/S1euWWsLvHaJ2PElxRo1sgJi+VF/2cb/SvDfcY6HEcb1K0jScBGCSHXEsMT5lsdY23Z+Vx5gTsnqvwq5gmaHwJ5hM6LQI6MFIA+jFdXhMGkQ2HZfg+Fj5Q0IaxcLglheQGnBGT1wg7rUnJh5+C2hg0HwPW4QqohZ14L8BV4SWUXwSSis+wi57c0MkS3P9quZ+GqsPt2uyIyEKHs2k5NwljSfaPJ4WpavZMnk2dEOboqVQ7JQd07BgoCucUoBZiTzKiA3pd7Z6D3MxbnoDsy/6Rs3E0NvfVSg1kMJMd0L8che65f3o8x/WQCSds+GQVB3MkMEODu/VVn9ziSALh77BcI7qT7VkPc1JhrIKQkGbsjk2fq2B1ywly/DLJMPxlr17ZPZr8Q94AT/YB7wMdqCu6BvNOTuEesggnuEbsAbeNxKq3GqbxKaDl9yBYetTD1wAky7UhIqpvH6ROW2HH4ClCPOIegoJ6QhwfUE5m8QtQJwaxtPOmvV5JML2jxhJy6PnZFxvmZchy8ovph0FDb+FReTxN5PV/O63kir+epvJ6v5/WMd9LE7pmkF/KMgrwhUZ9R4KUX1z8x1p2vp7dC0hviTp5OYg2P434K7gXvkQD3gmMQBPdKpoqVjdepvFqn8ip5tKi/k0OSh+kn6Y3oJ7ed2vZJekPcyaNJwJ08WxS4izeFcPF/UVxpoHFBkRea6oLxK0qUV55p4oIxb0HeaapvYDF+M+YKXwCyN7hkZFQlzjB9EQKJvPwkDBJxJ5U3xAeQhDYseH9LaMOCT5LU7Rfsyhl3h105I++ujo0W5COYcuQjmHKkQ/TNQ6lKoC84tUKgJxlUhZ5kcIJ9nqGr+x+lmCMv+xWtUhlFG/z9hvGCI+D+pPh4OlSKK8OhID6+5JLiygUa2kZb0FWFJwtI0SF5nP5icT+tOGccKk63Yz8fxndz/U81zC2AVKAvEAcyjJNNIbOBIwNWZAQ8/rwLeedua3u2tRsQGGerzcgVwvzinPbxLHzX3f0cSXNsSYJZq8yfZCThLP54T8anEZZMceKLKKtF2oxphjzMEHsX9RrpigfllzJDdT9w5b25dLjJDOh4AZkyHS8gc6zKAt3fJlrngKgkrD1CgNqDvEUP8iaKPAeHcTyc0Il4KCOZycKIFtWhLJxeiziV5ZGZ7r/lTtDi4Qza9JzHWcgQYWzUI2UUyHgWBCTtCKtHfv1H+922D0+fPt1+9q3///J33taPbr8R59/+Cw==);strokeColor=none;spacingTop=-3;spacingBottom=-3;spacingLeft=-3;spacingRight=-3;points=[];labelBackgroundColor=none;rounded=0;html=1;whiteSpace=wrap;" parent="_eA7hQRQa1pNzd35qElG-17" vertex="1">
          <mxGeometry width="84" height="70.69456066945607" as="geometry" />
        </mxCell>
        <mxCell id="_eA7hQRQa1pNzd35qElG-20" style="vsdxID=18;fillColor=none;gradientColor=none;strokeColor=none;spacingTop=-3;spacingBottom=-3;spacingLeft=-3;spacingRight=-3;points=[];labelBackgroundColor=none;rounded=0;html=1;whiteSpace=wrap;" parent="_eA7hQRQa1pNzd35qElG-16" vertex="1">
          <mxGeometry x="2" y="2.209205020920502" width="80" height="66.27615062761507" as="geometry" />
        </mxCell>
        <mxCell id="_eA7hQRQa1pNzd35qElG-21" style="vsdxID=19;fillColor=#2c5967;gradientColor=none;shape=stencil(jZLZEsIgDEW/htdMSIptn13+w9FqGWvr0Lr9va1QBVzfwuVeOIQInrbl8lAIwrYzza4463VXCp4JIl2XhdFdXwmeC55uGlNsTXOs13Z9WA7Oodo3p+GEi81JxCFDeLXrCUE2uSsLa6907dmVhCT9Hlgdjb1AWgMzZOQiMs7ghRxHDnJ0OYkToNy5+NXlJPwMG74Mv0FiCKi8qx0NMSgOAR+9G/H87nDoeQuYK1B5ABnZY0w/MEopyCRE7SVMQ9RMQSqjXj5+nv/6+p+T0hfPKdvoqrJD6u/HU9lLdqJ5fgM=);strokeColor=none;spacingTop=-3;spacingBottom=-3;spacingLeft=-3;spacingRight=-3;points=[];labelBackgroundColor=none;rounded=0;html=1;whiteSpace=wrap;" parent="_eA7hQRQa1pNzd35qElG-20" vertex="1">
          <mxGeometry x="42" y="17.673640167364017" width="13" height="7.7322175732217575" as="geometry" />
        </mxCell>
        <mxCell id="_eA7hQRQa1pNzd35qElG-22" style="vsdxID=20;fillColor=#2c5967;gradientColor=none;shape=stencil(lZdLctswDIZP4y2GBMDXOk3ukWmc2lPXzjhO69y+UCVSJBTK7s5hSH4E8OOhDT28757fths075fz6ef2z/7lstvQtw3i/rjbnvcX+bWhxw09vJ7O2x/n08fxZfz77XnYOfz6dfo93HAdzxGDoeEUms9xJUZI8d/K03jgsD9WBxzEuL7/+8d5JNhxQwDL04m8EiHacemK45I1YPK901IwQNPBK027GMK0aVrxDtCt0W0EE1q8txB9i0cDNrR45yBRi0cLxrZ8jkBreDkSXYtnAz4qPAMpPBEkRY9gXUsnC+TX8GSyewoeE3hlvVyTTc14rEJES6mQvqvHDxCx5cuTnAo+W7Aq+KKaFFo+kw4+Yn5RB88BjG/xtgim4J0F9C3eSqSxxbtK+aR3dfgeZ8Ps8uYJ5gN4p/jitxYv2eDSf3o/IKDSPnlgbvFBPGJbfC3RzI/glPsZs2o7/LhUnwQRlflRrlHmM0NS7o9L9bEHb9f4yS7cX2f1BEuzrrJHZEWlfjIQfIu/USjFeJ/vvbNSRltSI783VZ7o+yulUhqKvxCCipc1pv/cygv37GZw3GxPt4KR75u7gANWpg2XcGsaf2GaB6diMcu651oGVlKsKiwW/+s6OFfYORMSsOoCc03rZWIAUpH9og4HD0ZFduieKhPqfM2VoAi2x7fA1PITkK5DDJhavLlZA80a1qmQmxYoaZ6NK123jAGl7aSSAZ/zGMCr7qY4V9QsPw9J1X0RTVJtR6YFr2YOaXtRJ1Kuzj18paM+XlpsUu5eln2sJJGXylzUmzmqVpGXlrkmL4qq7IupQeWatMuky/7NTHdzcShCKGNQ4S/V5ghIDT0WQaW6KxLpiQ5Y9Xxpw0GNHPIeVWjCcuIwLVmKnmn6XVsT825dkr/cXCu0c2ChqkquOYdDsbWI2i3cmqqe25/lbrSzOz4U5Mf8mfG6PxzGr5T6//qzRJbGTxp6/As=);strokeColor=none;spacingTop=-3;spacingBottom=-3;spacingLeft=-3;spacingRight=-3;points=[];labelBackgroundColor=none;rounded=0;html=1;whiteSpace=wrap;" parent="_eA7hQRQa1pNzd35qElG-20" vertex="1">
          <mxGeometry x="25" width="47" height="25.405857740585773" as="geometry" />
        </mxCell>
        <mxCell id="_eA7hQRQa1pNzd35qElG-23" style="vsdxID=21;fillColor=#2c5967;gradientColor=none;shape=stencil(pZnbchMxDIafZm89tuXjNYf3YGihGUrLpAXK25Owya6jXxvZ4S7d2quVP1nHid69PHz6cT95+/K6f/52/3t39/ow0fvJ+93Tw/1+93r4NdGHid59ed7ff90//3y6m//+8em48vjr+/Ov4xve5n32uMPbP/Nf3ppE/558nBc/7p6axZ5Mjv+3ISWTUrvh88/9/D1u2eLPW06PUjF+3mPf/GmVX198epSdCXRaRcuq5V2nR5mMdVflO8PE52xyYeIdk10NZSbbMsHLkg3BrjKxzTtPYlwxXOnm206CXF6Ppldpl9Y950OvpgQmPnLxiUyoTDzBma+rtsQ7Jrt57Vm2ZZKbzzuJqYNKFzA0gXRGO0PWCU9cox3hwAXecf3Cbd7BjNImbuECaw+iBdbMxIHzpTO4dDUlGOevGsXlN67rV5vg5lgOp+ovPxE9QLUmlOvHw+2iHkCw8wlwPs5abhVM8nnFpj1yk1hfuXEL2g87C3GD6joHcks2xASjPbRAtu++jjnAcUuoA9xDAXbjoLq1T/wyCLAdegGgzS+DArs1zC3azUU98yaTIpMbxi0cDhx4e3D1Am60cJX2wZ/qsH3Rr3UBl6trXcHQBdZkddZEQ6wp6qwpdbCmfIM3K5PCmiCrEFhTHWYdbAfrwDIpgXVw46yD72EdSGcd0hDrgFkFsA61g3W046wjj5nAOmLMRNbRD7OOkFMIrGNQWccwzjpiLiWwjklnHVkKqbBOTmedfAfrhHFT1TqFSWGdQgfrBCFTZZ0gZAqsU1ZZJyxUdK0xSRJYp6qzPn9NJ+uMaQqwzhA0BdY5jbPOeVJY59zBOpdh1rl2sC4sKxVYFzvOumBiKrAu2AkA1mUwEc866wJBU2Bd6jjraieFdbUdrKsbZl19B+tKk8a60jjrGnpY16izrmW6xvqyJF0WL9Z+vWqv7CIKNXuFRE6o2VtFeqt24YiExljFlEYo3NE61B5Na8vbbZrCUnehTVMwidVbNRByDm7UcdnpUrbQqOGOQAVeWJQVgBeo0gTgrZfqVrqnT1O6GjVF69SA3y8gG2Fj0Fm7u22845qvaoiXst0xPzkWy357w+IDblt+xT/cuFDpiiuLLxv0uckNO402Y29BsNvssLWJhptZO0m12szil2CzbRK3bbNJMBzNbJPgI9Fu23R7208lqIJU3VPP7CDps4M0OjuI+uwg9swO4g2zgyjMDjAuRQzdAvOmjOxFHrEIE5BHfXwQMFlTdQ/gJoW4FFhMFICHPI0BX7oS28ADVCPS8ADrbV3pnrgUuuJSGI1LlHsuODbTBN50Qw5G+vUmqLoF3oQFv4qcurw6dXl1GvXqZPGWCUOjOmnEPbN0ZWa0LO8KrBgrhzcAhuENhx/rsP3L7vFxntW3/+fD+cOjebBPH/4C);strokeColor=none;spacingTop=-3;spacingBottom=-3;spacingLeft=-3;spacingRight=-3;points=[];labelBackgroundColor=none;rounded=0;html=1;whiteSpace=wrap;" parent="_eA7hQRQa1pNzd35qElG-20" vertex="1">
          <mxGeometry y="46.39330543933055" width="80" height="13.255230125523013" as="geometry" />
        </mxCell>
        <mxCell id="_eA7hQRQa1pNzd35qElG-24" style="vsdxID=22;fillColor=#2c5967;gradientColor=none;shape=stencil(nVfRdpswDP0aXnVsCdnmuev+o2dNl5xlSU+abu3fzxkGbAlM6BsIiWtdSVfQ0MPb/ul116B5u17Ov3Z/D8/XfUPfGsTDab+7HK7xqqHHhh5ezpfdz8v5/fTc378+3TxvV7/Pf25v+OjjugDItyg0n70lBOi6/5bvfcCP90sfYZODBz+EWBljPjCZMLmke0fALrlQb/Ip5DPdUweBasjeT4dNJnSAvkT2bjpfMtkZ8MwrmRi6Av54OGVM5QG9xVScI+CXfT24Og1TQLJYHokZWUDFQnyxRcGCnRgdqhBrGarwRtW/JUAU+KYEbwOQLcFdp8AZgdsauGPVAr4FDiU4dyV4cNC2JTgbENiT0wJ2iyVw/tYERKxY9wytYJ2sxOYWsIqNQeVNcRrE0A2jMPa9g45L7NEl3UvgsjdH79UuRtowHtp5redjhMrfArkyf+sV/VGarCg9lgxMHrNnNcU5NzlbU+FgePgl55VjzKr65oByDWwOKBdNUPK5gqD1dnNA24HlqpTphcIEJKbKh7KleGzWSUeD2ibOQvA18GCkjEc1tnKNkmjnrOlJM0t3MXVHLcrieSy8uQPCKq8oU+MIKUTai9Ry5gdaSW8IA4GXU8sj7uLC4SoXagfprglai+QCjGuThBCNtNICryK3lSqUNcMgE4sdaaplI92R2aGHFTd9fSz3JPmtPSk2zTZvtlAdtbheZD8yGLk85ZgHaEOZFs6OuanU7I4qiLLZmYC6kKCetkyhhuyywVgeuHwxDx8IUkTXVvlK6ex6gEzQqvLNzBvKecvElDS3SyotsluvRryYfq5eDsdj/2+WP5c/Y9HU/8jR4z8=);strokeColor=none;spacingTop=-3;spacingBottom=-3;spacingLeft=-3;spacingRight=-3;points=[];labelBackgroundColor=none;rounded=0;html=1;whiteSpace=wrap;" parent="_eA7hQRQa1pNzd35qElG-20" vertex="1">
          <mxGeometry y="16.569037656903767" width="80" height="25.405857740585773" as="geometry" />
        </mxCell>
        <mxCell id="_eA7hQRQa1pNzd35qElG-25" style="vsdxID=23;fillColor=#2c5967;gradientColor=none;shape=stencil(lZnbdtwqDIafxrdaIEDAdQ/v0dWmO7N2mnRN09Pbb2WPDYwAA3cTR7YsPvRLwpt59+Px0/eHDdWP1+vLvw+/L19eHzfzfkO8PD8+XC+v/GszHzbz7uvL9eGf68vP5y+3v79/erN8+/Xt5dfbE/7c7osOtHu7C9Xf2xX1/18fb8aff15v1no3Rwi0m+vSXv3B3UKDC7vFfkl7MHG3MruVgoC71X4JCfSpawXK3bs2Fny4dx8iOHvv3hqwwn0I4IT7bNXxHzwI9+WDD/cEMd67NxE0CvcEaNaiDw7w3rs2aT2SdwtarL0SnjWEeO/5lLfn5YzbGW8fwOA24u158dxaxJ7AC9cN3myFIuQGb8+rR9sab28zpD5wb8CL8BvAPUKkxfA1RLuNiHsFUbgXxCkAia1+SpwIjAhbECeXE7FPnHj54lrIZHJW9omzldJD4qRzIs4SJ15MPyTOVpa2EXEXgRbDd0xKuG8Qdx5IrL4g7hwYsdlOiTt2cq7pTudU7BNnK7Wo6U7lvOwTtxG8CLlB3IacibPErYcxcDbSY023BHZR060Dq7cRcGvTSneAWwS1Iur89mE7422K8tjnbXzGMhmxKcpjnzdb2bGmG5fzcJY3O7NCVBvAjYFothFwttKLmm4Q9FjTjU6+OsAxQBB77RQ4v5c713QsCmSfONq0VrMhY1Ef+8TZCseajpgTcZY48mKOUxwV0FjTdYTF6DWDEqnWAM4rHYR3AVw7cCuSzk5QRC2Aa5X6Saxf7OjSczs526aCHdP2ECcKeNWoDlk7CGPURXE8EfPc9c6mNrhx7UYQsiIwqxPET5fnYmw7LPeY6Bh6evshV2Ytb8lbIotEbnWO7ZtyEITw+CSW3ZUxwndAIH3vu1jwtEFlI1ttiMOkNzDm3avlM3MWyF6ufLnDjwbExai1ripduZqHfwTR2JRcTNpIclgdA7d5DD4hXnfyDeRsJWf1cfhMS/hvUGd51EIJKuwszalJmuPOe1SmouTOmzKKDqPBnXelt4uBs7440dPxvHRsn+SfckL2wbNQKuF/CJ4VWDbzDfBsleTqJNcjmNX4jcr6eoCnNFYVLY6Rh0QSPPdXaRyaA88doZzfKvLctKI4H2qQ5wZY6dXIQyp0J+S52KBQugZ5y6so/A/JW10N7g3ybBVE/A3yPFHQYvhcatM5Qx88DzMk3FfgeZKKYtsNwPOAiLKvluB51HRCaxrgeYbFsBi5w5ymffBs5cZa74o+Yha8s9UZXQO8cyDCb3B3RQs1HX5RmPvgXd301RU+96Rz3AnlkWyFnUzOyj52KsrlbNzM2IyVnori2cdORbmcxU6+OopvYKcAZqz0xL3Sal/nVf5y0Ofui/mrx51d2TWl9w78SOl9UT375NkqrCq9D1Wz3yDvIyix8xrkg4JVoQ/F+UAfPFvRuJ3nFVnd98FUM16DeyhOWnrc+TbZXw24B15TUeMq7rGonX3ukUeiVaWLumpqG9wjj0hjoY8m5+Us+FicBPbBs5VoMBrco8sHHtPhE5BocBrgYz5S7XFPFzrU70fdbJ0ajfNjgBhyc98/B2ArK160cRBQRDP7mTJUB16NkwB+rj0/xS8/zI7PAwafcflH/gD89fL0dPt+XP5ffjDmS7ePzebDfw==);strokeColor=none;spacingTop=-3;spacingBottom=-3;spacingLeft=-3;spacingRight=-3;points=[];labelBackgroundColor=none;rounded=0;html=1;whiteSpace=wrap;" parent="_eA7hQRQa1pNzd35qElG-20" vertex="1">
          <mxGeometry y="60.75313807531381" width="79" height="4.418410041841004" as="geometry" />
        </mxCell>
        <mxCell id="_eA7hQRQa1pNzd35qElG-79" value="&lt;div style=&quot;font-size: 1px&quot;&gt;&lt;p style=&quot;align:center;margin-left:0;margin-right:0;margin-top:0px;margin-bottom:0px;text-indent:0;valign:middle;direction:ltr;&quot;&gt;&lt;font style=&quot;font-size:16.93px;font-family:Oracle Sans;color:#000000;direction:ltr;letter-spacing:0px;line-height:120%;opacity:1&quot;&gt;OCI GG for MySQL&lt;br&gt;&lt;/font&gt;&lt;/p&gt;&lt;/div&gt;" style="verticalAlign=middle;align=center;vsdxID=25;fillColor=none;gradientColor=none;shape=stencil(nZBLDoAgDERP0z3SIyjew0SURgSD+Lu9kMZoXLhwN9O+tukAlrNpJg1SzDH4QW/URgNYgZTkjA4UkwJUgGXng+6DX1zLfmoymdXo17xh5zmRJ6Q42BWCfc2oJfdAr+Yv+AP9Cb7OJ3H/2JG1HNGz/84klThPVCc=);strokeColor=none;spacingTop=-3;spacingBottom=-3;spacingLeft=-3;spacingRight=-3;points=[];labelBackgroundColor=none;rounded=0;html=1;whiteSpace=wrap;" parent="YdG8qfdtloJJfCclqbba-2" vertex="1">
          <mxGeometry y="241.907949790795" width="100" height="22.09205020920502" as="geometry" />
        </mxCell>
        <mxCell id="YdG8qfdtloJJfCclqbba-6" value="" style="edgeStyle=orthogonalEdgeStyle;rounded=0;orthogonalLoop=1;jettySize=auto;html=1;entryX=-0.063;entryY=0.562;entryDx=0;entryDy=0;entryPerimeter=0;flowAnimation=1;exitX=0.888;exitY=-0.25;exitDx=0;exitDy=0;exitPerimeter=0;" parent="1" edge="1">
          <mxGeometry relative="1" as="geometry">
            <mxPoint x="904" y="366" as="sourcePoint" />
            <mxPoint x="1016.6680000000001" y="366.02600000000007" as="targetPoint" />
          </mxGeometry>
        </mxCell>
        <mxCell id="YdG8qfdtloJJfCclqbba-7" value="" style="group;strokeColor=none;" parent="1" vertex="1" connectable="0">
          <mxGeometry x="811" y="186" width="102" height="264" as="geometry" />
        </mxCell>
        <mxCell id="MIznTLobwmh9sBrvItSn-131" value="&lt;b&gt;&lt;font color=&quot;#ffffff&quot;&gt;5&lt;/font&gt;&lt;/b&gt;" style="rounded=1;whiteSpace=wrap;html=1;fillColor=#330000;strokeColor=#36393d;fontFamily=Oracle Sans;labelBackgroundColor=none;align=center;arcSize=50;" parent="YdG8qfdtloJJfCclqbba-7" vertex="1">
          <mxGeometry x="34.68" y="73.28999999999999" width="40" height="40" as="geometry" />
        </mxCell>
        <mxCell id="LHHHwAimLA2ammTCAFYy-11" value="10.1.1.101" style="text;html=1;strokeColor=default;fillColor=#330000;align=center;verticalAlign=middle;whiteSpace=wrap;rounded=0;fontColor=#ffffff;" parent="YdG8qfdtloJJfCclqbba-7" vertex="1">
          <mxGeometry x="24.48" width="61.2" height="37.71428571428572" as="geometry" />
        </mxCell>
        <mxCell id="LHHHwAimLA2ammTCAFYy-32" style="vsdxID=14;fillColor=none;gradientColor=none;strokeColor=none;spacingTop=-3;spacingBottom=-3;spacingLeft=-3;spacingRight=-3;points=[];labelBackgroundColor=none;rounded=0;html=1;whiteSpace=wrap;" parent="YdG8qfdtloJJfCclqbba-7" vertex="1">
          <mxGeometry x="11.22" y="127.14285714285717" width="85.68" height="80.45714285714287" as="geometry" />
        </mxCell>
        <mxCell id="LHHHwAimLA2ammTCAFYy-33" style="vsdxID=15;fillColor=none;gradientColor=none;strokeColor=none;spacingTop=-3;spacingBottom=-3;spacingLeft=-3;spacingRight=-3;points=[];labelBackgroundColor=none;rounded=0;html=1;whiteSpace=wrap;" parent="LHHHwAimLA2ammTCAFYy-32" vertex="1">
          <mxGeometry width="85.68" height="80.45714285714287" as="geometry" />
        </mxCell>
        <mxCell id="LHHHwAimLA2ammTCAFYy-34" style="vsdxID=16;fillColor=#FFFFFF;gradientColor=none;shape=stencil(nVrbctw2DP0avWJ4vzyn6X9kGqfxNI0zTtI6f19svSS4B6K48pujAIKAAx5cuJt/9/3zh28PmzPffzw//fXw7+PHH583/9vm3OPXzw/Pjz/4r82/3/y7T0/PD38+P/38+vH1398+XCQvf/399M/lDS+verWScRctZ371J6n8/+T3V4U/fj6/atirQCLvryoWdcyLuz6KZO1Vqj0q5OtVyl8fBbLtXe1RpuAP7XsKYD5RRvOebATziUIC845SBvNdambekS3Kfn9zM2YpVWW/f6XvUu6s94acA/NDXK+2SqGM7g8YXY0VRtKC/RX6xVNC+xr94jpGc/CLpXDW/WK6rQP0WSqgfY1+rlTjdg591mmvOUA/F6pZ2Uf0WSqUk/7nTNFuK/hzIoP+a/izp1i3c/BnQ3VboZ/k0QH8iXP0pPcpS1zn6LNU9tsKfZZyYTuHfkoUlXkEn4VcUuYR/BQpn3Y/UMboa/CTJ++2FfjJUMHkW4EfC9k1+jHp5Nfox0gVk2/lP+s4ffgQfpYyWHk0/DFQRPJZwR+9jr/Gn6WiJh/En6VMOuu/I4Pkp/GPTJHov8Y/MJaYfyv8QxTCmuMfAjmsPRr/4MmdJb/gJLJz/FlqffqDpYKlbwU/66jwa/gDHyxtH+FnKY/ss3LfV/KY/hp+nwkbD42+ZySx9K3Q944ymtfoe6uzX6PvDcWz2e+qBHaOPktFrD0afpY6i74rcqzm6LOURfLV6LtM6Wzb6xIlLD4afRelO53D7xhKzL4V/M6QQfsaflt09mv4baaC6bfyn3Wsjj/CbxMV3Xkh/CzlkXxW+NtIZU3+1svBOrDP8cf8W/pvBbM5/pbHA/R/p/OjgrVvWftlUDs4/FTXM5+jejr3+5h0gDxV3XWpwFNYzXtfHr8O87G5Sr9BmIeQq+u7wlbmuIm8ImCJrkUVqf6CUxuGbB9ye/MnR6nNYjwJhyPjSU6sTIIOMMhkoPZcxkXMvQhHr8vMZj6ZUq16a7Mj9cTpz2tYC4Pd6zafJwN5P8az5R7nFTpuNOsxgMC6S8yZqRLa16CPfDpHfeTmu/2vEtg57iwFRUfjzvXDQcO/Ap5VclHGseJaxXg70LNUTid9Z9oxmHiuz1bdvlPtLse+IunpiisI7fLDqHE9OYGqu5d9TgnzYFfCXNhLTzGRV2lTVK8mOmPoMvSKPvWY99AxmpC20uTth27Q6G2ROVIIUrXvUyhy4N6qUBobzBtOpFzv+15r6Hex4bpMIOE2hqxogPFDatuvWblJLYMEw0AJxx0nM7HrSLfRuk+7zFlQeEVq1nFkWc9Z/WbZdhToOfgrPfifslq1sf/p0H4qatPKA7BB+0W+soWEUYIcTlUWkjKBhoOE4TnK3CbMWuE253kQPHaQNZBeL3NZvHXQB8ru1sHLccEEqzL3COXGwwRnHUxw19eLwzjtgSO42lQwvzNO276DvX+ct6HfGrwImBHcr32/9TKcJWT3toGdWS89SZp17p6gr+Bjg9Nk6ov9frasWuN2odnRsoqeh/c2407tEXeMO4r52PhtmrJCP693fqxXW5+djw3Sp/WPvQ4VRzu/2NhrTkIOYLJ9fukcMOxS3U197ed/2Nz6UWK+Zrew6Da3Nrm+F0CHmRB77SwL03Yseht2/w0Dt7cO4p2LbM+lCYamZ7wG8SB0//0OD8uNh4frJbzds9Kk9Pslr4oOH/BwSAqlyt2BtMBt8TPc7lXItpE5m/2ios+U524m3dvDUTj2tyS+IP3xOmqioDy0vYb/Ei5ykNIldXd6WWWKx/tToax+oLrU/tRroPM8J55jS7v9cAz5/kYFDo9Z3cBV2ANx0mbIkPFuz2kpuYHsLYZHqTl+O2sAtM+5v7MHwKmkhL1FQD2exkPvLg/G8bi3CWjtZDcfVfEQqZn5tLcN6G+ep6+eSPm0GazaS++L/F7C6rg2W3VvH4DojyxyL/o1qOv3HfRrFIzm6Nek1oBL//nER70Hwh8/5J11AIJfy94+4GhmrVUq0xsVGp/MxOG3MCfF1RL1tAL/Ib/U+fT45cvrD33G/8df9vCj118F+ff/AQ==);strokeColor=none;spacingTop=-3;spacingBottom=-3;spacingLeft=-3;spacingRight=-3;points=[];labelBackgroundColor=none;rounded=0;html=1;whiteSpace=wrap;" parent="LHHHwAimLA2ammTCAFYy-33" vertex="1">
          <mxGeometry x="1.02" y="1.2571428571428573" width="83.64" height="77.94285714285715" as="geometry" />
        </mxCell>
        <mxCell id="LHHHwAimLA2ammTCAFYy-35" style="vsdxID=17;fillColor=#FFFFFF;gradientColor=none;shape=stencil(pVzLkhQ3EPyavSpab+mM8X8QZjEbxiyxgI3/3r2e7pamMlulxjc8Lm2NKlWvVGke/JuvH999eXxwy9dvL89/PP799P7bxwf/y4NzT58/Pr48fVv/9eDfPvg3H55fHn9/ef7++f3tv7+8e5V8/defz3+9/oUft3UpmOheV7nln9sn3lj/3we/3uR/+/5yW2C3FdW4uq2wYsnyw90+yd7EvAltHyUT0ybkN6Fost2Eto+sM7aOtOe0CxzarTchCPXZ2HCv3gbjs9BfjFQfTBqrr81cu/p4r7sspkahO5oa7nUX177hrjyZkkfKSzYl3St3tll1119NTvf6vTUuCv3JpHyv31ezpF7/p6fP3UkpneVvn4TFeHu+YAXBl/ECMG82SZh3XVMR3SJ2GCyeLkA3OBOH9u2Q2z6KneUcWm4/2otJ/l57TSb4e/VNipqrdnv/2QXy+GoLVje1boBgNKH8vwVFsTnx52JNKao/FzzTK+JRnOkmdY75EYMs/uWmrFqhf99Y79KHefePtGC6Cngv1HuTpXpvilSP4Wz96HB8L6XO9EfcfveX25E/QGr6F+Fwq1S1V/ePIa0cKaDpL7h/hL927jsLf/VGR7+GlvFO0QfV2tYrMT1CX6npJfQ1QzYB6CEWHCsOKOIl+bJ/2ckFVctvMvi2Bc0c6AmrHXe3O8zhZeiv41Pg4BTW7ny7Q+rIZ+3rZHkObAPMS6kz/YtxQegnUQATeyVeuGbxeGXzpUgX6C3aIoAMgD06u26pWK1oiOER9NUlZcYloBd0f2Xjiwp5X+6dQ07yjgo5qXQI5CTvEcgz1hrjnfdpumEOZVbAzSPmufOKWdgzOe8Ie+pO8jnsqbQMOrX5RCwfjj0cyonlEfmUrjt7ijPOnsKMs69S15w9EYdDb0/E4RD52DnHLPKx6wnOkY+Y9AjysTvFU5uPnU3PfT5itifIR0wxGvCxa/nOgY/E9gh8vBrsogx2iHrAKougHrDKU1EPxPCIekDOgKAeuhM8tfPQ1e7nqK9SRww9R31tRuHIabB7pAwI7J4EO4TdXw12nvgbRnqfcPOIvO8cYxZ5T848Iu+RMiHI+y5rTG3eEctjpHfE8oi8AzZBBd7lGX93SCcQ4F286O+OuBy6vCMuh8A7i/WFBrxFlpAAb5tVz3G3GSuM4d5tZ9Jzj7ckySDuVlpdQ912Hco56pYYHlG3V2OdJbEOUbfE3Ugx3/YxCzqxO0nuLYQOojxQGUqcQ6Mj4h3XMnB0PGwS8vtG10mWs8QhLYryV/++RmoECHuE1OjYh1NOA/sKldXAmFdIW9Uq8AGdBedPZbMqxDxCZtkujZyTWZaQSdreifd1Nt3VOyCvCZclw46KuSWGR9BtARdA1C0yCOrWnSgvCehuAccnqJNco8Leu8g57o4YniRajxyyuvmuC+uIDSv0UxbxoDqPRA/Ab2Q4Dw67+OZYh9q5UHJVPo1JRZRfzoU7czDhiYJiW9BbWBIWvmCAFxb241ssYWE3ZEm7KvHnxKty/+iArPPkpFc4aWt7A+U8Zrq1A7y/3YE022WEvbHEdiIgUXpA1fpX2UiN4Y8FLkok/AkdLOLFK+GLQh7fUfVE1J5icdcJ6dlAuDpsYrRrybwAW9fD6Q4pmdADuSJb4MpducXt7TW3wF68J+5pmakFfUc9t8DJi8/LC9ZAsg0ZnHe6klnzkPw9Fr+ONNoVql8XxN081Hx4j+lwLoKwHA5zULAwG+COW/gz/ZiD1wZL1h8BI7SF+iNkuEe1qvoCDYA9IG41L5Z+R8BtoQl3r0XlSNqu9nd35eT6CJXjHbJULpynO3aTX5b0SvhlCf2MJGSEWKZ5SUTyXRLf2Jx240WN95bUsyzSRFBSx5y0sahhdkoYokVyikixoeNFLD6TUvdHHCBIMBLUkdUOZDweJC+Ezk6eHD8R8hMEOPmuOGpBvix2CZrygM0hKg/AR2WMjtgVZ1FFk+AoT70V5yMs93rJuJqvwL9azdk9Vs3yZBLm2eE8k8c7TifHk0A5cpDumB9q+hFwV5pUq9Jl4eJV5h290uNwice+dP2IkM+yYF0j4qgZ6ldsC4bNAJFXui3oHhT5eEka3Pv6gnHzgzWWNh5IGn1P6E0kOSJxY3CmJjTX3Cryy88Lp3F1KoTHQ3/3wsr8nhCWyUdjExR5APzygqKFHEYFdcHMoZQ7pGSn6HBEt2h1qLNAgRMazuEdL+EAGRWm0YDOsnFKoh+Gyoh+DLmq/S1euWWsLvHaJ2PElxRo1sgJi+VF/2cb/SvDfcY6HEcb1K0jScBGCSHXEsMT5lsdY23Z+Vx5gTsnqvwq5gmaHwJ5hM6LQI6MFIA+jFdXhMGkQ2HZfg+Fj5Q0IaxcLglheQGnBGT1wg7rUnJh5+C2hg0HwPW4QqohZ14L8BV4SWUXwSSis+wi57c0MkS3P9quZ+GqsPt2uyIyEKHs2k5NwljSfaPJ4WpavZMnk2dEOboqVQ7JQd07BgoCucUoBZiTzKiA3pd7Z6D3MxbnoDsy/6Rs3E0NvfVSg1kMJMd0L8che65f3o8x/WQCSds+GQVB3MkMEODu/VVn9ziSALh77BcI7qT7VkPc1JhrIKQkGbsjk2fq2B1ywly/DLJMPxlr17ZPZr8Q94AT/YB7wMdqCu6BvNOTuEesggnuEbsAbeNxKq3GqbxKaDl9yBYetTD1wAky7UhIqpvH6ROW2HH4ClCPOIegoJ6QhwfUE5m8QtQJwaxtPOmvV5JML2jxhJy6PnZFxvmZchy8ovph0FDb+FReTxN5PV/O63kir+epvJ6v5/WMd9LE7pmkF/KMgrwhUZ9R4KUX1z8x1p2vp7dC0hviTp5OYg2P434K7gXvkQD3gmMQBPdKpoqVjdepvFqn8ip5tKi/k0OSh+kn6Y3oJ7ed2vZJekPcyaNJwJ08WxS4izeFcPF/UVxpoHFBkRea6oLxK0qUV55p4oIxb0HeaapvYDF+M+YKXwCyN7hkZFQlzjB9EQKJvPwkDBJxJ5U3xAeQhDYseH9LaMOCT5LU7Rfsyhl3h105I++ujo0W5COYcuQjmHKkQ/TNQ6lKoC84tUKgJxlUhZ5kcIJ9nqGr+x+lmCMv+xWtUhlFG/z9hvGCI+D+pPh4OlSKK8OhID6+5JLiygUa2kZb0FWFJwtI0SF5nP5icT+tOGccKk63Yz8fxndz/U81zC2AVKAvEAcyjJNNIbOBIwNWZAQ8/rwLeedua3u2tRsQGGerzcgVwvzinPbxLHzX3f0cSXNsSYJZq8yfZCThLP54T8anEZZMceKLKKtF2oxphjzMEHsX9RrpigfllzJDdT9w5b25dLjJDOh4AZkyHS8gc6zKAt3fJlrngKgkrD1CgNqDvEUP8iaKPAeHcTyc0Il4KCOZycKIFtWhLJxeiziV5ZGZ7r/lTtDi4Qza9JzHWcgQYWzUI2UUyHgWBCTtCKtHfv1H+922D0+fPt1+9q3///J33taPbr8R59/+Cw==);strokeColor=none;spacingTop=-3;spacingBottom=-3;spacingLeft=-3;spacingRight=-3;points=[];labelBackgroundColor=none;rounded=0;html=1;whiteSpace=wrap;" parent="LHHHwAimLA2ammTCAFYy-33" vertex="1">
          <mxGeometry width="85.68" height="80.45714285714287" as="geometry" />
        </mxCell>
        <mxCell id="LHHHwAimLA2ammTCAFYy-36" style="vsdxID=18;fillColor=none;gradientColor=none;strokeColor=none;spacingTop=-3;spacingBottom=-3;spacingLeft=-3;spacingRight=-3;points=[];labelBackgroundColor=none;rounded=0;html=1;whiteSpace=wrap;" parent="LHHHwAimLA2ammTCAFYy-32" vertex="1">
          <mxGeometry x="2.04" y="2.5142857142857147" width="81.6" height="75.42857142857144" as="geometry" />
        </mxCell>
        <mxCell id="LHHHwAimLA2ammTCAFYy-37" style="vsdxID=19;fillColor=#2c5967;gradientColor=none;shape=stencil(jZLZEsIgDEW/htdMSIptn13+w9FqGWvr0Lr9va1QBVzfwuVeOIQInrbl8lAIwrYzza4463VXCp4JIl2XhdFdXwmeC55uGlNsTXOs13Z9WA7Oodo3p+GEi81JxCFDeLXrCUE2uSsLa6907dmVhCT9Hlgdjb1AWgMzZOQiMs7ghRxHDnJ0OYkToNy5+NXlJPwMG74Mv0FiCKi8qx0NMSgOAR+9G/H87nDoeQuYK1B5ABnZY0w/MEopyCRE7SVMQ9RMQSqjXj5+nv/6+p+T0hfPKdvoqrJD6u/HU9lLdqJ5fgM=);strokeColor=none;spacingTop=-3;spacingBottom=-3;spacingLeft=-3;spacingRight=-3;points=[];labelBackgroundColor=none;rounded=0;html=1;whiteSpace=wrap;" parent="LHHHwAimLA2ammTCAFYy-36" vertex="1">
          <mxGeometry x="42.84" y="20.114285714285717" width="13.26" height="8.8" as="geometry" />
        </mxCell>
        <mxCell id="LHHHwAimLA2ammTCAFYy-38" style="vsdxID=20;fillColor=#2c5967;gradientColor=none;shape=stencil(lZdLctswDIZP4y2GBMDXOk3ukWmc2lPXzjhO69y+UCVSJBTK7s5hSH4E8OOhDT28757fths075fz6ef2z/7lstvQtw3i/rjbnvcX+bWhxw09vJ7O2x/n08fxZfz77XnYOfz6dfo93HAdzxGDoeEUms9xJUZI8d/K03jgsD9WBxzEuL7/+8d5JNhxQwDL04m8EiHacemK45I1YPK901IwQNPBK027GMK0aVrxDtCt0W0EE1q8txB9i0cDNrR45yBRi0cLxrZ8jkBreDkSXYtnAz4qPAMpPBEkRY9gXUsnC+TX8GSyewoeE3hlvVyTTc14rEJES6mQvqvHDxCx5cuTnAo+W7Aq+KKaFFo+kw4+Yn5RB88BjG/xtgim4J0F9C3eSqSxxbtK+aR3dfgeZ8Ps8uYJ5gN4p/jitxYv2eDSf3o/IKDSPnlgbvFBPGJbfC3RzI/glPsZs2o7/LhUnwQRlflRrlHmM0NS7o9L9bEHb9f4yS7cX2f1BEuzrrJHZEWlfjIQfIu/USjFeJ/vvbNSRltSI783VZ7o+yulUhqKvxCCipc1pv/cygv37GZw3GxPt4KR75u7gANWpg2XcGsaf2GaB6diMcu651oGVlKsKiwW/+s6OFfYORMSsOoCc03rZWIAUpH9og4HD0ZFduieKhPqfM2VoAi2x7fA1PITkK5DDJhavLlZA80a1qmQmxYoaZ6NK123jAGl7aSSAZ/zGMCr7qY4V9QsPw9J1X0RTVJtR6YFr2YOaXtRJ1Kuzj18paM+XlpsUu5eln2sJJGXylzUmzmqVpGXlrkmL4qq7IupQeWatMuky/7NTHdzcShCKGNQ4S/V5ghIDT0WQaW6KxLpiQ5Y9Xxpw0GNHPIeVWjCcuIwLVmKnmn6XVsT825dkr/cXCu0c2ChqkquOYdDsbWI2i3cmqqe25/lbrSzOz4U5Mf8mfG6PxzGr5T6//qzRJbGTxp6/As=);strokeColor=none;spacingTop=-3;spacingBottom=-3;spacingLeft=-3;spacingRight=-3;points=[];labelBackgroundColor=none;rounded=0;html=1;whiteSpace=wrap;" parent="LHHHwAimLA2ammTCAFYy-36" vertex="1">
          <mxGeometry x="25.5" width="47.94" height="28.914285714285718" as="geometry" />
        </mxCell>
        <mxCell id="LHHHwAimLA2ammTCAFYy-39" style="vsdxID=21;fillColor=#2c5967;gradientColor=none;shape=stencil(pZnbchMxDIafZm89tuXjNYf3YGihGUrLpAXK25Owya6jXxvZ4S7d2quVP1nHid69PHz6cT95+/K6f/52/3t39/ow0fvJ+93Tw/1+93r4NdGHid59ed7ff90//3y6m//+8em48vjr+/Ov4xve5n32uMPbP/Nf3ppE/558nBc/7p6axZ5Mjv+3ISWTUrvh88/9/D1u2eLPW06PUjF+3mPf/GmVX198epSdCXRaRcuq5V2nR5mMdVflO8PE52xyYeIdk10NZSbbMsHLkg3BrjKxzTtPYlwxXOnm206CXF6Ppldpl9Y950OvpgQmPnLxiUyoTDzBma+rtsQ7Jrt57Vm2ZZKbzzuJqYNKFzA0gXRGO0PWCU9cox3hwAXecf3Cbd7BjNImbuECaw+iBdbMxIHzpTO4dDUlGOevGsXlN67rV5vg5lgOp+ovPxE9QLUmlOvHw+2iHkCw8wlwPs5abhVM8nnFpj1yk1hfuXEL2g87C3GD6joHcks2xASjPbRAtu++jjnAcUuoA9xDAXbjoLq1T/wyCLAdegGgzS+DArs1zC3azUU98yaTIpMbxi0cDhx4e3D1Am60cJX2wZ/qsH3Rr3UBl6trXcHQBdZkddZEQ6wp6qwpdbCmfIM3K5PCmiCrEFhTHWYdbAfrwDIpgXVw46yD72EdSGcd0hDrgFkFsA61g3W046wjj5nAOmLMRNbRD7OOkFMIrGNQWccwzjpiLiWwjklnHVkKqbBOTmedfAfrhHFT1TqFSWGdQgfrBCFTZZ0gZAqsU1ZZJyxUdK0xSRJYp6qzPn9NJ+uMaQqwzhA0BdY5jbPOeVJY59zBOpdh1rl2sC4sKxVYFzvOumBiKrAu2AkA1mUwEc866wJBU2Bd6jjraieFdbUdrKsbZl19B+tKk8a60jjrGnpY16izrmW6xvqyJF0WL9Z+vWqv7CIKNXuFRE6o2VtFeqt24YiExljFlEYo3NE61B5Na8vbbZrCUnehTVMwidVbNRByDm7UcdnpUrbQqOGOQAVeWJQVgBeo0gTgrZfqVrqnT1O6GjVF69SA3y8gG2Fj0Fm7u22845qvaoiXst0xPzkWy357w+IDblt+xT/cuFDpiiuLLxv0uckNO402Y29BsNvssLWJhptZO0m12szil2CzbRK3bbNJMBzNbJPgI9Fu23R7208lqIJU3VPP7CDps4M0OjuI+uwg9swO4g2zgyjMDjAuRQzdAvOmjOxFHrEIE5BHfXwQMFlTdQ/gJoW4FFhMFICHPI0BX7oS28ADVCPS8ADrbV3pnrgUuuJSGI1LlHsuODbTBN50Qw5G+vUmqLoF3oQFv4qcurw6dXl1GvXqZPGWCUOjOmnEPbN0ZWa0LO8KrBgrhzcAhuENhx/rsP3L7vFxntW3/+fD+cOjebBPH/4C);strokeColor=none;spacingTop=-3;spacingBottom=-3;spacingLeft=-3;spacingRight=-3;points=[];labelBackgroundColor=none;rounded=0;html=1;whiteSpace=wrap;" parent="LHHHwAimLA2ammTCAFYy-36" vertex="1">
          <mxGeometry y="52.80000000000001" width="81.6" height="15.085714285714287" as="geometry" />
        </mxCell>
        <mxCell id="LHHHwAimLA2ammTCAFYy-40" style="vsdxID=22;fillColor=#2c5967;gradientColor=none;shape=stencil(nVfRdpswDP0aXnVsCdnmuev+o2dNl5xlSU+abu3fzxkGbAlM6BsIiWtdSVfQ0MPb/ul116B5u17Ov3Z/D8/XfUPfGsTDab+7HK7xqqHHhh5ezpfdz8v5/fTc378+3TxvV7/Pf25v+OjjugDItyg0n70lBOi6/5bvfcCP90sfYZODBz+EWBljPjCZMLmke0fALrlQb/Ip5DPdUweBasjeT4dNJnSAvkT2bjpfMtkZ8MwrmRi6Av54OGVM5QG9xVScI+CXfT24Og1TQLJYHokZWUDFQnyxRcGCnRgdqhBrGarwRtW/JUAU+KYEbwOQLcFdp8AZgdsauGPVAr4FDiU4dyV4cNC2JTgbENiT0wJ2iyVw/tYERKxY9wytYJ2sxOYWsIqNQeVNcRrE0A2jMPa9g45L7NEl3UvgsjdH79UuRtowHtp5redjhMrfArkyf+sV/VGarCg9lgxMHrNnNcU5NzlbU+FgePgl55VjzKr65oByDWwOKBdNUPK5gqD1dnNA24HlqpTphcIEJKbKh7KleGzWSUeD2ibOQvA18GCkjEc1tnKNkmjnrOlJM0t3MXVHLcrieSy8uQPCKq8oU+MIKUTai9Ry5gdaSW8IA4GXU8sj7uLC4SoXagfprglai+QCjGuThBCNtNICryK3lSqUNcMgE4sdaaplI92R2aGHFTd9fSz3JPmtPSk2zTZvtlAdtbheZD8yGLk85ZgHaEOZFs6OuanU7I4qiLLZmYC6kKCetkyhhuyywVgeuHwxDx8IUkTXVvlK6ex6gEzQqvLNzBvKecvElDS3SyotsluvRryYfq5eDsdj/2+WP5c/Y9HU/8jR4z8=);strokeColor=none;spacingTop=-3;spacingBottom=-3;spacingLeft=-3;spacingRight=-3;points=[];labelBackgroundColor=none;rounded=0;html=1;whiteSpace=wrap;" parent="LHHHwAimLA2ammTCAFYy-36" vertex="1">
          <mxGeometry y="18.85714285714286" width="81.6" height="28.914285714285718" as="geometry" />
        </mxCell>
        <mxCell id="LHHHwAimLA2ammTCAFYy-41" style="vsdxID=23;fillColor=#2c5967;gradientColor=none;shape=stencil(lZnbdtwqDIafxrdaIEDAdQ/v0dWmO7N2mnRN09Pbb2WPDYwAA3cTR7YsPvRLwpt59+Px0/eHDdWP1+vLvw+/L19eHzfzfkO8PD8+XC+v/GszHzbz7uvL9eGf68vP5y+3v79/erN8+/Xt5dfbE/7c7osOtHu7C9Xf2xX1/18fb8aff15v1no3Rwi0m+vSXv3B3UKDC7vFfkl7MHG3MruVgoC71X4JCfSpawXK3bs2Fny4dx8iOHvv3hqwwn0I4IT7bNXxHzwI9+WDD/cEMd67NxE0CvcEaNaiDw7w3rs2aT2SdwtarL0SnjWEeO/5lLfn5YzbGW8fwOA24u158dxaxJ7AC9cN3myFIuQGb8+rR9sab28zpD5wb8CL8BvAPUKkxfA1RLuNiHsFUbgXxCkAia1+SpwIjAhbECeXE7FPnHj54lrIZHJW9omzldJD4qRzIs4SJ15MPyTOVpa2EXEXgRbDd0xKuG8Qdx5IrL4g7hwYsdlOiTt2cq7pTudU7BNnK7Wo6U7lvOwTtxG8CLlB3IacibPErYcxcDbSY023BHZR060Dq7cRcGvTSneAWwS1Iur89mE7422K8tjnbXzGMhmxKcpjnzdb2bGmG5fzcJY3O7NCVBvAjYFothFwttKLmm4Q9FjTjU6+OsAxQBB77RQ4v5c713QsCmSfONq0VrMhY1Ef+8TZCseajpgTcZY48mKOUxwV0FjTdYTF6DWDEqnWAM4rHYR3AVw7cCuSzk5QRC2Aa5X6Saxf7OjSczs526aCHdP2ECcKeNWoDlk7CGPURXE8EfPc9c6mNrhx7UYQsiIwqxPET5fnYmw7LPeY6Bh6evshV2Ytb8lbIotEbnWO7ZtyEITw+CSW3ZUxwndAIH3vu1jwtEFlI1ttiMOkNzDm3avlM3MWyF6ufLnDjwbExai1ripduZqHfwTR2JRcTNpIclgdA7d5DD4hXnfyDeRsJWf1cfhMS/hvUGd51EIJKuwszalJmuPOe1SmouTOmzKKDqPBnXelt4uBs7440dPxvHRsn+SfckL2wbNQKuF/CJ4VWDbzDfBsleTqJNcjmNX4jcr6eoCnNFYVLY6Rh0QSPPdXaRyaA88doZzfKvLctKI4H2qQ5wZY6dXIQyp0J+S52KBQugZ5y6so/A/JW10N7g3ybBVE/A3yPFHQYvhcatM5Qx88DzMk3FfgeZKKYtsNwPOAiLKvluB51HRCaxrgeYbFsBi5w5ymffBs5cZa74o+Yha8s9UZXQO8cyDCb3B3RQs1HX5RmPvgXd301RU+96Rz3AnlkWyFnUzOyj52KsrlbNzM2IyVnori2cdORbmcxU6+OopvYKcAZqz0xL3Sal/nVf5y0Ofui/mrx51d2TWl9w78SOl9UT375NkqrCq9D1Wz3yDvIyix8xrkg4JVoQ/F+UAfPFvRuJ3nFVnd98FUM16DeyhOWnrc+TbZXw24B15TUeMq7rGonX3ukUeiVaWLumpqG9wjj0hjoY8m5+Us+FicBPbBs5VoMBrco8sHHtPhE5BocBrgYz5S7XFPFzrU70fdbJ0ajfNjgBhyc98/B2ArK160cRBQRDP7mTJUB16NkwB+rj0/xS8/zI7PAwafcflH/gD89fL0dPt+XP5ffjDmS7ePzebDfw==);strokeColor=none;spacingTop=-3;spacingBottom=-3;spacingLeft=-3;spacingRight=-3;points=[];labelBackgroundColor=none;rounded=0;html=1;whiteSpace=wrap;" parent="LHHHwAimLA2ammTCAFYy-36" vertex="1">
          <mxGeometry y="69.14285714285714" width="80.58" height="5.028571428571429" as="geometry" />
        </mxCell>
        <mxCell id="LHHHwAimLA2ammTCAFYy-42" value="&lt;div style=&quot;font-size: 1px&quot;&gt;&lt;p style=&quot;align:center;margin-left:0;margin-right:0;margin-top:0px;margin-bottom:0px;text-indent:0;valign:middle;direction:ltr;&quot;&gt;&lt;font style=&quot;font-size:16.93px;font-family:Oracle Sans;color:#000000;direction:ltr;letter-spacing:0px;line-height:120%;opacity:1&quot;&gt;OCI GG ADW Connection&lt;br&gt;&lt;/font&gt;&lt;/p&gt;&lt;/div&gt;" style="verticalAlign=middle;align=center;vsdxID=25;fillColor=none;gradientColor=none;shape=stencil(nZBLDoAgDERP0z3SIyjew0SURgSD+Lu9kMZoXLhwN9O+tukAlrNpJg1SzDH4QW/URgNYgZTkjA4UkwJUgGXng+6DX1zLfmoymdXo17xh5zmRJ6Q42BWCfc2oJfdAr+Yv+AP9Cb7OJ3H/2JG1HNGz/84klThPVCc=);strokeColor=none;spacingTop=-3;spacingBottom=-3;spacingLeft=-3;spacingRight=-3;points=[];labelBackgroundColor=none;rounded=0;html=1;whiteSpace=wrap;" parent="YdG8qfdtloJJfCclqbba-7" vertex="1">
          <mxGeometry y="238.8571428571429" width="102" height="25.142857142857142" as="geometry" />
        </mxCell>
        <mxCell id="YdG8qfdtloJJfCclqbba-8" value="" style="group;strokeColor=none;" parent="1" vertex="1" connectable="0">
          <mxGeometry x="78" y="191.00000000000006" width="102" height="264" as="geometry" />
        </mxCell>
        <mxCell id="MIznTLobwmh9sBrvItSn-113" value="&lt;b&gt;&lt;font color=&quot;#ffffff&quot;&gt;1&lt;/font&gt;&lt;/b&gt;" style="rounded=1;whiteSpace=wrap;html=1;fillColor=#0050ef;strokeColor=#001DBC;fontFamily=Oracle Sans;labelBackgroundColor=none;align=center;arcSize=50;fontColor=#ffffff;" parent="YdG8qfdtloJJfCclqbba-8" vertex="1">
          <mxGeometry x="29.792079207920793" y="45.51724137931037" width="40" height="40" as="geometry" />
        </mxCell>
        <mxCell id="LHHHwAimLA2ammTCAFYy-5" value="10.2.1.32" style="text;html=1;strokeColor=#3700CC;fillColor=#6a00ff;align=center;verticalAlign=middle;whiteSpace=wrap;rounded=0;fontColor=#ffffff;" parent="YdG8qfdtloJJfCclqbba-8" vertex="1">
          <mxGeometry x="19.693069306930695" width="60.59405940594059" height="34.137931034482776" as="geometry" />
        </mxCell>
        <mxCell id="_eA7hQRQa1pNzd35qElG-59" style="vsdxID=16;fillColor=none;gradientColor=none;strokeColor=none;spacingTop=-3;spacingBottom=-3;spacingLeft=-3;spacingRight=-3;points=[];labelBackgroundColor=none;rounded=0;html=1;whiteSpace=wrap;" parent="YdG8qfdtloJJfCclqbba-8" vertex="1">
          <mxGeometry x="13.13" y="126.41" width="75.74" height="86.59" as="geometry" />
        </mxCell>
        <mxCell id="_eA7hQRQa1pNzd35qElG-60" style="vsdxID=17;fillColor=none;gradientColor=none;strokeColor=none;spacingTop=-3;spacingBottom=-3;spacingLeft=-3;spacingRight=-3;points=[];labelBackgroundColor=none;rounded=0;html=1;whiteSpace=wrap;" parent="_eA7hQRQa1pNzd35qElG-59" vertex="1">
          <mxGeometry width="75.74" height="86.59" as="geometry" />
        </mxCell>
        <mxCell id="_eA7hQRQa1pNzd35qElG-61" style="vsdxID=18;fillColor=#FFFFFF;gradientColor=none;shape=stencil(lVnbcls3DPwavWIOCV6f0/Q/Mo1Te+raGcdp3b8vVIkgzuJcpm+yvNQSIIAFyAt/+vH45fvDJS4/3t9e/3j4++nr++OFf7nE+PTy+PD29C6fLvz5wp++vb49/P72+vPl6+3v71+uyOunP1//uv7Cx21dzVTLdVVc/rl9E5blv79/vcF/+/l2w4fbv3Ollu8LwnrF8hHvGKZQ75j7Vz3rsg++oyJxuqNYUSFa9uenF7PZHCjH1WZ7Iu7/Z0FjKmV/QegU2/ECdEhginHtkDbtHy5plNPaIy3oOvUIRV47pDZa8hH7smaukVJaMwcKa+KSieuaeGIYMTu8wtPW1NfAWDNX3cugzokCREEQN/Q1uQRGPOLe8Hg2zhx2J2oN6BeqDPSVlgb0C8V0aPsygk75U6QC1ov5EZIgeX4JjHEYg19QqR/x80ILAz9kIAfqZU3OXTN9kDNPFzGi9sgLLWC8/eVBJnEb0Xgg79STs/zunz3y7j2vp2XJWzo3vrnAE1Q8jHpO1NF4k01Rv4rofLNL9o4cwVCoHdtfiMuaP5rCGhVVwP6ohdXy9wj8mp57/JUC2B+ZOtAbUFRQQfcbFCsqBUu/rs12hS4Ix+dlbBz7jdT53F8GxR7Firpn/R6/HE4AfslMPC8fL1JiegP+RBWqdDxUapvdo3I2qlCmBLUAudRExmCJlIE8aOBtn5apQFiQ9zYctIjqhlXfbWkrUNeDlxVBJdzwmZLbNVNqxleGPzDwG71njxr8GlP7dd21Vl7PbfUf/EFDQ3WlT4Ee/BpTe7rWCZIlGMEakdk0M5ReBcvKWkfzT2W1UXGdpSNXSATIvqCeSZqU3QqGT234mCWsg5xnKuh1+Qpr6kmJEHLtlYfVlEBON3qJzVZCncMDdOJyd+LYR/hgQxk3QcsWsS+hoRxzVqpQjo1HplQXOGZNlf3mQRuOAIej5NJOQIB5Jbi2KcB9JkQpjD5+Ng6usgho1F3tGyaIFVSQ+7ispayhMrkLRFjqlEG0ExUwXOa6BBJYKBxxl0VzZHBrj6XcpcyD2a/oVbwDgRbOMlvGoQCKEn1JE1SFII++olaoZ6eZXXnOkrNZwsFQUBkjzndLgmrIf9asyWgfsfnQBnPyF8ogp9F0CYO/UsFm+WxMkTUdMp03nF/9pOKbH5mDI0Qea1HY42+zZ5kKj81X7a7/YVMWWFEF2gk+y/m2uMrOPvEE1SHxeLbUd64WqEVHf+j9FqcOmtIL1gtKG+ToUYNe8h4LHl68OP45cZhRSYeQwV801JTfy2pruiXlL+PyaIe/T81QfndD0dO8SdifFHtxwZ80kPbolctcEeDgIaAM9MnnvqAiWJ/Oct9uecoADqo9O8FJ/nJInJTQfD2jzd6/8yzoOwvchiWbgtswTrY9zpk9ehTr0YfmNtyOHba4yXqDv/U5zw3+oYA2WjvSg0yu3SULdLLbxrvk6nNiDLqEk9ttZrfbDLVFLMcbsInaPt5FO4O53+OLC3skY8OVFoxHk7NRUTiLShAsUIsnaj+8sPdLvse/XlLjld1GOTBZOxojvX7cdlij9cXF2Q1nl+kN2sXse1VB6dwSFYXdqkXNPu5YuvRGX9m9cE3MweWuYlgxx7Lhmb1obNntsnDL7FPN2HC775jMaQ52E0rsQKyguuoXT2KkY40HfHVvIfh44sxrmnHajBux3U/C+cAz2iHzagRHvbnZ01em9aPUNZ1AP3QY2XuWYjfDJzPAzDDxeocXo3JQeC99Uo7lZxM4dkNtJfYbsvuU2ZixEqYrPHJFauvQSWejSV5ca578rcPWTAiBcC2i2BdrMuzNo3XeDc3RPOMwLCW9Ibm78xA3J+yNzuYCcTq2RmbamyfDMJYlPxPKyaB0KmjzrGRBBunEBRvju5NOfyt4lWyUTt9KWtfPVvI4syQKFpTOjcySYQdm+LRxgRDcGOf43QvuWSmQD/N1+9vT8/Ptcdz+H1/D5avbSzp//hc=);strokeColor=none;spacingTop=-3;spacingBottom=-3;spacingLeft=-3;spacingRight=-3;points=[];labelBackgroundColor=none;rounded=0;html=1;whiteSpace=wrap;" parent="_eA7hQRQa1pNzd35qElG-60" vertex="1">
          <mxGeometry y="1.0308333333333333" width="73.72026666666667" height="84.52833333333334" as="geometry" />
        </mxCell>
        <mxCell id="_eA7hQRQa1pNzd35qElG-62" style="vsdxID=19;fillColor=#FFFFFF;gradientColor=none;shape=stencil(nVvZch3HDf0avnb1vjw79n+4YjliRZFctJyQfx9MyAYwB9M9V3mTaeCemW4sB8s8pZ/+/PzrH5+eov/z+8u3f376z/Nv3z8/pb89xfj89fOnl+fv9K+n9PNT+un3by+f/vHy7a+vv73/9x+/HpLHv/717d/HL7y+6yXvejq0on97/0t0qf/vD7+8y//9r5d3hfChkVzrHxoBVPxr/BBqLrYPofknN2XSxx+661Pm40/ZtbLFHi7kM3Z2YwD2cDmcsZVQYqHaz+DFxXQDPsoZvLhcz+DZu9zP4MW1M3YOzkfEHnmHnelkGmJ/qAh2d22csaur5Qxeoovw4t2lsAMv3Q248RAcgNfsOrx4oEcMZ/RKd5PP6DHcGBzpDHj3w+LSGb95V+DWyeR8PuM3OvoC+GkaxwKfdFIA/OxyA/zgCrz/YXYWvyM+GVHc4icXBuA3vmnGz64kwKeDS4BfjM+lMCPACr8ap0vReXx/JRVZCuGruGZiobI1fdKpYH0UgmIBeAo4cP0kNcDzSKrB8ac8LXKF310BtyedEQF/uFQBv7gEUadTdEiAX1zdHj/poPknucWJ38n8DHyH1yehhrdP17ZFTxzbGb26Dm/fJcC+qQyAb1/Zaxl+6/l9SKySIJzB80ecgVviPbk5gI/sEmabdBPxSadiuknG80lqYL5JxvP1b0387ML2/fUzSyKokHJGcgVyrZZKLOWTwe+nyPfl+auiBnSueV7qQsE8cHAVQlUuLuCF+fkz8sBKKrGUh0QlUo8bzAV+73yHCj+hszRX0WBY6vLASCOfzwvlzfNSbDOPWwM8bnElmsftYF/kgi2ax+3b0Ea/HBG/msxCrxXQvxonW8ZXhzrxu4vbzEbX5SGzkg5SKpIqkFlIqmJwGa4Hgz/2/n1hroNpjPIveP0SJP2Jew+AL+w/1+5FvHBqsMLYmgupIBErifMeP281TIikMsYjJZVQaoWvdIL95YnfhGMJfgX2r6UEf2ztRetMfIqhGA+bS+AvJIWpWEslltqnYq0z8Sm84Plf4BdJmZv3r87Xm/PH0ot0GuYjZSUTv3MsY3wllVBqZbCswRmi5q1CaGeFNE9rnfEGWNjhfkD2KNY0iAjHocMNN0i3IrKqcxrf5VuwPzvPMvJdvkX7iOsyy7z8+bRIw4cfOV6rQPwuby4wDK6HVgp4JCE5IEAdrV34oaLCEGyqob3E6uO21I+m6KDaKYKrR6nIZxlamDVMcCU0HyfPJLsqt5m7voltzPTKVmgKvoswE+L0aZ0X2jbMBGGPDB/Y8yd8KMYOi1SqjN/cQHx/U/BFb5xQqLKcfWOjV7S7Az6dUkZaEiZfXTVavFDVwDoe2zxBCLU0XzrQXioCMc2J1Aq/swEzvvpl4fgBKr5MNwv4xKcSstg6TXRlfWJrihb2+27PBS08+IxlsXtaWCScbfCPbIW0UJFHySkB3x9pIYQ1pcHge9pPj4L2YsskxRRUmRah6iDnLBAt6Fb9/ry88dcrexkOGwTDZGU6m2JKZBf3vcEmxfe04MY/w/BUnGCHoBpWQlLca1p0CM63RVc+WyEft2UaGg8o9G080CoBHkreTwlFI5SskLxe2h/vJTp2QLJ0WjcdEC2VWKrt375Iy1ACFCYjLSXmhe1XcouITQh/037NyfSfREdHw4zRwLuK5qViZkKpFX6QPBfsL6/77hfvr+cHj7rXYUXoXrb/R1IZ3dsz/X2Vy44QjSmN7rOB8mVu/1bpVoixYfeZ+8p64uIRPrt9LlYq6+a3zpjRSiUrJfA3Q5fO/RDGT3bko6Sk+V/s62MuJKm4P32lI/g+3+PHi3mXef14R4Uujt/OPrRUtFLJmIjA+21FpO11wgc77LO2TxQSUxuF+QGpjQqStvV90gng+6Gb1EbuiEycaC/WICSFBbcMqC5TleaOHwr5hrofkwmgAqST0VyVVGQpj8EqmWAdePb6A/iJ22eMH02HgKQ8UudoOgRUzexLB9LJiB9Nh4SoOzBXNU+UsRTw9uBnt25dN3SIlKSToXmgpaKVSixVqsGP26qRdAB+8AkqdGTNg5sZXDQNriO4eeD21bIqs2ahLrXgdMpqhvKVufar5KOEBPgmRpJKh7ZUMjEqSsuWgwRTFvXiGehnvCnV9Vmt1xE8tnCVTLJ2kUDoOjzcrk7crVr4H3wxb44U2x+e3V8V4AHu098wHrKKAk7suVf9KvQinrHZqV8luSPZmmaxQo4y6pjTf54VKWTT/bMu1Mz0iGJMONX95+vUhg9BaW33yE2CNCVUnwS5gZZKVkqet/+o310EWy0VWQr7lRdmIlLroIPjE0kQgj9mua+TDXCTC8eXjLh2kIzw2SwGaDeKVmodcSVvP96mIp0BZf9FwCfagdMYFaAe5CYmmBDl2WenYIbJV1wqSs9+Pu6QanNNDcj9w76OSmZ4JPxTczkcnlys8WheKEz+Zncsmzqai58dlaRwgztU+iEnfL0Z9V69/pAp5poZyoLKjkrfl7GWSovO7vhNnrQd1ZuFwWC2KDA/XzipfjiJkb2b195XEJrzyGsPCBJk4maFwvaSQ2VzfXjEfUQR3EgY0heQgIytSTWHFv45AL4QS93GqGp6NzKVFnSTIEqVwMCkoUAyrxnasucIpRRYfrc9cSW/p37eXG0tDizLn1+sRcP0s6F9rcEc1OwtyByNp2LGlY5UCDZ1LFNBVUyWB+gkVHcNV2kj/3/yN1NFK5/AxqBd72U75EMhu41ZFOkMiPy+A3oMv+C8j1k09vcrjyikrvPn025ZFl7SWWa9ooJcWH5VFi4i8HD9fOuBP0ltN0Qah6A3VvCbux5d8sIjd3Ehv59RW4UybtL+GFwnzOvsdoVvzL6KhKBm4r+WkpWJve1oHZkWIevhK1ULG9g/EplH10VEI6DGBvliVWZIf03GVDerQkpHIn+z5w7ZXqeHxJeeMO+Emz6U1lmPsLWBr0fYJFUsftqZqdqT4aizb1yNYhpXWb4jUKtg2DsSBiAPHMzMPXMjdYWvllgD6uhV14wzXyUliyZm1bPNP10fmFohXSg8shtrdwf1TcikrNjQiHz6ftVUWYUMfXnisbawHM3HIDqAP7qkoE1hEsvBk6LNquvVYnQzjZK7mWivsleiGD4uSmU79LXlRI9y+0Ly9/GlR8OBjg+DcNPWbqUroQmvFtwFfl9760X6gDp6Kd+cfjK1P0lVrKbS/EJn9VGAWveX1jf22UnKI779JqLLfFN63zefZFx8kxDMmpyWks77rAIVPm6qHc2FbXjXX1tIMctxcOIXw4BVW05xMlx5uBtKahonpTwuKGGTUDoEgp0Mo7idCF59jnPxOVLkBRTG5w7J9nMgtuxVSdeu2k7oedWbwKeGETONJvGPWdTNZsd61yVgnjLjWArxAVqePEOQuivaavpm0UarBFAR8GD24rJpIGkh7k3v1yCCDIR4yFGqwfaAncwcVq8qMPbNHNZupAWz4HTRu4Hy52LEcSp+7lqMJ+HzcEPvn/Bl7R1JL8OoC8brVBtJcsrmTNV2kxzzfs3vYG749YNaYJRGjLcMAlcLtFvIrkvcUC69mLdQMA88TM6/2MvUrxWtVLLHKg+8Xwa+2ITSZEqcHzeCr/Yii4l8xmDgwO4tjP4h3zn//vzly/tn0vr/43fR9Kf3b6rTz/8F);strokeColor=none;spacingTop=-3;spacingBottom=-3;spacingLeft=-3;spacingRight=-3;points=[];labelBackgroundColor=none;rounded=0;html=1;whiteSpace=wrap;" parent="_eA7hQRQa1pNzd35qElG-60" vertex="1">
          <mxGeometry width="75.74" height="86.59" as="geometry" />
        </mxCell>
        <mxCell id="_eA7hQRQa1pNzd35qElG-63" style="vsdxID=20;fillColor=none;gradientColor=none;strokeColor=none;spacingTop=-3;spacingBottom=-3;spacingLeft=-3;spacingRight=-3;points=[];labelBackgroundColor=none;rounded=0;html=1;whiteSpace=wrap;" parent="_eA7hQRQa1pNzd35qElG-59" vertex="1">
          <mxGeometry x="1.0098666666666667" y="1.0308333333333333" width="71.70053333333333" height="83.49750000000002" as="geometry" />
        </mxCell>
        <mxCell id="_eA7hQRQa1pNzd35qElG-64" style="vsdxID=21;fillColor=#2d5967;gradientColor=none;shape=stencil(nVbbUttADP0av2pW2vszhf9gIDSepgljQgt/3029V629TPvmKJLPkXQka5J3b8fH18NE4u26XH4cfs/P1+Mkv01E8/l4WOZreJrk/STvXi7L4ftyeT8/r79fH2+et6efl1+3N3yscVLcQkh8xp8KlPtreVi9T/O59iYg+08BEtC1AQgG64Cn92UlhNHBgKMYEk2oQUfTB60mpcFj9IomJDAqesnoZUCa6CW51yZhVaHvBHDCpipKMoFv6VrR0SUEx+ha7OgSgcJ9upbAyoYuKbCjAM29cZicUyB8m1wgTqZNz3nQmqWX35zT85UYUnoO7BDfb+A7QIbvOXjlksA1KF5bC9oPwXsphhiBDNxl3WV8A4olj0IwdA3ODNErxmkQHHjLSm+LAsogCNui57YnNgr8WNS2E3XoBBtCXTGMJsEGUBVhSPaaHWRVSTojs36HJZIbk+oAhlpsqroneV92wKmS6H7HU5aV3Cxvdw8eSAs5AsdqSaRlqEHw3Du1qWByDL5bJNqDtUP0EpI0IEDqFpwlbrOGi9KKbmRWqBwKHbEbszD2TrbQ6MsmKJPndAtP1TCyydveh9Xm+i93H+o2+ABSxXonoNPgRjkEOKZBrD5txAtddFANU2oHAQ63Xj/5VoLmG7/MCeXPIN86rtv3QVJ+OP0bWggHgXUtOvVaKIdIhpds4351q3xxCoWHckW9zKfTeoTV//OrK5jWi03e/wE=);strokeColor=none;spacingTop=-3;spacingBottom=-3;spacingLeft=-3;spacingRight=-3;points=[];labelBackgroundColor=none;rounded=0;html=1;whiteSpace=wrap;" parent="_eA7hQRQa1pNzd35qElG-63" vertex="1">
          <mxGeometry y="32.986666666666665" width="44.434133333333335" height="35.04833333333333" as="geometry" />
        </mxCell>
        <mxCell id="_eA7hQRQa1pNzd35qElG-65" style="vsdxID=22;fillColor=#2d5967;gradientColor=none;shape=stencil(lZPRdoMgDIafhlsOJCpw3XXv0bPayZnTHmq39u2LS2zBde54B/FPvvzBCNycmt2xFqBOQ+g/6m+/HxqBLwLAd00d/BBPArcCN4c+1O+hP3d7uh93o3I8ffZfY4UL5RmUWIxZoK4U0YUE+xN5pYS3c6AMTYKqkpXlFA4ZqbnIBShSOukcizikWIF0LWIZwwpMFX9gMXYKOVblTB0V5SJTreCl1fR8NHcmKKl0zgQtC8y5ae+TfZC2WuKn85kmH/nu3zkbK0uT89Mn45BWi+5tzJi5d/eOHxNXKmenHTLIRe96pfcndEhcTUZ/e38y+/QPx/k7Mr/13bqdiIfHRh1829JCpt/nGxhDtL24vQE=);strokeColor=none;spacingTop=-3;spacingBottom=-3;spacingLeft=-3;spacingRight=-3;points=[];labelBackgroundColor=none;rounded=0;html=1;whiteSpace=wrap;" parent="_eA7hQRQa1pNzd35qElG-63" vertex="1">
          <mxGeometry x="29.286133333333332" y="8.246666666666666" width="3.0296" height="2.0616666666666665" as="geometry" />
        </mxCell>
        <mxCell id="_eA7hQRQa1pNzd35qElG-66" style="vsdxID=23;fillColor=#2d5967;gradientColor=none;shape=stencil(nVvJclw3DPyaubK4L2cn+Q9XLMeqOJZLthPl78MpiQCmwWWcm0yD01xALA28S3j37dP7rw8Xb799f3768+Gfxw/fP13CLxfvH798enh+/N7/uoRfL+Hdx6fnhz+en358+fD676/vr5LXv/56+vv6Cy+v85y11zne/nv7799ehX//8fwq7VAcB17860BrJvs3GR5K6U0qaCkecjtoOWUMVZOTgvcJ4KvxgF5NLYBeTElb+GoSoBcTALwah3tnIYEUATybegP++fGLuKP+37Tzt5Fk2n61kUHGUDA+wnq9cQ7Wa01rtwuuzUQ4rT7k2g6/VlPgsq5DgN+HQrzF70Me8YtJDfCLqXGLn0xxgJ9NbIAfjK2An4yLgO9NCIAfxtAKP5iYAZ/mMH40LQO+N7UCfjYW9+9NvMG/VZjrVseNLSaoBYtDHkPOtHrBC6Nr9VqKtaMmWDBJrRTW0s9s8CcK26USvrCu6XhhJDV/YYHRFxPUghMvxemljAVnenRiwRYOTEqNBVvj9gcm5rwNlWbKGb9LecRPpuZb/NKf5h6/axRcWIkm+MtJYYqlIVKYqF54rkOFVwrr1QvPhcwv4VsTwR3kfiSAX8hDEHwcJ7KAL90CgYHrc6K7he9StgC8kBrwmc6N8MOwDCv8vkDcfjAJ8YPJYOC6lM2A702C689unO4K3xm4/WxpRQTfVR1OPzUyjARveZFvQ6mOx7WCt8OtDvhUTM4Az0KehDwcfm6mgbFI2ZTt4XfltPD2UjAOQpGuaA6se9SRUNcHD7of6Tms8Lt2wOXHftPg3a76APuP/dGAd+1SDi4/9rvd43vSYcK35KQI31F0NvCD9u5dbWD7IZu2de4pjvURvM8mga+IWQWirt8bPP0OVsH0Oj9OZIEf3Ii+OLhirfa0onEhZPlYQ9+gvHggAYQW4F5pvtDpsU+h0+MyhkoTdhdyENZ1O7R9dXLKuAvyHC98yGBykrJ4XSaCxSOhFXYi1R3YXeVvoRtd74C2t7iRLCRdtgnbQLpbS9B0Mny0YYrYSM3ZFhAMXHM0W1jIsioZ6Bev1jWWQWortlvhbbl4OOZkPMStLqorTiZDUNFvh1w/KZOFK75e4dand/2DK3bCWXsl5EkoFwQvoNsstHIpyqhIczHiCWXS+psIAN6NwS22p5BnFUzxcsczd/TUWLsLxBLeU3jB2LjxLpR+FtybBuDOkk4TeqAsmtRcSA14Cgqnkbdj84+WfGUIhFsZ6+0mBwJfJ1zUeDI6U3DCRQ6HEEzZ4wuHPYyESBr5QVh4I+zXGD8r58sucoXfDwiCj6BTaynltRTjN3ik4ZTau6L338ggEH6hN0nBhwgRgpYKJJW23l/O4eCjNYXvwUxwWLPbfw+Rwh5fzHE0pyC+Pv9J8CWlBj7RNGt8ByaaA0apfwX3nw1eP3tmgj/xYBP1T8oROxGgDrOt3ZMTYTSnfW1rrCbhjzZWV/sF8Y/MTYdlSirt4d9aweu0rwgjPPA5nxy7bzSP4LtTx/iLEtgVvJgzfKb2kF2qYdKr/bOU4lxkHx3IOSIXwdB3gi+kNviUwU59hZxBE2zeTGicWOM6VvGe5Yzd6bPzJFUxwNZBSHc4YFwyRRQreM1qSL5kwAu+hDP9CBc8SW1KGqn2Cn+Q8Axf6C29sCEtsPvac3jwrTEqnvvAwkVBqf3fCbSO+QSxpsUEPJE+JSCTS9wcH4kgEL2WYtuewd4yZzdfsKAyaYLfXmH0ipic3aFVCy4ih+ZgAJncrkJ+e2BS7ZgswmB2osKSvhv4mnrvfiRvbZR4dWtmKmheMIkka5iofjm36IoaOhmcdMqp5ZThT3VSPTGpUmptUtMpr56Y9BRnJj1BONelbFL4YPAoNLjfn8rf9SQVo0JHcMG1BtzICj7fdfgiUPCoBzKccJBtH2nMnhxFeCsTZfVTFjcBpyKlxluh2GCFL+asSfQZfiF9EPgBjNuRxO9ZboRwLuuk22saeULii8hwFc5A6ilYsjujg0nukRoxMZvcJxHPtOPf4qmsOyHg+hx4LY5JZgr9E74WKcTodpt5eKu0hbMleVsRogOZHwb9W5z5lhM+KEugOvCO++xSARMvffiB6sOrw69Y8uhTLMILZtNrqXXmE9KB9J/l3ZGig13er0vKMjvkYNXueY+kih5elBIHflR599V6I77ID9l87kNTF1Te60XQu+Z9JJU28AWHxBoRtrZKMFVrfnBCkzltqpqmRrHeCAV942/r+e5YH9Rs5qQ8OJhBXuykOkjcliiQ7EMwwQ/z4akQjDwoRcwqAIsK+1SaEzOYVAZkUQUgQhtDKU2dnwKpopCjsszeWOQlVEGyq0IGWoJczP1Pc+KVNCOpa7ETRoiE7uejGr1uYZYaqpqlxGpDB7Li3G2V++P2GMGpSrCjArcsxkWIINypDO49JXkCvmAA51UAOcPXAdQZXwSdjpTM4fZ1GwK/4V324JBfuYOvcLoNIoh+pHXNpqek2LZzNMoxE/NLTiFSPYPqVZ7YCVEMwLalpC0dU9YrSydM6JqMTsIar8noJKw8k9Flj19VMSTqPr+ky1Yxqj63pN3SMSRMungUqZmRS3ZWdyKI1s1h2h1FE2RzKU1fdyJYiAn7ZXvE96OmwxafOWtBPmIjCNr8W68s2zDeJpyy/awtddK9A1kHcRP6POsi+rFtKesEIif1XooO4Sf0ZpkkfCcCu0SKL0TCmRBfNDetE86iE26WWuFXRQ5RxUE2jSG7Wyy9TWpaC5pepVLAui01IDemyxdVm8uia6210ETCj4cCu5zjcM6uLZdZP8YXrX33coOyldjRnAw5RBOOgLlJh12egsEc+GVYg/vbgnkO798REUr4OofRTYOFytD3Nw0WXbqWUl5L8V4jqt8RX/QkbfA13TXpGS26enbk0vucBuovu2G9lvJaKmipVXnhPnxsMpbtmAOf2qd3TZvHJmt5ZwNfp/BFc601cYFXFA4A/tQ3VxUzXjV/IrvdxxC1BOyMXzvFSrLb3dEcjJUmxq85OraN8Wunwv3E+DRduO9LAuVvorWSsRymSaemzT6n4vaTorqbLiTxxx6Mr2trbVT31/3qEd5+05Ga7AQfQ/oLlqw/3jl+PqMDdZ4j29UbBMqTr3cKdVwR/BBaoTPU7tuhyec7VA/dfTsEXy7BtwXii6R75A9fZP2UcP+DP/z6+Pj58+t3Y/L/8UOxPvT6kVn49T8=);strokeColor=none;spacingTop=-3;spacingBottom=-3;spacingLeft=-3;spacingRight=-3;points=[];labelBackgroundColor=none;rounded=0;html=1;whiteSpace=wrap;" parent="_eA7hQRQa1pNzd35qElG-63" vertex="1">
          <mxGeometry x="17.16773333333333" width="53.52293333333333" height="45.356666666666676" as="geometry" />
        </mxCell>
        <mxCell id="_eA7hQRQa1pNzd35qElG-67" style="vsdxID=24;fillColor=#2d5967;gradientColor=none;shape=stencil(lVfLctswDPwaXTEE3zynyX9kGqf21I0zjtOmf1+qpCQQFCn5ZtMAASx2YXBQDx/H5/fDIMXH7Xr5efhzerkdB/VtkPL0djxcT7f4aVCPg3p4vVwPP66Xz7eX9P39ebQcP/26/B5v+Ep+XoFQo5cUf9OJAuv+Hzwl+++f1+SA6XcnAWX2yEcIwqSTL5lOLILEbJSPRLZQ6asO4LKBogaNqMoD+jKqKENKB9KVIUleOQZaUCzsVr0EoAkBUKqMLVhcCUKXgUUZFA04pFHPpzfSlck69yiA6BgTqNNBEFPdjZIkaNbBgIBlSYhgJCtLsB4aAYrVJbpdjGyzDMzl0hwlODC+DEyyy3ECoYNiRusgCdHHqG+OGlD3KosJucArgxBYbQbQlLVZ8Kw2KskGR8tktzVcap5Ij+XQknwtPpK2nBENTPIYEwtlcdRq0UK+vYUt8ZmwjWL3ZXya5DQSFBi7NXYWo5ZaiMCwvjjH8qBZdJqjqoz2Fk9csEZVzil6JtaaV3XpvO8lrTZpUrKKdimnbkB1ReMtCFsW5x1oXRbn1Dxv54EgZx21q1uM2o2dUcP64nnqVbymSTY7G6v3PdEuDrnMSLNetkhmB87ITAWQf0HPeOhslW0N1mLUCG8XF6zvnYAhk4h0b3MEOAFo21jtoNbdDlvktRK8upO8VkNg/Vghb0TSMkhWpDkb7ScvvbhNXppkk7w2pt35e6zIqx3YLn1W2Bu3B8mG6Ap7jZyP2mgtRrvZS+9ts3cMxbSzQt9YPco2WjvIdbfDFn3jvuy6w88TqPORjuscp2+9sGgDZnP2Lkb76UsvbtM3Juk3Z68K01tgH32lBtvdgLBeQaQBy9NVEHSZbvzTdGW2K0+Q8enSFzt520xHYcFBzj3nG5CKaLENrG7WYtRST70B0YsnrpCHoayTbG+3m+WvjFqC66TeegOjLWqrt2r+lhgrbd3tED8sD/LX0/mc3vP0d/6Aj0fp8a8e/wE=);strokeColor=none;spacingTop=-3;spacingBottom=-3;spacingLeft=-3;spacingRight=-3;points=[];labelBackgroundColor=none;rounded=0;html=1;whiteSpace=wrap;" parent="_eA7hQRQa1pNzd35qElG-63" vertex="1">
          <mxGeometry x="37.365066666666664" y="43.295" width="33.325599999999994" height="39.17166666666667" as="geometry" />
        </mxCell>
        <mxCell id="_eA7hQRQa1pNzd35qElG-68" value="&lt;div style=&quot;font-size: 1px&quot;&gt;&lt;p style=&quot;align:center;margin-left:0;margin-right:0;margin-top:0px;margin-bottom:0px;text-indent:0;valign:middle;direction:ltr;&quot;&gt;&lt;font style=&quot;font-size:16.93px;font-family:Oracle Sans;color:#000000;direction:ltr;letter-spacing:0px;line-height:120%;opacity:1&quot;&gt;OCI MySQL&lt;/font&gt;&lt;/p&gt;&lt;/div&gt;" style="verticalAlign=middle;align=center;vsdxID=26;fillColor=none;gradientColor=none;shape=stencil(nZBLDoAgDERP0z3SIyjew0SURgSD+Lu9kMZoXLhwN9O+tukAlrNpJg1SzDH4QW/URgNYgZTkjA4UkwJUgGXng+6DX1zLfmoymdXo17xh5zmRJ6Q42BWCfc2oJfdAr+Yv+AP9Cb7OJ3H/2JG1HNGz/84klThPVCc=);strokeColor=none;spacingTop=-3;spacingBottom=-3;spacingLeft=-3;spacingRight=-3;points=[];labelBackgroundColor=none;rounded=0;html=1;whiteSpace=wrap;" parent="YdG8qfdtloJJfCclqbba-8" vertex="1">
          <mxGeometry y="203.68965517241378" width="102" height="60.310344827586235" as="geometry" />
        </mxCell>
        <mxCell id="YdG8qfdtloJJfCclqbba-11" value="" style="group;labelBorderColor=default;strokeColor=none;" parent="1" vertex="1" connectable="0">
          <mxGeometry x="273" y="189" width="102" height="264" as="geometry" />
        </mxCell>
        <mxCell id="MIznTLobwmh9sBrvItSn-85" style="vsdxID=14;fillColor=none;gradientColor=none;strokeColor=none;spacingTop=-3;spacingBottom=-3;spacingLeft=-3;spacingRight=-3;points=[];labelBackgroundColor=none;rounded=0;html=1;whiteSpace=wrap;" parent="YdG8qfdtloJJfCclqbba-11" vertex="1">
          <mxGeometry x="7.140000000000001" y="113.14285714285717" width="85.68" height="80.45714285714287" as="geometry" />
        </mxCell>
        <mxCell id="MIznTLobwmh9sBrvItSn-86" style="vsdxID=15;fillColor=none;gradientColor=none;strokeColor=none;spacingTop=-3;spacingBottom=-3;spacingLeft=-3;spacingRight=-3;points=[];labelBackgroundColor=none;rounded=0;html=1;whiteSpace=wrap;" parent="MIznTLobwmh9sBrvItSn-85" vertex="1">
          <mxGeometry width="85.68" height="80.45714285714287" as="geometry" />
        </mxCell>
        <mxCell id="MIznTLobwmh9sBrvItSn-87" style="vsdxID=16;fillColor=#FFFFFF;gradientColor=none;shape=stencil(nVrbctw2DP0avWJ4vzyn6X9kGqfxNI0zTtI6f19svSS4B6K48pujAIKAAx5cuJt/9/3zh28PmzPffzw//fXw7+PHH583/9vm3OPXzw/Pjz/4r82/3/y7T0/PD38+P/38+vH1398+XCQvf/399M/lDS+verWScRctZ371J6n8/+T3V4U/fj6/atirQCLvryoWdcyLuz6KZO1Vqj0q5OtVyl8fBbLtXe1RpuAP7XsKYD5RRvOebATziUIC845SBvNdambekS3Kfn9zM2YpVWW/f6XvUu6s94acA/NDXK+2SqGM7g8YXY0VRtKC/RX6xVNC+xr94jpGc/CLpXDW/WK6rQP0WSqgfY1+rlTjdg591mmvOUA/F6pZ2Uf0WSqUk/7nTNFuK/hzIoP+a/izp1i3c/BnQ3VboZ/k0QH8iXP0pPcpS1zn6LNU9tsKfZZyYTuHfkoUlXkEn4VcUuYR/BQpn3Y/UMboa/CTJ++2FfjJUMHkW4EfC9k1+jHp5Nfox0gVk2/lP+s4ffgQfpYyWHk0/DFQRPJZwR+9jr/Gn6WiJh/En6VMOuu/I4Pkp/GPTJHov8Y/MJaYfyv8QxTCmuMfAjmsPRr/4MmdJb/gJLJz/FlqffqDpYKlbwU/66jwa/gDHyxtH+FnKY/ss3LfV/KY/hp+nwkbD42+ZySx9K3Q944ymtfoe6uzX6PvDcWz2e+qBHaOPktFrD0afpY6i74rcqzm6LOURfLV6LtM6Wzb6xIlLD4afRelO53D7xhKzL4V/M6QQfsaflt09mv4baaC6bfyn3Wsjj/CbxMV3Xkh/CzlkXxW+NtIZU3+1svBOrDP8cf8W/pvBbM5/pbHA/R/p/OjgrVvWftlUDs4/FTXM5+jejr3+5h0gDxV3XWpwFNYzXtfHr8O87G5Sr9BmIeQq+u7wlbmuIm8ImCJrkUVqf6CUxuGbB9ye/MnR6nNYjwJhyPjSU6sTIIOMMhkoPZcxkXMvQhHr8vMZj6ZUq16a7Mj9cTpz2tYC4Pd6zafJwN5P8az5R7nFTpuNOsxgMC6S8yZqRLa16CPfDpHfeTmu/2vEtg57iwFRUfjzvXDQcO/Ap5VclHGseJaxXg70LNUTid9Z9oxmHiuz1bdvlPtLse+IunpiisI7fLDqHE9OYGqu5d9TgnzYFfCXNhLTzGRV2lTVK8mOmPoMvSKPvWY99AxmpC20uTth27Q6G2ROVIIUrXvUyhy4N6qUBobzBtOpFzv+15r6Hex4bpMIOE2hqxogPFDatuvWblJLYMEw0AJxx0nM7HrSLfRuk+7zFlQeEVq1nFkWc9Z/WbZdhToOfgrPfifslq1sf/p0H4qatPKA7BB+0W+soWEUYIcTlUWkjKBhoOE4TnK3CbMWuE253kQPHaQNZBeL3NZvHXQB8ru1sHLccEEqzL3COXGwwRnHUxw19eLwzjtgSO42lQwvzNO276DvX+ct6HfGrwImBHcr32/9TKcJWT3toGdWS89SZp17p6gr+Bjg9Nk6ov9frasWuN2odnRsoqeh/c2407tEXeMO4r52PhtmrJCP693fqxXW5+djw3Sp/WPvQ4VRzu/2NhrTkIOYLJ9fukcMOxS3U197ed/2Nz6UWK+Zrew6Da3Nrm+F0CHmRB77SwL03Yseht2/w0Dt7cO4p2LbM+lCYamZ7wG8SB0//0OD8uNh4frJbzds9Kk9Pslr4oOH/BwSAqlyt2BtMBt8TPc7lXItpE5m/2ios+U524m3dvDUTj2tyS+IP3xOmqioDy0vYb/Ei5ykNIldXd6WWWKx/tToax+oLrU/tRroPM8J55jS7v9cAz5/kYFDo9Z3cBV2ANx0mbIkPFuz2kpuYHsLYZHqTl+O2sAtM+5v7MHwKmkhL1FQD2exkPvLg/G8bi3CWjtZDcfVfEQqZn5tLcN6G+ep6+eSPm0GazaS++L/F7C6rg2W3VvH4DojyxyL/o1qOv3HfRrFIzm6Nek1oBL//nER70Hwh8/5J11AIJfy94+4GhmrVUq0xsVGp/MxOG3MCfF1RL1tAL/Ib/U+fT45cvrD33G/8df9vCj118F+ff/AQ==);strokeColor=none;spacingTop=-3;spacingBottom=-3;spacingLeft=-3;spacingRight=-3;points=[];labelBackgroundColor=none;rounded=0;html=1;whiteSpace=wrap;" parent="MIznTLobwmh9sBrvItSn-86" vertex="1">
          <mxGeometry x="1.02" y="1.2571428571428573" width="83.64" height="77.94285714285715" as="geometry" />
        </mxCell>
        <mxCell id="MIznTLobwmh9sBrvItSn-88" style="vsdxID=17;fillColor=#FFFFFF;gradientColor=none;shape=stencil(pVzLkhQ3EPyavSpab+mM8X8QZjEbxiyxgI3/3r2e7pamMlulxjc8Lm2NKlWvVGke/JuvH999eXxwy9dvL89/PP799P7bxwf/y4NzT58/Pr48fVv/9eDfPvg3H55fHn9/ef7++f3tv7+8e5V8/defz3+9/oUft3UpmOheV7nln9sn3lj/3we/3uR/+/5yW2C3FdW4uq2wYsnyw90+yd7EvAltHyUT0ybkN6Fost2Eto+sM7aOtOe0CxzarTchCPXZ2HCv3gbjs9BfjFQfTBqrr81cu/p4r7sspkahO5oa7nUX177hrjyZkkfKSzYl3St3tll1119NTvf6vTUuCv3JpHyv31ezpF7/p6fP3UkpneVvn4TFeHu+YAXBl/ECMG82SZh3XVMR3SJ2GCyeLkA3OBOH9u2Q2z6KneUcWm4/2otJ/l57TSb4e/VNipqrdnv/2QXy+GoLVje1boBgNKH8vwVFsTnx52JNKao/FzzTK+JRnOkmdY75EYMs/uWmrFqhf99Y79KHefePtGC6Cngv1HuTpXpvilSP4Wz96HB8L6XO9EfcfveX25E/QGr6F+Fwq1S1V/ePIa0cKaDpL7h/hL927jsLf/VGR7+GlvFO0QfV2tYrMT1CX6npJfQ1QzYB6CEWHCsOKOIl+bJ/2ckFVctvMvi2Bc0c6AmrHXe3O8zhZeiv41Pg4BTW7ny7Q+rIZ+3rZHkObAPMS6kz/YtxQegnUQATeyVeuGbxeGXzpUgX6C3aIoAMgD06u26pWK1oiOER9NUlZcYloBd0f2Xjiwp5X+6dQ07yjgo5qXQI5CTvEcgz1hrjnfdpumEOZVbAzSPmufOKWdgzOe8Ie+pO8jnsqbQMOrX5RCwfjj0cyonlEfmUrjt7ijPOnsKMs69S15w9EYdDb0/E4RD52DnHLPKx6wnOkY+Y9AjysTvFU5uPnU3PfT5itifIR0wxGvCxa/nOgY/E9gh8vBrsogx2iHrAKougHrDKU1EPxPCIekDOgKAeuhM8tfPQ1e7nqK9SRww9R31tRuHIabB7pAwI7J4EO4TdXw12nvgbRnqfcPOIvO8cYxZ5T848Iu+RMiHI+y5rTG3eEctjpHfE8oi8AzZBBd7lGX93SCcQ4F286O+OuBy6vCMuh8A7i/WFBrxFlpAAb5tVz3G3GSuM4d5tZ9Jzj7ckySDuVlpdQ912Hco56pYYHlG3V2OdJbEOUbfE3Ugx3/YxCzqxO0nuLYQOojxQGUqcQ6Mj4h3XMnB0PGwS8vtG10mWs8QhLYryV/++RmoECHuE1OjYh1NOA/sKldXAmFdIW9Uq8AGdBedPZbMqxDxCZtkujZyTWZaQSdreifd1Nt3VOyCvCZclw46KuSWGR9BtARdA1C0yCOrWnSgvCehuAccnqJNco8Leu8g57o4YniRajxyyuvmuC+uIDSv0UxbxoDqPRA/Ab2Q4Dw67+OZYh9q5UHJVPo1JRZRfzoU7czDhiYJiW9BbWBIWvmCAFxb241ssYWE3ZEm7KvHnxKty/+iArPPkpFc4aWt7A+U8Zrq1A7y/3YE022WEvbHEdiIgUXpA1fpX2UiN4Y8FLkok/AkdLOLFK+GLQh7fUfVE1J5icdcJ6dlAuDpsYrRrybwAW9fD6Q4pmdADuSJb4MpducXt7TW3wF68J+5pmakFfUc9t8DJi8/LC9ZAsg0ZnHe6klnzkPw9Fr+ONNoVql8XxN081Hx4j+lwLoKwHA5zULAwG+COW/gz/ZiD1wZL1h8BI7SF+iNkuEe1qvoCDYA9IG41L5Z+R8BtoQl3r0XlSNqu9nd35eT6CJXjHbJULpynO3aTX5b0SvhlCf2MJGSEWKZ5SUTyXRLf2Jx240WN95bUsyzSRFBSx5y0sahhdkoYokVyikixoeNFLD6TUvdHHCBIMBLUkdUOZDweJC+Ezk6eHD8R8hMEOPmuOGpBvix2CZrygM0hKg/AR2WMjtgVZ1FFk+AoT70V5yMs93rJuJqvwL9azdk9Vs3yZBLm2eE8k8c7TifHk0A5cpDumB9q+hFwV5pUq9Jl4eJV5h290uNwice+dP2IkM+yYF0j4qgZ6ldsC4bNAJFXui3oHhT5eEka3Pv6gnHzgzWWNh5IGn1P6E0kOSJxY3CmJjTX3Cryy88Lp3F1KoTHQ3/3wsr8nhCWyUdjExR5APzygqKFHEYFdcHMoZQ7pGSn6HBEt2h1qLNAgRMazuEdL+EAGRWm0YDOsnFKoh+Gyoh+DLmq/S1euWWsLvHaJ2PElxRo1sgJi+VF/2cb/SvDfcY6HEcb1K0jScBGCSHXEsMT5lsdY23Z+Vx5gTsnqvwq5gmaHwJ5hM6LQI6MFIA+jFdXhMGkQ2HZfg+Fj5Q0IaxcLglheQGnBGT1wg7rUnJh5+C2hg0HwPW4QqohZ14L8BV4SWUXwSSis+wi57c0MkS3P9quZ+GqsPt2uyIyEKHs2k5NwljSfaPJ4WpavZMnk2dEOboqVQ7JQd07BgoCucUoBZiTzKiA3pd7Z6D3MxbnoDsy/6Rs3E0NvfVSg1kMJMd0L8che65f3o8x/WQCSds+GQVB3MkMEODu/VVn9ziSALh77BcI7qT7VkPc1JhrIKQkGbsjk2fq2B1ywly/DLJMPxlr17ZPZr8Q94AT/YB7wMdqCu6BvNOTuEesggnuEbsAbeNxKq3GqbxKaDl9yBYetTD1wAky7UhIqpvH6ROW2HH4ClCPOIegoJ6QhwfUE5m8QtQJwaxtPOmvV5JML2jxhJy6PnZFxvmZchy8ovph0FDb+FReTxN5PV/O63kir+epvJ6v5/WMd9LE7pmkF/KMgrwhUZ9R4KUX1z8x1p2vp7dC0hviTp5OYg2P434K7gXvkQD3gmMQBPdKpoqVjdepvFqn8ip5tKi/k0OSh+kn6Y3oJ7ed2vZJekPcyaNJwJ08WxS4izeFcPF/UVxpoHFBkRea6oLxK0qUV55p4oIxb0HeaapvYDF+M+YKXwCyN7hkZFQlzjB9EQKJvPwkDBJxJ5U3xAeQhDYseH9LaMOCT5LU7Rfsyhl3h105I++ujo0W5COYcuQjmHKkQ/TNQ6lKoC84tUKgJxlUhZ5kcIJ9nqGr+x+lmCMv+xWtUhlFG/z9hvGCI+D+pPh4OlSKK8OhID6+5JLiygUa2kZb0FWFJwtI0SF5nP5icT+tOGccKk63Yz8fxndz/U81zC2AVKAvEAcyjJNNIbOBIwNWZAQ8/rwLeedua3u2tRsQGGerzcgVwvzinPbxLHzX3f0cSXNsSYJZq8yfZCThLP54T8anEZZMceKLKKtF2oxphjzMEHsX9RrpigfllzJDdT9w5b25dLjJDOh4AZkyHS8gc6zKAt3fJlrngKgkrD1CgNqDvEUP8iaKPAeHcTyc0Il4KCOZycKIFtWhLJxeiziV5ZGZ7r/lTtDi4Qza9JzHWcgQYWzUI2UUyHgWBCTtCKtHfv1H+922D0+fPt1+9q3///J33taPbr8R59/+Cw==);strokeColor=none;spacingTop=-3;spacingBottom=-3;spacingLeft=-3;spacingRight=-3;points=[];labelBackgroundColor=none;rounded=0;html=1;whiteSpace=wrap;" parent="MIznTLobwmh9sBrvItSn-86" vertex="1">
          <mxGeometry width="85.68" height="80.45714285714287" as="geometry" />
        </mxCell>
        <mxCell id="MIznTLobwmh9sBrvItSn-89" style="vsdxID=18;fillColor=none;gradientColor=none;strokeColor=none;spacingTop=-3;spacingBottom=-3;spacingLeft=-3;spacingRight=-3;points=[];labelBackgroundColor=none;rounded=0;html=1;whiteSpace=wrap;" parent="MIznTLobwmh9sBrvItSn-85" vertex="1">
          <mxGeometry x="2.04" y="10.514285714285714" width="81.6" height="75.42857142857144" as="geometry" />
        </mxCell>
        <mxCell id="MIznTLobwmh9sBrvItSn-90" style="vsdxID=19;fillColor=#2c5967;gradientColor=none;shape=stencil(jZLZEsIgDEW/htdMSIptn13+w9FqGWvr0Lr9va1QBVzfwuVeOIQInrbl8lAIwrYzza4463VXCp4JIl2XhdFdXwmeC55uGlNsTXOs13Z9WA7Oodo3p+GEi81JxCFDeLXrCUE2uSsLa6907dmVhCT9Hlgdjb1AWgMzZOQiMs7ghRxHDnJ0OYkToNy5+NXlJPwMG74Mv0FiCKi8qx0NMSgOAR+9G/H87nDoeQuYK1B5ABnZY0w/MEopyCRE7SVMQ9RMQSqjXj5+nv/6+p+T0hfPKdvoqrJD6u/HU9lLdqJ5fgM=);strokeColor=none;spacingTop=-3;spacingBottom=-3;spacingLeft=-3;spacingRight=-3;points=[];labelBackgroundColor=none;rounded=0;html=1;whiteSpace=wrap;" parent="MIznTLobwmh9sBrvItSn-89" vertex="1">
          <mxGeometry x="42.84" y="20.114285714285717" width="13.26" height="8.8" as="geometry" />
        </mxCell>
        <mxCell id="MIznTLobwmh9sBrvItSn-91" style="vsdxID=20;fillColor=#2c5967;gradientColor=none;shape=stencil(lZdLctswDIZP4y2GBMDXOk3ukWmc2lPXzjhO69y+UCVSJBTK7s5hSH4E8OOhDT28757fths075fz6ef2z/7lstvQtw3i/rjbnvcX+bWhxw09vJ7O2x/n08fxZfz77XnYOfz6dfo93HAdzxGDoeEUms9xJUZI8d/K03jgsD9WBxzEuL7/+8d5JNhxQwDL04m8EiHacemK45I1YPK901IwQNPBK027GMK0aVrxDtCt0W0EE1q8txB9i0cDNrR45yBRi0cLxrZ8jkBreDkSXYtnAz4qPAMpPBEkRY9gXUsnC+TX8GSyewoeE3hlvVyTTc14rEJES6mQvqvHDxCx5cuTnAo+W7Aq+KKaFFo+kw4+Yn5RB88BjG/xtgim4J0F9C3eSqSxxbtK+aR3dfgeZ8Ps8uYJ5gN4p/jitxYv2eDSf3o/IKDSPnlgbvFBPGJbfC3RzI/glPsZs2o7/LhUnwQRlflRrlHmM0NS7o9L9bEHb9f4yS7cX2f1BEuzrrJHZEWlfjIQfIu/USjFeJ/vvbNSRltSI783VZ7o+yulUhqKvxCCipc1pv/cygv37GZw3GxPt4KR75u7gANWpg2XcGsaf2GaB6diMcu651oGVlKsKiwW/+s6OFfYORMSsOoCc03rZWIAUpH9og4HD0ZFduieKhPqfM2VoAi2x7fA1PITkK5DDJhavLlZA80a1qmQmxYoaZ6NK123jAGl7aSSAZ/zGMCr7qY4V9QsPw9J1X0RTVJtR6YFr2YOaXtRJ1Kuzj18paM+XlpsUu5eln2sJJGXylzUmzmqVpGXlrkmL4qq7IupQeWatMuky/7NTHdzcShCKGNQ4S/V5ghIDT0WQaW6KxLpiQ5Y9Xxpw0GNHPIeVWjCcuIwLVmKnmn6XVsT825dkr/cXCu0c2ChqkquOYdDsbWI2i3cmqqe25/lbrSzOz4U5Mf8mfG6PxzGr5T6//qzRJbGTxp6/As=);strokeColor=none;spacingTop=-3;spacingBottom=-3;spacingLeft=-3;spacingRight=-3;points=[];labelBackgroundColor=none;rounded=0;html=1;whiteSpace=wrap;" parent="MIznTLobwmh9sBrvItSn-89" vertex="1">
          <mxGeometry x="25.5" width="47.94" height="28.914285714285718" as="geometry" />
        </mxCell>
        <mxCell id="MIznTLobwmh9sBrvItSn-92" style="vsdxID=21;fillColor=#2c5967;gradientColor=none;shape=stencil(pZnbchMxDIafZm89tuXjNYf3YGihGUrLpAXK25Owya6jXxvZ4S7d2quVP1nHid69PHz6cT95+/K6f/52/3t39/ow0fvJ+93Tw/1+93r4NdGHid59ed7ff90//3y6m//+8em48vjr+/Ov4xve5n32uMPbP/Nf3ppE/558nBc/7p6axZ5Mjv+3ISWTUrvh88/9/D1u2eLPW06PUjF+3mPf/GmVX198epSdCXRaRcuq5V2nR5mMdVflO8PE52xyYeIdk10NZSbbMsHLkg3BrjKxzTtPYlwxXOnm206CXF6Ppldpl9Y950OvpgQmPnLxiUyoTDzBma+rtsQ7Jrt57Vm2ZZKbzzuJqYNKFzA0gXRGO0PWCU9cox3hwAXecf3Cbd7BjNImbuECaw+iBdbMxIHzpTO4dDUlGOevGsXlN67rV5vg5lgOp+ovPxE9QLUmlOvHw+2iHkCw8wlwPs5abhVM8nnFpj1yk1hfuXEL2g87C3GD6joHcks2xASjPbRAtu++jjnAcUuoA9xDAXbjoLq1T/wyCLAdegGgzS+DArs1zC3azUU98yaTIpMbxi0cDhx4e3D1Am60cJX2wZ/qsH3Rr3UBl6trXcHQBdZkddZEQ6wp6qwpdbCmfIM3K5PCmiCrEFhTHWYdbAfrwDIpgXVw46yD72EdSGcd0hDrgFkFsA61g3W046wjj5nAOmLMRNbRD7OOkFMIrGNQWccwzjpiLiWwjklnHVkKqbBOTmedfAfrhHFT1TqFSWGdQgfrBCFTZZ0gZAqsU1ZZJyxUdK0xSRJYp6qzPn9NJ+uMaQqwzhA0BdY5jbPOeVJY59zBOpdh1rl2sC4sKxVYFzvOumBiKrAu2AkA1mUwEc866wJBU2Bd6jjraieFdbUdrKsbZl19B+tKk8a60jjrGnpY16izrmW6xvqyJF0WL9Z+vWqv7CIKNXuFRE6o2VtFeqt24YiExljFlEYo3NE61B5Na8vbbZrCUnehTVMwidVbNRByDm7UcdnpUrbQqOGOQAVeWJQVgBeo0gTgrZfqVrqnT1O6GjVF69SA3y8gG2Fj0Fm7u22845qvaoiXst0xPzkWy357w+IDblt+xT/cuFDpiiuLLxv0uckNO402Y29BsNvssLWJhptZO0m12szil2CzbRK3bbNJMBzNbJPgI9Fu23R7208lqIJU3VPP7CDps4M0OjuI+uwg9swO4g2zgyjMDjAuRQzdAvOmjOxFHrEIE5BHfXwQMFlTdQ/gJoW4FFhMFICHPI0BX7oS28ADVCPS8ADrbV3pnrgUuuJSGI1LlHsuODbTBN50Qw5G+vUmqLoF3oQFv4qcurw6dXl1GvXqZPGWCUOjOmnEPbN0ZWa0LO8KrBgrhzcAhuENhx/rsP3L7vFxntW3/+fD+cOjebBPH/4C);strokeColor=none;spacingTop=-3;spacingBottom=-3;spacingLeft=-3;spacingRight=-3;points=[];labelBackgroundColor=none;rounded=0;html=1;whiteSpace=wrap;" parent="MIznTLobwmh9sBrvItSn-89" vertex="1">
          <mxGeometry y="52.80000000000001" width="81.6" height="15.085714285714287" as="geometry" />
        </mxCell>
        <mxCell id="MIznTLobwmh9sBrvItSn-93" style="vsdxID=22;fillColor=#2c5967;gradientColor=none;shape=stencil(nVfRdpswDP0aXnVsCdnmuev+o2dNl5xlSU+abu3fzxkGbAlM6BsIiWtdSVfQ0MPb/ul116B5u17Ov3Z/D8/XfUPfGsTDab+7HK7xqqHHhh5ezpfdz8v5/fTc378+3TxvV7/Pf25v+OjjugDItyg0n70lBOi6/5bvfcCP90sfYZODBz+EWBljPjCZMLmke0fALrlQb/Ip5DPdUweBasjeT4dNJnSAvkT2bjpfMtkZ8MwrmRi6Av54OGVM5QG9xVScI+CXfT24Og1TQLJYHokZWUDFQnyxRcGCnRgdqhBrGarwRtW/JUAU+KYEbwOQLcFdp8AZgdsauGPVAr4FDiU4dyV4cNC2JTgbENiT0wJ2iyVw/tYERKxY9wytYJ2sxOYWsIqNQeVNcRrE0A2jMPa9g45L7NEl3UvgsjdH79UuRtowHtp5redjhMrfArkyf+sV/VGarCg9lgxMHrNnNcU5NzlbU+FgePgl55VjzKr65oByDWwOKBdNUPK5gqD1dnNA24HlqpTphcIEJKbKh7KleGzWSUeD2ibOQvA18GCkjEc1tnKNkmjnrOlJM0t3MXVHLcrieSy8uQPCKq8oU+MIKUTai9Ry5gdaSW8IA4GXU8sj7uLC4SoXagfprglai+QCjGuThBCNtNICryK3lSqUNcMgE4sdaaplI92R2aGHFTd9fSz3JPmtPSk2zTZvtlAdtbheZD8yGLk85ZgHaEOZFs6OuanU7I4qiLLZmYC6kKCetkyhhuyywVgeuHwxDx8IUkTXVvlK6ex6gEzQqvLNzBvKecvElDS3SyotsluvRryYfq5eDsdj/2+WP5c/Y9HU/8jR4z8=);strokeColor=none;spacingTop=-3;spacingBottom=-3;spacingLeft=-3;spacingRight=-3;points=[];labelBackgroundColor=none;rounded=0;html=1;whiteSpace=wrap;" parent="MIznTLobwmh9sBrvItSn-89" vertex="1">
          <mxGeometry y="18.85714285714286" width="81.6" height="28.914285714285718" as="geometry" />
        </mxCell>
        <mxCell id="MIznTLobwmh9sBrvItSn-94" style="vsdxID=23;fillColor=#2c5967;gradientColor=none;shape=stencil(lZnbdtwqDIafxrdaIEDAdQ/v0dWmO7N2mnRN09Pbb2WPDYwAA3cTR7YsPvRLwpt59+Px0/eHDdWP1+vLvw+/L19eHzfzfkO8PD8+XC+v/GszHzbz7uvL9eGf68vP5y+3v79/erN8+/Xt5dfbE/7c7osOtHu7C9Xf2xX1/18fb8aff15v1no3Rwi0m+vSXv3B3UKDC7vFfkl7MHG3MruVgoC71X4JCfSpawXK3bs2Fny4dx8iOHvv3hqwwn0I4IT7bNXxHzwI9+WDD/cEMd67NxE0CvcEaNaiDw7w3rs2aT2SdwtarL0SnjWEeO/5lLfn5YzbGW8fwOA24u158dxaxJ7AC9cN3myFIuQGb8+rR9sab28zpD5wb8CL8BvAPUKkxfA1RLuNiHsFUbgXxCkAia1+SpwIjAhbECeXE7FPnHj54lrIZHJW9omzldJD4qRzIs4SJ15MPyTOVpa2EXEXgRbDd0xKuG8Qdx5IrL4g7hwYsdlOiTt2cq7pTudU7BNnK7Wo6U7lvOwTtxG8CLlB3IacibPErYcxcDbSY023BHZR060Dq7cRcGvTSneAWwS1Iur89mE7422K8tjnbXzGMhmxKcpjnzdb2bGmG5fzcJY3O7NCVBvAjYFothFwttKLmm4Q9FjTjU6+OsAxQBB77RQ4v5c713QsCmSfONq0VrMhY1Ef+8TZCseajpgTcZY48mKOUxwV0FjTdYTF6DWDEqnWAM4rHYR3AVw7cCuSzk5QRC2Aa5X6Saxf7OjSczs526aCHdP2ECcKeNWoDlk7CGPURXE8EfPc9c6mNrhx7UYQsiIwqxPET5fnYmw7LPeY6Bh6evshV2Ytb8lbIotEbnWO7ZtyEITw+CSW3ZUxwndAIH3vu1jwtEFlI1ttiMOkNzDm3avlM3MWyF6ufLnDjwbExai1ripduZqHfwTR2JRcTNpIclgdA7d5DD4hXnfyDeRsJWf1cfhMS/hvUGd51EIJKuwszalJmuPOe1SmouTOmzKKDqPBnXelt4uBs7440dPxvHRsn+SfckL2wbNQKuF/CJ4VWDbzDfBsleTqJNcjmNX4jcr6eoCnNFYVLY6Rh0QSPPdXaRyaA88doZzfKvLctKI4H2qQ5wZY6dXIQyp0J+S52KBQugZ5y6so/A/JW10N7g3ybBVE/A3yPFHQYvhcatM5Qx88DzMk3FfgeZKKYtsNwPOAiLKvluB51HRCaxrgeYbFsBi5w5ymffBs5cZa74o+Yha8s9UZXQO8cyDCb3B3RQs1HX5RmPvgXd301RU+96Rz3AnlkWyFnUzOyj52KsrlbNzM2IyVnori2cdORbmcxU6+OopvYKcAZqz0xL3Sal/nVf5y0Ofui/mrx51d2TWl9w78SOl9UT375NkqrCq9D1Wz3yDvIyix8xrkg4JVoQ/F+UAfPFvRuJ3nFVnd98FUM16DeyhOWnrc+TbZXw24B15TUeMq7rGonX3ukUeiVaWLumpqG9wjj0hjoY8m5+Us+FicBPbBs5VoMBrco8sHHtPhE5BocBrgYz5S7XFPFzrU70fdbJ0ajfNjgBhyc98/B2ArK160cRBQRDP7mTJUB16NkwB+rj0/xS8/zI7PAwafcflH/gD89fL0dPt+XP5ffjDmS7ePzebDfw==);strokeColor=none;spacingTop=-3;spacingBottom=-3;spacingLeft=-3;spacingRight=-3;points=[];labelBackgroundColor=none;rounded=0;html=1;whiteSpace=wrap;" parent="MIznTLobwmh9sBrvItSn-89" vertex="1">
          <mxGeometry y="69.14285714285714" width="80.58" height="5.028571428571429" as="geometry" />
        </mxCell>
        <mxCell id="_eA7hQRQa1pNzd35qElG-69" style="vsdxID=16;fillColor=none;gradientColor=none;strokeColor=none;spacingTop=-3;spacingBottom=-3;spacingLeft=-3;spacingRight=-3;points=[];labelBackgroundColor=none;rounded=0;html=1;whiteSpace=wrap;" parent="MIznTLobwmh9sBrvItSn-89" vertex="1">
          <mxGeometry x="193.8" y="-13.828571428571431" width="40.8" height="37.71428571428572" as="geometry" />
        </mxCell>
        <mxCell id="_eA7hQRQa1pNzd35qElG-70" style="vsdxID=17;fillColor=none;gradientColor=none;strokeColor=none;spacingTop=-3;spacingBottom=-3;spacingLeft=-3;spacingRight=-3;points=[];labelBackgroundColor=none;rounded=0;html=1;whiteSpace=wrap;" parent="_eA7hQRQa1pNzd35qElG-69" vertex="1">
          <mxGeometry width="40.8" height="37.71428571428571" as="geometry" />
        </mxCell>
        <mxCell id="_eA7hQRQa1pNzd35qElG-71" style="vsdxID=18;fillColor=#FFFFFF;gradientColor=none;shape=stencil(lVnbcls3DPwavWIOCV6f0/Q/Mo1Te+raGcdp3b8vVIkgzuJcpm+yvNQSIIAFyAt/+vH45fvDJS4/3t9e/3j4++nr++OFf7nE+PTy+PD29C6fLvz5wp++vb49/P72+vPl6+3v71+uyOunP1//uv7Cx21dzVTLdVVc/rl9E5blv79/vcF/+/l2w4fbv3Ollu8LwnrF8hHvGKZQ75j7Vz3rsg++oyJxuqNYUSFa9uenF7PZHCjH1WZ7Iu7/Z0FjKmV/QegU2/ECdEhginHtkDbtHy5plNPaIy3oOvUIRV47pDZa8hH7smaukVJaMwcKa+KSieuaeGIYMTu8wtPW1NfAWDNX3cugzokCREEQN/Q1uQRGPOLe8Hg2zhx2J2oN6BeqDPSVlgb0C8V0aPsygk75U6QC1ov5EZIgeX4JjHEYg19QqR/x80ILAz9kIAfqZU3OXTN9kDNPFzGi9sgLLWC8/eVBJnEb0Xgg79STs/zunz3y7j2vp2XJWzo3vrnAE1Q8jHpO1NF4k01Rv4rofLNL9o4cwVCoHdtfiMuaP5rCGhVVwP6ohdXy9wj8mp57/JUC2B+ZOtAbUFRQQfcbFCsqBUu/rs12hS4Ix+dlbBz7jdT53F8GxR7Firpn/R6/HE4AfslMPC8fL1JiegP+RBWqdDxUapvdo3I2qlCmBLUAudRExmCJlIE8aOBtn5apQFiQ9zYctIjqhlXfbWkrUNeDlxVBJdzwmZLbNVNqxleGPzDwG71njxr8GlP7dd21Vl7PbfUf/EFDQ3WlT4Ee/BpTe7rWCZIlGMEakdk0M5ReBcvKWkfzT2W1UXGdpSNXSATIvqCeSZqU3QqGT234mCWsg5xnKuh1+Qpr6kmJEHLtlYfVlEBON3qJzVZCncMDdOJyd+LYR/hgQxk3QcsWsS+hoRxzVqpQjo1HplQXOGZNlf3mQRuOAIej5NJOQIB5Jbi2KcB9JkQpjD5+Ng6usgho1F3tGyaIFVSQ+7ispayhMrkLRFjqlEG0ExUwXOa6BBJYKBxxl0VzZHBrj6XcpcyD2a/oVbwDgRbOMlvGoQCKEn1JE1SFII++olaoZ6eZXXnOkrNZwsFQUBkjzndLgmrIf9asyWgfsfnQBnPyF8ogp9F0CYO/UsFm+WxMkTUdMp03nF/9pOKbH5mDI0Qea1HY42+zZ5kKj81X7a7/YVMWWFEF2gk+y/m2uMrOPvEE1SHxeLbUd64WqEVHf+j9FqcOmtIL1gtKG+ToUYNe8h4LHl68OP45cZhRSYeQwV801JTfy2pruiXlL+PyaIe/T81QfndD0dO8SdifFHtxwZ80kPbolctcEeDgIaAM9MnnvqAiWJ/Oct9uecoADqo9O8FJ/nJInJTQfD2jzd6/8yzoOwvchiWbgtswTrY9zpk9ehTr0YfmNtyOHba4yXqDv/U5zw3+oYA2WjvSg0yu3SULdLLbxrvk6nNiDLqEk9ttZrfbDLVFLMcbsInaPt5FO4O53+OLC3skY8OVFoxHk7NRUTiLShAsUIsnaj+8sPdLvse/XlLjld1GOTBZOxojvX7cdlij9cXF2Q1nl+kN2sXse1VB6dwSFYXdqkXNPu5YuvRGX9m9cE3MweWuYlgxx7Lhmb1obNntsnDL7FPN2HC775jMaQ52E0rsQKyguuoXT2KkY40HfHVvIfh44sxrmnHajBux3U/C+cAz2iHzagRHvbnZ01em9aPUNZ1AP3QY2XuWYjfDJzPAzDDxeocXo3JQeC99Uo7lZxM4dkNtJfYbsvuU2ZixEqYrPHJFauvQSWejSV5ca578rcPWTAiBcC2i2BdrMuzNo3XeDc3RPOMwLCW9Ibm78xA3J+yNzuYCcTq2RmbamyfDMJYlPxPKyaB0KmjzrGRBBunEBRvju5NOfyt4lWyUTt9KWtfPVvI4syQKFpTOjcySYQdm+LRxgRDcGOf43QvuWSmQD/N1+9vT8/Ptcdz+H1/D5avbSzp//hc=);strokeColor=none;spacingTop=-3;spacingBottom=-3;spacingLeft=-3;spacingRight=-3;points=[];labelBackgroundColor=none;rounded=0;html=1;whiteSpace=wrap;" parent="_eA7hQRQa1pNzd35qElG-70" vertex="1">
          <mxGeometry y="0.4489795918367347" width="39.711999999999996" height="36.816326530612244" as="geometry" />
        </mxCell>
        <mxCell id="_eA7hQRQa1pNzd35qElG-72" style="vsdxID=19;fillColor=#FFFFFF;gradientColor=none;shape=stencil(nVvZch3HDf0avnb1vjw79n+4YjliRZFctJyQfx9MyAYwB9M9V3mTaeCemW4sB8s8pZ/+/PzrH5+eov/z+8u3f376z/Nv3z8/pb89xfj89fOnl+fv9K+n9PNT+un3by+f/vHy7a+vv73/9x+/HpLHv/717d/HL7y+6yXvejq0on97/0t0qf/vD7+8y//9r5d3hfChkVzrHxoBVPxr/BBqLrYPofknN2XSxx+661Pm40/ZtbLFHi7kM3Z2YwD2cDmcsZVQYqHaz+DFxXQDPsoZvLhcz+DZu9zP4MW1M3YOzkfEHnmHnelkGmJ/qAh2d22csaur5Qxeoovw4t2lsAMv3Q248RAcgNfsOrx4oEcMZ/RKd5PP6DHcGBzpDHj3w+LSGb95V+DWyeR8PuM3OvoC+GkaxwKfdFIA/OxyA/zgCrz/YXYWvyM+GVHc4icXBuA3vmnGz64kwKeDS4BfjM+lMCPACr8ap0vReXx/JRVZCuGruGZiobI1fdKpYH0UgmIBeAo4cP0kNcDzSKrB8ac8LXKF310BtyedEQF/uFQBv7gEUadTdEiAX1zdHj/poPknucWJ38n8DHyH1yehhrdP17ZFTxzbGb26Dm/fJcC+qQyAb1/Zaxl+6/l9SKySIJzB80ecgVviPbk5gI/sEmabdBPxSadiuknG80lqYL5JxvP1b0387ML2/fUzSyKokHJGcgVyrZZKLOWTwe+nyPfl+auiBnSueV7qQsE8cHAVQlUuLuCF+fkz8sBKKrGUh0QlUo8bzAV+73yHCj+hszRX0WBY6vLASCOfzwvlzfNSbDOPWwM8bnElmsftYF/kgi2ax+3b0Ea/HBG/msxCrxXQvxonW8ZXhzrxu4vbzEbX5SGzkg5SKpIqkFlIqmJwGa4Hgz/2/n1hroNpjPIveP0SJP2Jew+AL+w/1+5FvHBqsMLYmgupIBErifMeP281TIikMsYjJZVQaoWvdIL95YnfhGMJfgX2r6UEf2ztRetMfIqhGA+bS+AvJIWpWEslltqnYq0z8Sm84Plf4BdJmZv3r87Xm/PH0ot0GuYjZSUTv3MsY3wllVBqZbCswRmi5q1CaGeFNE9rnfEGWNjhfkD2KNY0iAjHocMNN0i3IrKqcxrf5VuwPzvPMvJdvkX7iOsyy7z8+bRIw4cfOV6rQPwuby4wDK6HVgp4JCE5IEAdrV34oaLCEGyqob3E6uO21I+m6KDaKYKrR6nIZxlamDVMcCU0HyfPJLsqt5m7voltzPTKVmgKvoswE+L0aZ0X2jbMBGGPDB/Y8yd8KMYOi1SqjN/cQHx/U/BFb5xQqLKcfWOjV7S7Az6dUkZaEiZfXTVavFDVwDoe2zxBCLU0XzrQXioCMc2J1Aq/swEzvvpl4fgBKr5MNwv4xKcSstg6TXRlfWJrihb2+27PBS08+IxlsXtaWCScbfCPbIW0UJFHySkB3x9pIYQ1pcHge9pPj4L2YsskxRRUmRah6iDnLBAt6Fb9/ry88dcrexkOGwTDZGU6m2JKZBf3vcEmxfe04MY/w/BUnGCHoBpWQlLca1p0CM63RVc+WyEft2UaGg8o9G080CoBHkreTwlFI5SskLxe2h/vJTp2QLJ0WjcdEC2VWKrt375Iy1ACFCYjLSXmhe1XcouITQh/037NyfSfREdHw4zRwLuK5qViZkKpFX6QPBfsL6/77hfvr+cHj7rXYUXoXrb/R1IZ3dsz/X2Vy44QjSmN7rOB8mVu/1bpVoixYfeZ+8p64uIRPrt9LlYq6+a3zpjRSiUrJfA3Q5fO/RDGT3bko6Sk+V/s62MuJKm4P32lI/g+3+PHi3mXef14R4Uujt/OPrRUtFLJmIjA+21FpO11wgc77LO2TxQSUxuF+QGpjQqStvV90gng+6Gb1EbuiEycaC/WICSFBbcMqC5TleaOHwr5hrofkwmgAqST0VyVVGQpj8EqmWAdePb6A/iJ22eMH02HgKQ8UudoOgRUzexLB9LJiB9Nh4SoOzBXNU+UsRTw9uBnt25dN3SIlKSToXmgpaKVSixVqsGP26qRdAB+8AkqdGTNg5sZXDQNriO4eeD21bIqs2ahLrXgdMpqhvKVufar5KOEBPgmRpJKh7ZUMjEqSsuWgwRTFvXiGehnvCnV9Vmt1xE8tnCVTLJ2kUDoOjzcrk7crVr4H3wxb44U2x+e3V8V4AHu098wHrKKAk7suVf9KvQinrHZqV8luSPZmmaxQo4y6pjTf54VKWTT/bMu1Mz0iGJMONX95+vUhg9BaW33yE2CNCVUnwS5gZZKVkqet/+o310EWy0VWQr7lRdmIlLroIPjE0kQgj9mua+TDXCTC8eXjLh2kIzw2SwGaDeKVmodcSVvP96mIp0BZf9FwCfagdMYFaAe5CYmmBDl2WenYIbJV1wqSs9+Pu6QanNNDcj9w76OSmZ4JPxTczkcnlys8WheKEz+Zncsmzqai58dlaRwgztU+iEnfL0Z9V69/pAp5poZyoLKjkrfl7GWSovO7vhNnrQd1ZuFwWC2KDA/XzipfjiJkb2b195XEJrzyGsPCBJk4maFwvaSQ2VzfXjEfUQR3EgY0heQgIytSTWHFv45AL4QS93GqGp6NzKVFnSTIEqVwMCkoUAyrxnasucIpRRYfrc9cSW/p37eXG0tDizLn1+sRcP0s6F9rcEc1OwtyByNp2LGlY5UCDZ1LFNBVUyWB+gkVHcNV2kj/3/yN1NFK5/AxqBd72U75EMhu41ZFOkMiPy+A3oMv+C8j1k09vcrjyikrvPn025ZFl7SWWa9ooJcWH5VFi4i8HD9fOuBP0ltN0Qah6A3VvCbux5d8sIjd3Ehv59RW4UybtL+GFwnzOvsdoVvzL6KhKBm4r+WkpWJve1oHZkWIevhK1ULG9g/EplH10VEI6DGBvliVWZIf03GVDerQkpHIn+z5w7ZXqeHxJeeMO+Emz6U1lmPsLWBr0fYJFUsftqZqdqT4aizb1yNYhpXWb4jUKtg2DsSBiAPHMzMPXMjdYWvllgD6uhV14wzXyUliyZm1bPNP10fmFohXSg8shtrdwf1TcikrNjQiHz6ftVUWYUMfXnisbawHM3HIDqAP7qkoE1hEsvBk6LNquvVYnQzjZK7mWivsleiGD4uSmU79LXlRI9y+0Ly9/GlR8OBjg+DcNPWbqUroQmvFtwFfl9760X6gDp6Kd+cfjK1P0lVrKbS/EJn9VGAWveX1jf22UnKI779JqLLfFN63zefZFx8kxDMmpyWks77rAIVPm6qHc2FbXjXX1tIMctxcOIXw4BVW05xMlx5uBtKahonpTwuKGGTUDoEgp0Mo7idCF59jnPxOVLkBRTG5w7J9nMgtuxVSdeu2k7oedWbwKeGETONJvGPWdTNZsd61yVgnjLjWArxAVqePEOQuivaavpm0UarBFAR8GD24rJpIGkh7k3v1yCCDIR4yFGqwfaAncwcVq8qMPbNHNZupAWz4HTRu4Hy52LEcSp+7lqMJ+HzcEPvn/Bl7R1JL8OoC8brVBtJcsrmTNV2kxzzfs3vYG749YNaYJRGjLcMAlcLtFvIrkvcUC69mLdQMA88TM6/2MvUrxWtVLLHKg+8Xwa+2ITSZEqcHzeCr/Yii4l8xmDgwO4tjP4h3zn//vzly/tn0vr/43fR9Kf3b6rTz/8F);strokeColor=none;spacingTop=-3;spacingBottom=-3;spacingLeft=-3;spacingRight=-3;points=[];labelBackgroundColor=none;rounded=0;html=1;whiteSpace=wrap;" parent="_eA7hQRQa1pNzd35qElG-70" vertex="1">
          <mxGeometry width="40.8" height="37.71428571428571" as="geometry" />
        </mxCell>
        <mxCell id="_eA7hQRQa1pNzd35qElG-73" style="vsdxID=20;fillColor=none;gradientColor=none;strokeColor=none;spacingTop=-3;spacingBottom=-3;spacingLeft=-3;spacingRight=-3;points=[];labelBackgroundColor=none;rounded=0;html=1;whiteSpace=wrap;" parent="_eA7hQRQa1pNzd35qElG-69" vertex="1">
          <mxGeometry x="0.544" y="0.4489795918367347" width="38.624" height="36.367346938775505" as="geometry" />
        </mxCell>
        <mxCell id="_eA7hQRQa1pNzd35qElG-74" style="vsdxID=21;fillColor=#2d5967;gradientColor=none;shape=stencil(nVbbUttADP0av2pW2vszhf9gIDSepgljQgt/3029V629TPvmKJLPkXQka5J3b8fH18NE4u26XH4cfs/P1+Mkv01E8/l4WOZreJrk/STvXi7L4ftyeT8/r79fH2+et6efl1+3N3yscVLcQkh8xp8KlPtreVi9T/O59iYg+08BEtC1AQgG64Cn92UlhNHBgKMYEk2oQUfTB60mpcFj9IomJDAqesnoZUCa6CW51yZhVaHvBHDCpipKMoFv6VrR0SUEx+ha7OgSgcJ9upbAyoYuKbCjAM29cZicUyB8m1wgTqZNz3nQmqWX35zT85UYUnoO7BDfb+A7QIbvOXjlksA1KF5bC9oPwXsphhiBDNxl3WV8A4olj0IwdA3ODNErxmkQHHjLSm+LAsogCNui57YnNgr8WNS2E3XoBBtCXTGMJsEGUBVhSPaaHWRVSTojs36HJZIbk+oAhlpsqroneV92wKmS6H7HU5aV3Cxvdw8eSAs5AsdqSaRlqEHw3Du1qWByDL5bJNqDtUP0EpI0IEDqFpwlbrOGi9KKbmRWqBwKHbEbszD2TrbQ6MsmKJPndAtP1TCyydveh9Xm+i93H+o2+ABSxXonoNPgRjkEOKZBrD5txAtddFANU2oHAQ63Xj/5VoLmG7/MCeXPIN86rtv3QVJ+OP0bWggHgXUtOvVaKIdIhpds4351q3xxCoWHckW9zKfTeoTV//OrK5jWi03e/wE=);strokeColor=none;spacingTop=-3;spacingBottom=-3;spacingLeft=-3;spacingRight=-3;points=[];labelBackgroundColor=none;rounded=0;html=1;whiteSpace=wrap;" parent="_eA7hQRQa1pNzd35qElG-73" vertex="1">
          <mxGeometry y="14.36734693877551" width="23.936000000000003" height="15.265306122448981" as="geometry" />
        </mxCell>
        <mxCell id="_eA7hQRQa1pNzd35qElG-75" style="vsdxID=22;fillColor=#2d5967;gradientColor=none;shape=stencil(lZPRdoMgDIafhlsOJCpw3XXv0bPayZnTHmq39u2LS2zBde54B/FPvvzBCNycmt2xFqBOQ+g/6m+/HxqBLwLAd00d/BBPArcCN4c+1O+hP3d7uh93o3I8ffZfY4UL5RmUWIxZoK4U0YUE+xN5pYS3c6AMTYKqkpXlFA4ZqbnIBShSOukcizikWIF0LWIZwwpMFX9gMXYKOVblTB0V5SJTreCl1fR8NHcmKKl0zgQtC8y5ae+TfZC2WuKn85kmH/nu3zkbK0uT89Mn45BWi+5tzJi5d/eOHxNXKmenHTLIRe96pfcndEhcTUZ/e38y+/QPx/k7Mr/13bqdiIfHRh1829JCpt/nGxhDtL24vQE=);strokeColor=none;spacingTop=-3;spacingBottom=-3;spacingLeft=-3;spacingRight=-3;points=[];labelBackgroundColor=none;rounded=0;html=1;whiteSpace=wrap;" parent="_eA7hQRQa1pNzd35qElG-73" vertex="1">
          <mxGeometry x="15.775999999999998" y="3.5918367346938775" width="1.632" height="0.8979591836734694" as="geometry" />
        </mxCell>
        <mxCell id="_eA7hQRQa1pNzd35qElG-76" style="vsdxID=23;fillColor=#2d5967;gradientColor=none;shape=stencil(nVvJclw3DPyaubK4L2cn+Q9XLMeqOJZLthPl78MpiQCmwWWcm0yD01xALA28S3j37dP7rw8Xb799f3768+Gfxw/fP13CLxfvH798enh+/N7/uoRfL+Hdx6fnhz+en358+fD676/vr5LXv/56+vv6Cy+v85y11zne/nv7799ehX//8fwq7VAcB17860BrJvs3GR5K6U0qaCkecjtoOWUMVZOTgvcJ4KvxgF5NLYBeTElb+GoSoBcTALwah3tnIYEUATybegP++fGLuKP+37Tzt5Fk2n61kUHGUDA+wnq9cQ7Wa01rtwuuzUQ4rT7k2g6/VlPgsq5DgN+HQrzF70Me8YtJDfCLqXGLn0xxgJ9NbIAfjK2An4yLgO9NCIAfxtAKP5iYAZ/mMH40LQO+N7UCfjYW9+9NvMG/VZjrVseNLSaoBYtDHkPOtHrBC6Nr9VqKtaMmWDBJrRTW0s9s8CcK26USvrCu6XhhJDV/YYHRFxPUghMvxemljAVnenRiwRYOTEqNBVvj9gcm5rwNlWbKGb9LecRPpuZb/NKf5h6/axRcWIkm+MtJYYqlIVKYqF54rkOFVwrr1QvPhcwv4VsTwR3kfiSAX8hDEHwcJ7KAL90CgYHrc6K7he9StgC8kBrwmc6N8MOwDCv8vkDcfjAJ8YPJYOC6lM2A702C689unO4K3xm4/WxpRQTfVR1OPzUyjARveZFvQ6mOx7WCt8OtDvhUTM4Az0KehDwcfm6mgbFI2ZTt4XfltPD2UjAOQpGuaA6se9SRUNcHD7of6Tms8Lt2wOXHftPg3a76APuP/dGAd+1SDi4/9rvd43vSYcK35KQI31F0NvCD9u5dbWD7IZu2de4pjvURvM8mga+IWQWirt8bPP0OVsH0Oj9OZIEf3Ii+OLhirfa0onEhZPlYQ9+gvHggAYQW4F5pvtDpsU+h0+MyhkoTdhdyENZ1O7R9dXLKuAvyHC98yGBykrJ4XSaCxSOhFXYi1R3YXeVvoRtd74C2t7iRLCRdtgnbQLpbS9B0Mny0YYrYSM3ZFhAMXHM0W1jIsioZ6Bev1jWWQWortlvhbbl4OOZkPMStLqorTiZDUNFvh1w/KZOFK75e4dand/2DK3bCWXsl5EkoFwQvoNsstHIpyqhIczHiCWXS+psIAN6NwS22p5BnFUzxcsczd/TUWLsLxBLeU3jB2LjxLpR+FtybBuDOkk4TeqAsmtRcSA14Cgqnkbdj84+WfGUIhFsZ6+0mBwJfJ1zUeDI6U3DCRQ6HEEzZ4wuHPYyESBr5QVh4I+zXGD8r58sucoXfDwiCj6BTaynltRTjN3ik4ZTau6L338ggEH6hN0nBhwgRgpYKJJW23l/O4eCjNYXvwUxwWLPbfw+Rwh5fzHE0pyC+Pv9J8CWlBj7RNGt8ByaaA0apfwX3nw1eP3tmgj/xYBP1T8oROxGgDrOt3ZMTYTSnfW1rrCbhjzZWV/sF8Y/MTYdlSirt4d9aweu0rwgjPPA5nxy7bzSP4LtTx/iLEtgVvJgzfKb2kF2qYdKr/bOU4lxkHx3IOSIXwdB3gi+kNviUwU59hZxBE2zeTGicWOM6VvGe5Yzd6bPzJFUxwNZBSHc4YFwyRRQreM1qSL5kwAu+hDP9CBc8SW1KGqn2Cn+Q8Axf6C29sCEtsPvac3jwrTEqnvvAwkVBqf3fCbSO+QSxpsUEPJE+JSCTS9wcH4kgEL2WYtuewd4yZzdfsKAyaYLfXmH0ipic3aFVCy4ih+ZgAJncrkJ+e2BS7ZgswmB2osKSvhv4mnrvfiRvbZR4dWtmKmheMIkka5iofjm36IoaOhmcdMqp5ZThT3VSPTGpUmptUtMpr56Y9BRnJj1BONelbFL4YPAoNLjfn8rf9SQVo0JHcMG1BtzICj7fdfgiUPCoBzKccJBtH2nMnhxFeCsTZfVTFjcBpyKlxluh2GCFL+asSfQZfiF9EPgBjNuRxO9ZboRwLuuk22saeULii8hwFc5A6ilYsjujg0nukRoxMZvcJxHPtOPf4qmsOyHg+hx4LY5JZgr9E74WKcTodpt5eKu0hbMleVsRogOZHwb9W5z5lhM+KEugOvCO++xSARMvffiB6sOrw69Y8uhTLMILZtNrqXXmE9KB9J/l3ZGig13er0vKMjvkYNXueY+kih5elBIHflR599V6I77ID9l87kNTF1Te60XQu+Z9JJU28AWHxBoRtrZKMFVrfnBCkzltqpqmRrHeCAV942/r+e5YH9Rs5qQ8OJhBXuykOkjcliiQ7EMwwQ/z4akQjDwoRcwqAIsK+1SaEzOYVAZkUQUgQhtDKU2dnwKpopCjsszeWOQlVEGyq0IGWoJczP1Pc+KVNCOpa7ETRoiE7uejGr1uYZYaqpqlxGpDB7Li3G2V++P2GMGpSrCjArcsxkWIINypDO49JXkCvmAA51UAOcPXAdQZXwSdjpTM4fZ1GwK/4V324JBfuYOvcLoNIoh+pHXNpqek2LZzNMoxE/NLTiFSPYPqVZ7YCVEMwLalpC0dU9YrSydM6JqMTsIar8noJKw8k9Flj19VMSTqPr+ky1Yxqj63pN3SMSRMungUqZmRS3ZWdyKI1s1h2h1FE2RzKU1fdyJYiAn7ZXvE96OmwxafOWtBPmIjCNr8W68s2zDeJpyy/awtddK9A1kHcRP6POsi+rFtKesEIif1XooO4Sf0ZpkkfCcCu0SKL0TCmRBfNDetE86iE26WWuFXRQ5RxUE2jSG7Wyy9TWpaC5pepVLAui01IDemyxdVm8uia6210ETCj4cCu5zjcM6uLZdZP8YXrX33coOyldjRnAw5RBOOgLlJh12egsEc+GVYg/vbgnkO798REUr4OofRTYOFytD3Nw0WXbqWUl5L8V4jqt8RX/QkbfA13TXpGS26enbk0vucBuovu2G9lvJaKmipVXnhPnxsMpbtmAOf2qd3TZvHJmt5ZwNfp/BFc601cYFXFA4A/tQ3VxUzXjV/IrvdxxC1BOyMXzvFSrLb3dEcjJUmxq85OraN8Wunwv3E+DRduO9LAuVvorWSsRymSaemzT6n4vaTorqbLiTxxx6Mr2trbVT31/3qEd5+05Ga7AQfQ/oLlqw/3jl+PqMDdZ4j29UbBMqTr3cKdVwR/BBaoTPU7tuhyec7VA/dfTsEXy7BtwXii6R75A9fZP2UcP+DP/z6+Pj58+t3Y/L/8UOxPvT6kVn49T8=);strokeColor=none;spacingTop=-3;spacingBottom=-3;spacingLeft=-3;spacingRight=-3;points=[];labelBackgroundColor=none;rounded=0;html=1;whiteSpace=wrap;" parent="_eA7hQRQa1pNzd35qElG-73" vertex="1">
          <mxGeometry x="9.248" width="28.832" height="19.75510204081633" as="geometry" />
        </mxCell>
        <mxCell id="_eA7hQRQa1pNzd35qElG-77" style="vsdxID=24;fillColor=#2d5967;gradientColor=none;shape=stencil(lVfLctswDPwaXTEE3zynyX9kGqf21I0zjtOmf1+qpCQQFCn5ZtMAASx2YXBQDx/H5/fDIMXH7Xr5efhzerkdB/VtkPL0djxcT7f4aVCPg3p4vVwPP66Xz7eX9P39ebQcP/26/B5v+Ep+XoFQo5cUf9OJAuv+Hzwl+++f1+SA6XcnAWX2yEcIwqSTL5lOLILEbJSPRLZQ6asO4LKBogaNqMoD+jKqKENKB9KVIUleOQZaUCzsVr0EoAkBUKqMLVhcCUKXgUUZFA04pFHPpzfSlck69yiA6BgTqNNBEFPdjZIkaNbBgIBlSYhgJCtLsB4aAYrVJbpdjGyzDMzl0hwlODC+DEyyy3ECoYNiRusgCdHHqG+OGlD3KosJucArgxBYbQbQlLVZ8Kw2KskGR8tktzVcap5Ij+XQknwtPpK2nBENTPIYEwtlcdRq0UK+vYUt8ZmwjWL3ZXya5DQSFBi7NXYWo5ZaiMCwvjjH8qBZdJqjqoz2Fk9csEZVzil6JtaaV3XpvO8lrTZpUrKKdimnbkB1ReMtCFsW5x1oXRbn1Dxv54EgZx21q1uM2o2dUcP64nnqVbymSTY7G6v3PdEuDrnMSLNetkhmB87ITAWQf0HPeOhslW0N1mLUCG8XF6zvnYAhk4h0b3MEOAFo21jtoNbdDlvktRK8upO8VkNg/Vghb0TSMkhWpDkb7ScvvbhNXppkk7w2pt35e6zIqx3YLn1W2Bu3B8mG6Ap7jZyP2mgtRrvZS+9ts3cMxbSzQt9YPco2WjvIdbfDFn3jvuy6w88TqPORjuscp2+9sGgDZnP2Lkb76UsvbtM3Juk3Z68K01tgH32lBtvdgLBeQaQBy9NVEHSZbvzTdGW2K0+Q8enSFzt520xHYcFBzj3nG5CKaLENrG7WYtRST70B0YsnrpCHoayTbG+3m+WvjFqC66TeegOjLWqrt2r+lhgrbd3tED8sD/LX0/mc3vP0d/6Aj0fp8a8e/wE=);strokeColor=none;spacingTop=-3;spacingBottom=-3;spacingLeft=-3;spacingRight=-3;points=[];labelBackgroundColor=none;rounded=0;html=1;whiteSpace=wrap;" parent="_eA7hQRQa1pNzd35qElG-73" vertex="1">
          <mxGeometry x="20.127999999999997" y="18.857142857142854" width="17.952" height="17.06122448979592" as="geometry" />
        </mxCell>
        <mxCell id="MIznTLobwmh9sBrvItSn-95" value="&lt;div style=&quot;font-size: 1px&quot;&gt;&lt;p style=&quot;align:center;margin-left:0;margin-right:0;margin-top:0px;margin-bottom:0px;text-indent:0;valign:middle;direction:ltr;&quot;&gt;&lt;font style=&quot;font-size:16.93px;font-family:Oracle Sans;color:#000000;direction:ltr;letter-spacing:0px;line-height:120%;opacity:1&quot;&gt;OCI GG MySQL Conn&lt;br&gt;&lt;/font&gt;&lt;/p&gt;&lt;/div&gt;" style="verticalAlign=middle;align=center;vsdxID=25;fillColor=none;gradientColor=none;shape=stencil(nZBLDoAgDERP0z3SIyjew0SURgSD+Lu9kMZoXLhwN9O+tukAlrNpJg1SzDH4QW/URgNYgZTkjA4UkwJUgGXng+6DX1zLfmoymdXo17xh5zmRJ6Q42BWCfc2oJfdAr+Yv+AP9Cb7OJ3H/2JG1HNGz/84klThPVCc=);strokeColor=none;spacingTop=-3;spacingBottom=-3;spacingLeft=-3;spacingRight=-3;points=[];labelBackgroundColor=none;rounded=0;html=1;whiteSpace=wrap;" parent="YdG8qfdtloJJfCclqbba-11" vertex="1">
          <mxGeometry y="238.8571428571429" width="102" height="25.142857142857142" as="geometry" />
        </mxCell>
        <mxCell id="MIznTLobwmh9sBrvItSn-114" value="&lt;b&gt;&lt;font color=&quot;#ffffff&quot;&gt;2&lt;/font&gt;&lt;/b&gt;" style="rounded=1;whiteSpace=wrap;html=1;fillColor=#330000;strokeColor=#36393d;fontFamily=Oracle Sans;labelBackgroundColor=none;align=center;arcSize=50;" parent="YdG8qfdtloJJfCclqbba-11" vertex="1">
          <mxGeometry x="34.68" y="70.28571428571428" width="40" height="40" as="geometry" />
        </mxCell>
        <mxCell id="LHHHwAimLA2ammTCAFYy-9" value="10.1.1.102" style="text;html=1;strokeColor=default;fillColor=#000000;align=center;verticalAlign=middle;whiteSpace=wrap;rounded=0;fontColor=#FFFFFF;" parent="YdG8qfdtloJJfCclqbba-11" vertex="1">
          <mxGeometry x="24.48" width="61.2" height="37.71428571428572" as="geometry" />
        </mxCell>
        <mxCell id="YdG8qfdtloJJfCclqbba-15" value="" style="endArrow=classic;startArrow=classic;html=1;rounded=0;entryX=0.113;entryY=0.2;entryDx=0;entryDy=0;entryPerimeter=0;" parent="1" edge="1">
          <mxGeometry width="50" height="50" relative="1" as="geometry">
            <mxPoint x="896" y="346" as="sourcePoint" />
            <mxPoint x="1015.04" y="346" as="targetPoint" />
          </mxGeometry>
        </mxCell>
        <mxCell id="YdG8qfdtloJJfCclqbba-16" value="Port 1522" style="edgeLabel;html=1;align=center;verticalAlign=bottom;resizable=0;points=[];fontColor=default;labelBackgroundColor=none;labelPosition=center;verticalLabelPosition=top;" parent="YdG8qfdtloJJfCclqbba-15" vertex="1" connectable="0">
          <mxGeometry x="-0.038" y="2" relative="1" as="geometry">
            <mxPoint x="1" as="offset" />
          </mxGeometry>
        </mxCell>
        <mxCell id="YdG8qfdtloJJfCclqbba-24" value="" style="group" parent="1" vertex="1" connectable="0">
          <mxGeometry x="44" y="130" width="137.52317880794703" height="350" as="geometry" />
        </mxCell>
        <mxCell id="YdG8qfdtloJJfCclqbba-20" value="&lt;b&gt;DB Subnet&lt;/b&gt;&lt;br&gt;&lt;font color=&quot;#312d2a&quot;&gt;10.2.1.1/25&lt;/font&gt;" style="whiteSpace=wrap;html=1;strokeWidth=1;dashed=1;align=left;fontFamily=Oracle Sans;verticalAlign=top;fillColor=none;fontColor=#AE562C;perimeterSpacing=0;strokeColor=#AE562C;fontSize=12;spacingLeft=5;" parent="YdG8qfdtloJJfCclqbba-24" vertex="1">
          <mxGeometry width="136" height="350" as="geometry" />
        </mxCell>
        <mxCell id="YdG8qfdtloJJfCclqbba-21" value="" style="shape=image;verticalLabelPosition=bottom;verticalAlign=top;imageAspect=0;aspect=fixed;image=data:image/svg+xml,PHN2ZyB4bWxucz0iaHR0cDovL3d3dy53My5vcmcvMjAwMC9zdmciIHhtbG5zOnhsaW5rPSJodHRwOi8vd3d3LnczLm9yZy8xOTk5L3hsaW5rIiB2ZXJzaW9uPSIxLjEiIGlkPSJMYXllcl8xIiB4PSIwcHgiIHk9IjBweCIgdmlld0JveD0iMCAwIDMyLjM5OTk5NzcxMTE4MTY0IDQyLjE5OTk5Njk0ODI0MjE5IiBzdHlsZT0iZW5hYmxlLWJhY2tncm91bmQ6bmV3IDAgMCAzMi4zIDQyLjI7IiB4bWw6c3BhY2U9InByZXNlcnZlIiB3aWR0aD0iMzIuMzk5OTk3NzExMTgxNjQiIGhlaWdodD0iNDIuMTk5OTk2OTQ4MjQyMTkiPiYjeGE7PGc+JiN4YTsJPGc+JiN4YTsJCTxwYXRoIHN0eWxlPSJmaWxsOiNGRkZGRkY7IiBkPSJNMTUuOCw0MS41QzgsMzguNiw0LjMsMzMuNiwyLjUsMjkuOGMtMi00LjMtMi03LjktMi04LjFWNy4zbDE1LjctNi43bDE1LjYsNi43djE0LjUmIzEwOyYjOTsmIzk7JiM5O2MwLDAuNi0wLjIsMTQuMi0xNS4xLDE5LjdsLTAuNCwwLjJMMTUuOCw0MS41eiIvPiYjeGE7CQk8cGF0aCBzdHlsZT0iZmlsbDojRkZGRkZGOyIgZD0iTTE2LjIsMS4xbDE1LjEsNi41djE0LjJjMCwwLjYtMC4yLDEzLjgtMTQuOCwxOS4ybC0wLjMsMC4xTDE2LDQxQzguMywzOC4yLDQuNywzMy4zLDMsMjkuNiYjMTA7JiM5OyYjOTsmIzk7Yy0xLjktNC4xLTItNy43LTItNy44VjcuNkwxNi4yLDEuMSBNMTYuMiwwbC0wLjQsMC4yTDAuNiw2LjdMMCw2Ljl2MC43djE0LjJjMCwwLjIsMCwzLjksMi4xLDguM2MxLjgsMy44LDUuNiw5LDEzLjYsMTEuOSYjMTA7JiM5OyYjOTsmIzk7bDAuMywwLjFsMC4zLDAuMWwwLjMtMC4xbDAuMy0wLjFjMTUuMy01LjYsMTUuNS0xOS42LDE1LjUtMjAuMlY3LjZWNi45bC0wLjYtMC4zTDE2LjYsMC4yTDE2LjIsMEwxNi4yLDB6Ii8+JiN4YTsJPC9nPiYjeGE7CTxnPiYjeGE7CQk8cGF0aCBzdHlsZT0iZmlsbDpub25lOyIgZD0iTTIuNSw4LjZ2MTMuMmMwLDAuMSwwLDMuNCwxLjgsNy4yYzIuMyw0LjksNi4zLDguNCwxMS45LDEwLjVjMTMuNC01LjEsMTMuNi0xNy4yLDEzLjYtMTcuN1Y4LjYmIzEwOyYjOTsmIzk7JiM5O0wxNi4yLDIuN0wyLjUsOC42eiBNMTYuMSwyOC4zSDd2LTEuNWg5LjFWMjguM3ogTTE2LjEsMjEuNUg3VjIwaDkuMVYyMS41eiBNMTYuMSwxNC4ySDd2LTEuNWg5LjFWMTQuMnogTTIwLjIsMTIuN2wxLjIsMS4ybDMtMyYjMTA7JiM5OyYjOTsmIzk7bDEsMWwtNCw0bC0yLjItMi4yTDIwLjIsMTIuN3ogTTI0LjgsMjIuMmwtMSwxbC0xLjUtMS41bC0xLjUsMS41bC0xLTFsMS41LTEuNWwtMS41LTEuNWwxLTFsMS41LDEuNWwxLjUtMS41bDEsMWwtMS41LDEuNSYjMTA7JiM5OyYjOTsmIzk7TDI0LjgsMjIuMnogTTIwLjIsMjYuOGwxLjIsMS4ybDMtM2wxLDFsLTQsNGwtMi4yLTIuMkwyMC4yLDI2Ljh6Ii8+JiN4YTsJCTxwYXRoIHN0eWxlPSJmaWxsOiNCQjUwMUM7IiBkPSJNMTYuMiwxLjFMMSw3LjZ2MTQuMmMwLDAuMSwwLDMuNywyLDcuOGMxLjcsMy43LDUuNCw4LjYsMTMsMTEuNGwwLjMsMC4xbDAuMy0wLjEmIzEwOyYjOTsmIzk7JiM5O2MxNC42LTUuNCwxNC44LTE4LjcsMTQuOC0xOS4yVjcuNkwxNi4yLDEuMXogTTI5LjgsMjEuOGMwLDAuNS0wLjIsMTIuNi0xMy42LDE3LjdDMTAuNiwzNy40LDYuNiwzMy45LDQuMywyOSYjMTA7JiM5OyYjOTsmIzk7Yy0xLjgtMy45LTEuOC03LjEtMS44LTcuMlY4LjZsMTMuNy01LjlsMTMuNiw1LjlWMjEuOHoiLz4mI3hhOwkJPHJlY3QgeD0iNyIgeT0iMTIuNyIgc3R5bGU9ImZpbGw6I0JCNTAxQzsiIHdpZHRoPSI5LjEiIGhlaWdodD0iMS41Ii8+JiN4YTsJCTxwb2x5Z29uIHN0eWxlPSJmaWxsOiNCQjUwMUM7IiBwb2ludHM9IjI1LjQsMTIgMjQuMywxMSAyMS40LDEzLjkgMjAuMiwxMi43IDE5LjEsMTMuOCAyMS40LDE2ICYjOTsmIzk7Ii8+JiN4YTsJCTxyZWN0IHg9IjciIHk9IjIwIiBzdHlsZT0iZmlsbDojQkI1MDFDOyIgd2lkdGg9IjkuMSIgaGVpZ2h0PSIxLjUiLz4mI3hhOwkJPHBvbHlnb24gc3R5bGU9ImZpbGw6I0JCNTAxQzsiIHBvaW50cz0iMjMuOCwxOC4xIDIyLjMsMTkuNyAyMC43LDE4LjEgMTkuNywxOS4yIDIxLjIsMjAuNyAxOS43LDIyLjIgMjAuNywyMy4zIDIyLjMsMjEuOCAmIzEwOyYjOTsmIzk7JiM5OzIzLjgsMjMuMyAyNC44LDIyLjIgMjMuMywyMC43IDI0LjgsMTkuMiAmIzk7JiM5OyIvPiYjeGE7CQk8cmVjdCB4PSI3IiB5PSIyNi44IiBzdHlsZT0iZmlsbDojQkI1MDFDOyIgd2lkdGg9IjkuMSIgaGVpZ2h0PSIxLjUiLz4mI3hhOwkJPHBvbHlnb24gc3R5bGU9ImZpbGw6I0JCNTAxQzsiIHBvaW50cz0iMjUuNCwyNi4xIDI0LjMsMjUuMSAyMS40LDI4IDIwLjIsMjYuOCAxOS4xLDI3LjkgMjEuNCwzMC4xICYjOTsmIzk7Ii8+JiN4YTsJPC9nPiYjeGE7PC9nPiYjeGE7PC9zdmc+;dashed=1;dashPattern=1 1;strokeColor=#bb511c;strokeWidth=3;fontColor=#AE562C;fontFamily=Helvetica;fontSize=12;fillColor=#FCFBFA;" parent="YdG8qfdtloJJfCclqbba-24" vertex="1">
          <mxGeometry x="68" y="0.0014754098360754142" width="24.02066225165563" height="31.52317880794702" as="geometry" />
        </mxCell>
        <mxCell id="YdG8qfdtloJJfCclqbba-22" value="" style="shape=image;verticalLabelPosition=bottom;verticalAlign=top;imageAspect=0;aspect=fixed;image=data:image/svg+xml,PHN2ZyB4bWxucz0iaHR0cDovL3d3dy53My5vcmcvMjAwMC9zdmciIHhtbG5zOnhsaW5rPSJodHRwOi8vd3d3LnczLm9yZy8xOTk5L3hsaW5rIiB2ZXJzaW9uPSIxLjEiIGlkPSJMYXllcl8xIiB4PSIwcHgiIHk9IjBweCIgdmlld0JveD0iMCAwIDQyIDQyIiBzdHlsZT0iZW5hYmxlLWJhY2tncm91bmQ6bmV3IDAgMCA0MiA0MjsiIHhtbDpzcGFjZT0icHJlc2VydmUiIHdpZHRoPSI0MiIgaGVpZ2h0PSI0MiI+JiN4YTs8Zz4mI3hhOwk8Zz4mI3hhOwkJPHJlY3QgeD0iMC41IiB5PSIwLjUiIHN0eWxlPSJmaWxsOiNGRkZGRkY7IiB3aWR0aD0iNDEiIGhlaWdodD0iNDEiLz4mI3hhOwkJPHBhdGggc3R5bGU9ImZpbGw6I0ZGRkZGRjsiIGQ9Ik00MSwxdjQwSDFWMUg0MSBNNDIsMGgtMUgxSDB2MXY0MHYxaDFoNDBoMXYtMVYxVjBMNDIsMHoiLz4mI3hhOwk8L2c+JiN4YTsJPGc+JiN4YTsJCTxwYXRoIHN0eWxlPSJmaWxsOiNCQjUwMUM7IiBkPSJNMSwxdjQwaDQwVjFIMXogTTM5LjUsMTMuOEgxMy42VjIuNWgyNS45VjEzLjh6IE0yLjUsMjguMmg5LjZ2MTEuNEgyLjVWMjguMnogTTEyLjEsMi41djExLjRIMi41JiMxMDsmIzk7JiM5OyYjOTtWMi41SDEyLjF6IE0xMi4xLDE1LjN2MTEuNEgyLjVWMTUuM0gxMi4xeiBNMTMuNiwzOS41VjI4LjJoMjUuOXYxMS40SDEzLjZ6IE0xMy42LDI2LjdWMTUuM2gyNS45djExLjRIMTMuNnoiLz4mI3hhOwkJPHBvbHlnb24gc3R5bGU9ImZpbGw6I0JCNTAxQzsiIHBvaW50cz0iMTUsMTIuMyAxNi43LDEyLjMgMTcuNiwxMC42IDE4LjUsMTIuMyAyMC4xLDEyLjMgMTguNiw5LjYgMjAsNy4xIDE4LjQsNy4xIDE3LjYsOC43ICYjMTA7JiM5OyYjOTsmIzk7MTYuNyw3LjEgMTUuMSw3LjEgMTYuNiw5LjYgJiM5OyYjOTsiLz4mI3hhOwkJPHJlY3QgeD0iMjAuOSIgeT0iMTEuMSIgc3R5bGU9ImZpbGw6I0JCNTAxQzsiIHdpZHRoPSIxLjQiIGhlaWdodD0iMS4yIi8+JiN4YTsJCTxwb2x5Z29uIHN0eWxlPSJmaWxsOiNCQjUwMUM7IiBwb2ludHM9IjI1LDEyLjMgMjUuOSwxMC42IDI2LjgsMTIuMyAyOC40LDEyLjMgMjYuOCw5LjYgMjguMyw3LjEgMjYuOCw3LjEgMjUuOSw4LjcgMjUsNy4xICYjMTA7JiM5OyYjOTsmIzk7MjMuNCw3LjEgMjQuOSw5LjYgMjMuNCwxMi4zICYjOTsmIzk7Ii8+JiN4YTsJCTxyZWN0IHg9IjI4LjkiIHk9IjExLjEiIHN0eWxlPSJmaWxsOiNCQjUwMUM7IiB3aWR0aD0iMS40IiBoZWlnaHQ9IjEuMiIvPiYjeGE7CQk8cG9seWdvbiBzdHlsZT0iZmlsbDojQkI1MDFDOyIgcG9pbnRzPSIzMi43LDEyLjMgMzMuNiwxMC42IDM0LjYsMTIuMyAzNi4xLDEyLjMgMzQuNiw5LjYgMzYsNy4xIDM0LjUsNy4xIDMzLjYsOC43IDMyLjcsNy4xICYjMTA7JiM5OyYjOTsmIzk7MzEuMiw3LjEgMzIuNiw5LjYgMzEuMSwxMi4zICYjOTsmIzk7Ii8+JiN4YTsJCTxyZWN0IHg9IjM2LjYiIHk9IjExLjEiIHN0eWxlPSJmaWxsOiNCQjUwMUM7IiB3aWR0aD0iMS40IiBoZWlnaHQ9IjEuMiIvPiYjeGE7CQk8cG9seWdvbiBzdHlsZT0iZmlsbDojQkI1MDFDOyIgcG9pbnRzPSIyMCwyMC4xIDE4LjQsMjAuMSAxNy42LDIxLjcgMTYuNywyMC4xIDE1LjEsMjAuMSAxNi42LDIyLjYgMTUsMjUuMyAxNi43LDI1LjMgMTcuNiwyMy42ICYjMTA7JiM5OyYjOTsmIzk7MTguNSwyNS4zIDIwLjEsMjUuMyAxOC42LDIyLjYgJiM5OyYjOTsiLz4mI3hhOwkJPHJlY3QgeD0iMjAuOSIgeT0iMjQiIHN0eWxlPSJmaWxsOiNCQjUwMUM7IiB3aWR0aD0iMS40IiBoZWlnaHQ9IjEuMiIvPiYjeGE7CQk8cG9seWdvbiBzdHlsZT0iZmlsbDojQkI1MDFDOyIgcG9pbnRzPSIyOC4zLDIwLjEgMjYuOCwyMC4xIDI1LjksMjEuNyAyNSwyMC4xIDIzLjQsMjAuMSAyNC45LDIyLjYgMjMuNCwyNS4zIDI1LDI1LjMgMjUuOSwyMy42ICYjMTA7JiM5OyYjOTsmIzk7MjYuOCwyNS4zIDI4LjQsMjUuMyAyNi44LDIyLjYgJiM5OyYjOTsiLz4mI3hhOwkJPHJlY3QgeD0iMjguOSIgeT0iMjQiIHN0eWxlPSJmaWxsOiNCQjUwMUM7IiB3aWR0aD0iMS40IiBoZWlnaHQ9IjEuMiIvPiYjeGE7CQk8cG9seWdvbiBzdHlsZT0iZmlsbDojQkI1MDFDOyIgcG9pbnRzPSIzNiwyMC4xIDM0LjUsMjAuMSAzMy42LDIxLjcgMzIuNywyMC4xIDMxLjIsMjAuMSAzMi42LDIyLjYgMzEuMSwyNS4zIDMyLjcsMjUuMyAmIzEwOyYjOTsmIzk7JiM5OzMzLjYsMjMuNiAzNC42LDI1LjMgMzYuMSwyNS4zIDM0LjYsMjIuNiAmIzk7JiM5OyIvPiYjeGE7CQk8cmVjdCB4PSIzNi42IiB5PSIyNCIgc3R5bGU9ImZpbGw6I0JCNTAxQzsiIHdpZHRoPSIxLjQiIGhlaWdodD0iMS4yIi8+JiN4YTsJCTxwb2x5Z29uIHN0eWxlPSJmaWxsOiNCQjUwMUM7IiBwb2ludHM9IjIwLDMyLjkgMTguNCwzMi45IDE3LjYsMzQuNCAxNi43LDMyLjkgMTUuMSwzMi45IDE2LjYsMzUuMyAxNSwzOCAxNi43LDM4IDE3LjYsMzYuMyAmIzEwOyYjOTsmIzk7JiM5OzE4LjUsMzggMjAuMSwzOCAxOC42LDM1LjQgJiM5OyYjOTsiLz4mI3hhOwkJPHJlY3QgeD0iMjAuOSIgeT0iMzYuOCIgc3R5bGU9ImZpbGw6I0JCNTAxQzsiIHdpZHRoPSIxLjQiIGhlaWdodD0iMS4yIi8+JiN4YTsJCTxwb2x5Z29uIHN0eWxlPSJmaWxsOiNCQjUwMUM7IiBwb2ludHM9IjI4LjMsMzIuOSAyNi44LDMyLjkgMjUuOSwzNC40IDI1LDMyLjkgMjMuNCwzMi45IDI0LjksMzUuMyAyMy40LDM4IDI1LDM4IDI1LjksMzYuMyAmIzEwOyYjOTsmIzk7JiM5OzI2LjgsMzggMjguNCwzOCAyNi44LDM1LjQgJiM5OyYjOTsiLz4mI3hhOwkJPHJlY3QgeD0iMjguOSIgeT0iMzYuOCIgc3R5bGU9ImZpbGw6I0JCNTAxQzsiIHdpZHRoPSIxLjQiIGhlaWdodD0iMS4yIi8+JiN4YTsJCTxwb2x5Z29uIHN0eWxlPSJmaWxsOiNCQjUwMUM7IiBwb2ludHM9IjM2LDMyLjkgMzQuNSwzMi45IDMzLjYsMzQuNCAzMi43LDMyLjkgMzEuMiwzMi45IDMyLjYsMzUuMyAzMS4xLDM4IDMyLjcsMzggMzMuNiwzNi4zICYjMTA7JiM5OyYjOTsmIzk7MzQuNiwzOCAzNi4xLDM4IDM0LjYsMzUuNCAmIzk7JiM5OyIvPiYjeGE7CQk8cmVjdCB4PSIzNi42IiB5PSIzNi44IiBzdHlsZT0iZmlsbDojQkI1MDFDOyIgd2lkdGg9IjEuNCIgaGVpZ2h0PSIxLjIiLz4mI3hhOwk8L2c+JiN4YTs8L2c+JiN4YTs8L3N2Zz4=;fontColor=#312D2A;strokeColor=#AE562C;fontFamily=Helvetica;fontSize=12;fillColor=#FCFBFA;" parent="YdG8qfdtloJJfCclqbba-24" vertex="1">
          <mxGeometry x="106" y="0.0014754098360754142" width="31.52317880794702" height="31.52317880794702" as="geometry" />
        </mxCell>
        <mxCell id="YdG8qfdtloJJfCclqbba-23" value="" style="edgeStyle=orthogonalEdgeStyle;rounded=0;orthogonalLoop=1;jettySize=auto;html=1;" parent="YdG8qfdtloJJfCclqbba-24" edge="1">
          <mxGeometry relative="1" as="geometry">
            <mxPoint x="108" y="14" as="sourcePoint" />
            <mxPoint x="81" y="14" as="targetPoint" />
          </mxGeometry>
        </mxCell>
        <mxCell id="YdG8qfdtloJJfCclqbba-27" value="" style="shape=image;verticalLabelPosition=bottom;verticalAlign=top;imageAspect=0;aspect=fixed;image=data:image/svg+xml,PHN2ZyB4bWxucz0iaHR0cDovL3d3dy53My5vcmcvMjAwMC9zdmciIHhtbG5zOnhsaW5rPSJodHRwOi8vd3d3LnczLm9yZy8xOTk5L3hsaW5rIiB2ZXJzaW9uPSIxLjEiIGlkPSJMYXllcl8xIiB4PSIwcHgiIHk9IjBweCIgdmlld0JveD0iMCAwIDMyLjM5OTk5NzcxMTE4MTY0IDQyLjE5OTk5Njk0ODI0MjE5IiBzdHlsZT0iZW5hYmxlLWJhY2tncm91bmQ6bmV3IDAgMCAzMi4zIDQyLjI7IiB4bWw6c3BhY2U9InByZXNlcnZlIiB3aWR0aD0iMzIuMzk5OTk3NzExMTgxNjQiIGhlaWdodD0iNDIuMTk5OTk2OTQ4MjQyMTkiPiYjeGE7PGc+JiN4YTsJPGc+JiN4YTsJCTxwYXRoIHN0eWxlPSJmaWxsOiNGRkZGRkY7IiBkPSJNMTUuOCw0MS41QzgsMzguNiw0LjMsMzMuNiwyLjUsMjkuOGMtMi00LjMtMi03LjktMi04LjFWNy4zbDE1LjctNi43bDE1LjYsNi43djE0LjUmIzEwOyYjOTsmIzk7JiM5O2MwLDAuNi0wLjIsMTQuMi0xNS4xLDE5LjdsLTAuNCwwLjJMMTUuOCw0MS41eiIvPiYjeGE7CQk8cGF0aCBzdHlsZT0iZmlsbDojRkZGRkZGOyIgZD0iTTE2LjIsMS4xbDE1LjEsNi41djE0LjJjMCwwLjYtMC4yLDEzLjgtMTQuOCwxOS4ybC0wLjMsMC4xTDE2LDQxQzguMywzOC4yLDQuNywzMy4zLDMsMjkuNiYjMTA7JiM5OyYjOTsmIzk7Yy0xLjktNC4xLTItNy43LTItNy44VjcuNkwxNi4yLDEuMSBNMTYuMiwwbC0wLjQsMC4yTDAuNiw2LjdMMCw2Ljl2MC43djE0LjJjMCwwLjIsMCwzLjksMi4xLDguM2MxLjgsMy44LDUuNiw5LDEzLjYsMTEuOSYjMTA7JiM5OyYjOTsmIzk7bDAuMywwLjFsMC4zLDAuMWwwLjMtMC4xbDAuMy0wLjFjMTUuMy01LjYsMTUuNS0xOS42LDE1LjUtMjAuMlY3LjZWNi45bC0wLjYtMC4zTDE2LjYsMC4yTDE2LjIsMEwxNi4yLDB6Ii8+JiN4YTsJPC9nPiYjeGE7CTxnPiYjeGE7CQk8cGF0aCBzdHlsZT0iZmlsbDpub25lOyIgZD0iTTIuNSw4LjZ2MTMuMmMwLDAuMSwwLDMuNCwxLjgsNy4yYzIuMyw0LjksNi4zLDguNCwxMS45LDEwLjVjMTMuNC01LjEsMTMuNi0xNy4yLDEzLjYtMTcuN1Y4LjYmIzEwOyYjOTsmIzk7JiM5O0wxNi4yLDIuN0wyLjUsOC42eiBNMTYuMSwyOC4zSDd2LTEuNWg5LjFWMjguM3ogTTE2LjEsMjEuNUg3VjIwaDkuMVYyMS41eiBNMTYuMSwxNC4ySDd2LTEuNWg5LjFWMTQuMnogTTIwLjIsMTIuN2wxLjIsMS4ybDMtMyYjMTA7JiM5OyYjOTsmIzk7bDEsMWwtNCw0bC0yLjItMi4yTDIwLjIsMTIuN3ogTTI0LjgsMjIuMmwtMSwxbC0xLjUtMS41bC0xLjUsMS41bC0xLTFsMS41LTEuNWwtMS41LTEuNWwxLTFsMS41LDEuNWwxLjUtMS41bDEsMWwtMS41LDEuNSYjMTA7JiM5OyYjOTsmIzk7TDI0LjgsMjIuMnogTTIwLjIsMjYuOGwxLjIsMS4ybDMtM2wxLDFsLTQsNGwtMi4yLTIuMkwyMC4yLDI2Ljh6Ii8+JiN4YTsJCTxwYXRoIHN0eWxlPSJmaWxsOiNCQjUwMUM7IiBkPSJNMTYuMiwxLjFMMSw3LjZ2MTQuMmMwLDAuMSwwLDMuNywyLDcuOGMxLjcsMy43LDUuNCw4LjYsMTMsMTEuNGwwLjMsMC4xbDAuMy0wLjEmIzEwOyYjOTsmIzk7JiM5O2MxNC42LTUuNCwxNC44LTE4LjcsMTQuOC0xOS4yVjcuNkwxNi4yLDEuMXogTTI5LjgsMjEuOGMwLDAuNS0wLjIsMTIuNi0xMy42LDE3LjdDMTAuNiwzNy40LDYuNiwzMy45LDQuMywyOSYjMTA7JiM5OyYjOTsmIzk7Yy0xLjgtMy45LTEuOC03LjEtMS44LTcuMlY4LjZsMTMuNy01LjlsMTMuNiw1LjlWMjEuOHoiLz4mI3hhOwkJPHJlY3QgeD0iNyIgeT0iMTIuNyIgc3R5bGU9ImZpbGw6I0JCNTAxQzsiIHdpZHRoPSI5LjEiIGhlaWdodD0iMS41Ii8+JiN4YTsJCTxwb2x5Z29uIHN0eWxlPSJmaWxsOiNCQjUwMUM7IiBwb2ludHM9IjI1LjQsMTIgMjQuMywxMSAyMS40LDEzLjkgMjAuMiwxMi43IDE5LjEsMTMuOCAyMS40LDE2ICYjOTsmIzk7Ii8+JiN4YTsJCTxyZWN0IHg9IjciIHk9IjIwIiBzdHlsZT0iZmlsbDojQkI1MDFDOyIgd2lkdGg9IjkuMSIgaGVpZ2h0PSIxLjUiLz4mI3hhOwkJPHBvbHlnb24gc3R5bGU9ImZpbGw6I0JCNTAxQzsiIHBvaW50cz0iMjMuOCwxOC4xIDIyLjMsMTkuNyAyMC43LDE4LjEgMTkuNywxOS4yIDIxLjIsMjAuNyAxOS43LDIyLjIgMjAuNywyMy4zIDIyLjMsMjEuOCAmIzEwOyYjOTsmIzk7JiM5OzIzLjgsMjMuMyAyNC44LDIyLjIgMjMuMywyMC43IDI0LjgsMTkuMiAmIzk7JiM5OyIvPiYjeGE7CQk8cmVjdCB4PSI3IiB5PSIyNi44IiBzdHlsZT0iZmlsbDojQkI1MDFDOyIgd2lkdGg9IjkuMSIgaGVpZ2h0PSIxLjUiLz4mI3hhOwkJPHBvbHlnb24gc3R5bGU9ImZpbGw6I0JCNTAxQzsiIHBvaW50cz0iMjUuNCwyNi4xIDI0LjMsMjUuMSAyMS40LDI4IDIwLjIsMjYuOCAxOS4xLDI3LjkgMjEuNCwzMC4xICYjOTsmIzk7Ii8+JiN4YTsJPC9nPiYjeGE7PC9nPiYjeGE7PC9zdmc+;dashed=1;dashPattern=1 1;strokeColor=#bb511c;strokeWidth=3;fontColor=#AE562C;fontFamily=Helvetica;fontSize=12;fillColor=#FCFBFA;" parent="1" vertex="1">
          <mxGeometry x="1073" y="130.00147540983608" width="24.02066225165563" height="31.52317880794702" as="geometry" />
        </mxCell>
        <mxCell id="YdG8qfdtloJJfCclqbba-28" value="" style="shape=image;verticalLabelPosition=bottom;verticalAlign=top;imageAspect=0;aspect=fixed;image=data:image/svg+xml,PHN2ZyB4bWxucz0iaHR0cDovL3d3dy53My5vcmcvMjAwMC9zdmciIHhtbG5zOnhsaW5rPSJodHRwOi8vd3d3LnczLm9yZy8xOTk5L3hsaW5rIiB2ZXJzaW9uPSIxLjEiIGlkPSJMYXllcl8xIiB4PSIwcHgiIHk9IjBweCIgdmlld0JveD0iMCAwIDQyIDQyIiBzdHlsZT0iZW5hYmxlLWJhY2tncm91bmQ6bmV3IDAgMCA0MiA0MjsiIHhtbDpzcGFjZT0icHJlc2VydmUiIHdpZHRoPSI0MiIgaGVpZ2h0PSI0MiI+JiN4YTs8Zz4mI3hhOwk8Zz4mI3hhOwkJPHJlY3QgeD0iMC41IiB5PSIwLjUiIHN0eWxlPSJmaWxsOiNGRkZGRkY7IiB3aWR0aD0iNDEiIGhlaWdodD0iNDEiLz4mI3hhOwkJPHBhdGggc3R5bGU9ImZpbGw6I0ZGRkZGRjsiIGQ9Ik00MSwxdjQwSDFWMUg0MSBNNDIsMGgtMUgxSDB2MXY0MHYxaDFoNDBoMXYtMVYxVjBMNDIsMHoiLz4mI3hhOwk8L2c+JiN4YTsJPGc+JiN4YTsJCTxwYXRoIHN0eWxlPSJmaWxsOiNCQjUwMUM7IiBkPSJNMSwxdjQwaDQwVjFIMXogTTM5LjUsMTMuOEgxMy42VjIuNWgyNS45VjEzLjh6IE0yLjUsMjguMmg5LjZ2MTEuNEgyLjVWMjguMnogTTEyLjEsMi41djExLjRIMi41JiMxMDsmIzk7JiM5OyYjOTtWMi41SDEyLjF6IE0xMi4xLDE1LjN2MTEuNEgyLjVWMTUuM0gxMi4xeiBNMTMuNiwzOS41VjI4LjJoMjUuOXYxMS40SDEzLjZ6IE0xMy42LDI2LjdWMTUuM2gyNS45djExLjRIMTMuNnoiLz4mI3hhOwkJPHBvbHlnb24gc3R5bGU9ImZpbGw6I0JCNTAxQzsiIHBvaW50cz0iMTUsMTIuMyAxNi43LDEyLjMgMTcuNiwxMC42IDE4LjUsMTIuMyAyMC4xLDEyLjMgMTguNiw5LjYgMjAsNy4xIDE4LjQsNy4xIDE3LjYsOC43ICYjMTA7JiM5OyYjOTsmIzk7MTYuNyw3LjEgMTUuMSw3LjEgMTYuNiw5LjYgJiM5OyYjOTsiLz4mI3hhOwkJPHJlY3QgeD0iMjAuOSIgeT0iMTEuMSIgc3R5bGU9ImZpbGw6I0JCNTAxQzsiIHdpZHRoPSIxLjQiIGhlaWdodD0iMS4yIi8+JiN4YTsJCTxwb2x5Z29uIHN0eWxlPSJmaWxsOiNCQjUwMUM7IiBwb2ludHM9IjI1LDEyLjMgMjUuOSwxMC42IDI2LjgsMTIuMyAyOC40LDEyLjMgMjYuOCw5LjYgMjguMyw3LjEgMjYuOCw3LjEgMjUuOSw4LjcgMjUsNy4xICYjMTA7JiM5OyYjOTsmIzk7MjMuNCw3LjEgMjQuOSw5LjYgMjMuNCwxMi4zICYjOTsmIzk7Ii8+JiN4YTsJCTxyZWN0IHg9IjI4LjkiIHk9IjExLjEiIHN0eWxlPSJmaWxsOiNCQjUwMUM7IiB3aWR0aD0iMS40IiBoZWlnaHQ9IjEuMiIvPiYjeGE7CQk8cG9seWdvbiBzdHlsZT0iZmlsbDojQkI1MDFDOyIgcG9pbnRzPSIzMi43LDEyLjMgMzMuNiwxMC42IDM0LjYsMTIuMyAzNi4xLDEyLjMgMzQuNiw5LjYgMzYsNy4xIDM0LjUsNy4xIDMzLjYsOC43IDMyLjcsNy4xICYjMTA7JiM5OyYjOTsmIzk7MzEuMiw3LjEgMzIuNiw5LjYgMzEuMSwxMi4zICYjOTsmIzk7Ii8+JiN4YTsJCTxyZWN0IHg9IjM2LjYiIHk9IjExLjEiIHN0eWxlPSJmaWxsOiNCQjUwMUM7IiB3aWR0aD0iMS40IiBoZWlnaHQ9IjEuMiIvPiYjeGE7CQk8cG9seWdvbiBzdHlsZT0iZmlsbDojQkI1MDFDOyIgcG9pbnRzPSIyMCwyMC4xIDE4LjQsMjAuMSAxNy42LDIxLjcgMTYuNywyMC4xIDE1LjEsMjAuMSAxNi42LDIyLjYgMTUsMjUuMyAxNi43LDI1LjMgMTcuNiwyMy42ICYjMTA7JiM5OyYjOTsmIzk7MTguNSwyNS4zIDIwLjEsMjUuMyAxOC42LDIyLjYgJiM5OyYjOTsiLz4mI3hhOwkJPHJlY3QgeD0iMjAuOSIgeT0iMjQiIHN0eWxlPSJmaWxsOiNCQjUwMUM7IiB3aWR0aD0iMS40IiBoZWlnaHQ9IjEuMiIvPiYjeGE7CQk8cG9seWdvbiBzdHlsZT0iZmlsbDojQkI1MDFDOyIgcG9pbnRzPSIyOC4zLDIwLjEgMjYuOCwyMC4xIDI1LjksMjEuNyAyNSwyMC4xIDIzLjQsMjAuMSAyNC45LDIyLjYgMjMuNCwyNS4zIDI1LDI1LjMgMjUuOSwyMy42ICYjMTA7JiM5OyYjOTsmIzk7MjYuOCwyNS4zIDI4LjQsMjUuMyAyNi44LDIyLjYgJiM5OyYjOTsiLz4mI3hhOwkJPHJlY3QgeD0iMjguOSIgeT0iMjQiIHN0eWxlPSJmaWxsOiNCQjUwMUM7IiB3aWR0aD0iMS40IiBoZWlnaHQ9IjEuMiIvPiYjeGE7CQk8cG9seWdvbiBzdHlsZT0iZmlsbDojQkI1MDFDOyIgcG9pbnRzPSIzNiwyMC4xIDM0LjUsMjAuMSAzMy42LDIxLjcgMzIuNywyMC4xIDMxLjIsMjAuMSAzMi42LDIyLjYgMzEuMSwyNS4zIDMyLjcsMjUuMyAmIzEwOyYjOTsmIzk7JiM5OzMzLjYsMjMuNiAzNC42LDI1LjMgMzYuMSwyNS4zIDM0LjYsMjIuNiAmIzk7JiM5OyIvPiYjeGE7CQk8cmVjdCB4PSIzNi42IiB5PSIyNCIgc3R5bGU9ImZpbGw6I0JCNTAxQzsiIHdpZHRoPSIxLjQiIGhlaWdodD0iMS4yIi8+JiN4YTsJCTxwb2x5Z29uIHN0eWxlPSJmaWxsOiNCQjUwMUM7IiBwb2ludHM9IjIwLDMyLjkgMTguNCwzMi45IDE3LjYsMzQuNCAxNi43LDMyLjkgMTUuMSwzMi45IDE2LjYsMzUuMyAxNSwzOCAxNi43LDM4IDE3LjYsMzYuMyAmIzEwOyYjOTsmIzk7JiM5OzE4LjUsMzggMjAuMSwzOCAxOC42LDM1LjQgJiM5OyYjOTsiLz4mI3hhOwkJPHJlY3QgeD0iMjAuOSIgeT0iMzYuOCIgc3R5bGU9ImZpbGw6I0JCNTAxQzsiIHdpZHRoPSIxLjQiIGhlaWdodD0iMS4yIi8+JiN4YTsJCTxwb2x5Z29uIHN0eWxlPSJmaWxsOiNCQjUwMUM7IiBwb2ludHM9IjI4LjMsMzIuOSAyNi44LDMyLjkgMjUuOSwzNC40IDI1LDMyLjkgMjMuNCwzMi45IDI0LjksMzUuMyAyMy40LDM4IDI1LDM4IDI1LjksMzYuMyAmIzEwOyYjOTsmIzk7JiM5OzI2LjgsMzggMjguNCwzOCAyNi44LDM1LjQgJiM5OyYjOTsiLz4mI3hhOwkJPHJlY3QgeD0iMjguOSIgeT0iMzYuOCIgc3R5bGU9ImZpbGw6I0JCNTAxQzsiIHdpZHRoPSIxLjQiIGhlaWdodD0iMS4yIi8+JiN4YTsJCTxwb2x5Z29uIHN0eWxlPSJmaWxsOiNCQjUwMUM7IiBwb2ludHM9IjM2LDMyLjkgMzQuNSwzMi45IDMzLjYsMzQuNCAzMi43LDMyLjkgMzEuMiwzMi45IDMyLjYsMzUuMyAzMS4xLDM4IDMyLjcsMzggMzMuNiwzNi4zICYjMTA7JiM5OyYjOTsmIzk7MzQuNiwzOCAzNi4xLDM4IDM0LjYsMzUuNCAmIzk7JiM5OyIvPiYjeGE7CQk8cmVjdCB4PSIzNi42IiB5PSIzNi44IiBzdHlsZT0iZmlsbDojQkI1MDFDOyIgd2lkdGg9IjEuNCIgaGVpZ2h0PSIxLjIiLz4mI3hhOwk8L2c+JiN4YTs8L2c+JiN4YTs8L3N2Zz4=;fontColor=#312D2A;strokeColor=#AE562C;fontFamily=Helvetica;fontSize=12;fillColor=#FCFBFA;" parent="1" vertex="1">
          <mxGeometry x="1111" y="130.00147540983608" width="31.52317880794702" height="31.52317880794702" as="geometry" />
        </mxCell>
        <mxCell id="YdG8qfdtloJJfCclqbba-29" value="" style="edgeStyle=orthogonalEdgeStyle;rounded=0;orthogonalLoop=1;jettySize=auto;html=1;" parent="1" edge="1">
          <mxGeometry relative="1" as="geometry">
            <mxPoint x="1113" y="144" as="sourcePoint" />
            <mxPoint x="1086" y="144" as="targetPoint" />
          </mxGeometry>
        </mxCell>
      </root>
    </mxGraphModel>
  </diagram>
</mxfile>
